<?xml version="1.0" encoding="utf-8"?>
<!-- Generator: Adobe Illustrator 26.0.2, SVG Export Plug-In . SVG Version: 6.00 Build 0)  -->
<svg version="1.1" id="Layer_1" xmlns="http://www.w3.org/2000/svg" xmlns:xlink="http://www.w3.org/1999/xlink" x="0px" y="0px"
	 viewBox="0 0 505.6 505.7" style="enable-background:new 0 0 505.6 505.7;" xml:space="preserve">
<style type="text/css">
	.st0{fill:#12A5C3;}
</style>
<path class="st0" d="M403.8,247.1c-24.6-62.4-83.9-102.8-151-102.8c-67.1,0-126.3,40.3-150.9,102.8l-2.2,5.7l2.2,5.7
	c24.6,62.4,83.9,102.8,150.9,102.8c67.1,0,126.3-40.3,151-102.8l2.2-5.7L403.8,247.1z M252.8,330.2c-52.2,0-98.5-30.2-119.7-77.4
	c21.2-47.2,67.5-77.4,119.7-77.4c52.2,0,98.5,30.2,119.7,77.4C351.3,300,305,330.2,252.8,330.2z"/>
<path class="st0" d="M253.7,195.1c-31.8,0-57.7,25.9-57.7,57.7c0,31.8,25.9,57.7,57.7,57.7s57.7-25.9,57.7-57.7
	S285.6,195.1,253.7,195.1L253.7,195.1z"/>
<path class="st0" d="M49.2,238.7H11.6c-10.8,0-11.6,9-11.6,11.7c0,3.4,1.1,11.2,11.6,11.2h37.6c9.2,0,9.9-8.8,9.9-11.5
	C59.1,247.5,58.4,238.7,49.2,238.7z"/>
<path class="st0" d="M99.3,116.8c1.8,1.7,4,2.8,6.4,2.8c4.7,0,10-4,12.1-9.1c2.1-5.2-0.2-8.4-2.2-10.4L88.9,74.3
	c-2.8-2.9-5.4-4.2-8.1-4.2c-4.5,0-9.4,3.6-11.3,8.1c-1.6,3.9-0.5,7.6,3.4,11.4L99.3,116.8z"/>
<path class="st0" d="M110.8,384.9c-2.6,0-5.3,1.4-7.9,4.1l-27.2,26.3c-2.9,3-3.6,6.4-1.9,10.4c2.1,5,7.5,9,12.1,9
	c2.3,0,4.4-1,6.4-3.1l26.8-26.9c3.6-3.6,4.4-7.3,2.7-11.6C119.9,388.4,115.1,384.9,110.8,384.9L110.8,384.9z"/>
<path class="st0" d="M426.5,69.4c-2.7,0-5.3,1.3-7.9,3.9l-27,26.1c-2.9,3-3.6,6.4-1.9,10.4c2.1,5,7.5,9,12.1,9c2.3,0,4.4-1,6.4-3.1
	l27-26.1c3.4-3.5,4.3-7.6,2.4-12C435.7,72.9,430.8,69.4,426.5,69.4L426.5,69.4z"/>
<path class="st0" d="M256.3,446.5c-2.7,0-11.5,0.7-11.5,9.9V494c0,10.8,9,11.6,11.7,11.6c3.1,0,6.1-1,8-2.8c2.1-1.9,3.2-4.9,3.2-8.9
	v-37.6C267.8,447.2,259,446.5,256.3,446.5L256.3,446.5z"/>
<path class="st0" d="M256.6,59.1c3.1,0,6.1-1,8-2.8c2.1-1.9,3.2-4.9,3.2-8.8V9.9c0-9.2-8.8-9.9-11.5-9.9c-2.7,0-11.5,0.7-11.5,9.9
	v37.6C244.9,58.3,253.8,59.1,256.6,59.1L256.6,59.1z"/>
<path class="st0" d="M404.6,389.2c-2.4-2.4-4.8-3.5-7.5-3.5c-4.7,0-9.8,3.7-11.7,8.4c-1.6,4-0.5,7.7,3.4,11.4l26.3,27.2
	c2.5,2.5,4.6,2.8,6,2.8c4.7,0,10.3-4.2,12.4-9.4c2.1-5,0-8-2.1-10.1L404.6,389.2z"/>
<path class="st0" d="M495.7,238.7h-37.6c-10.8,0-11.6,9-11.6,11.7c0,3.4,1.1,11.2,11.6,11.2h37.6c9.2,0,9.9-8.8,9.9-11.5
	C505.6,247.5,504.9,238.7,495.7,238.7z"/>
</svg>
