<?xml version="1.0" encoding="utf-8"?>
<!-- Generator: Adobe Illustrator 26.0.2, SVG Export Plug-In . SVG Version: 6.00 Build 0)  -->
<svg version="1.1" id="artwork" xmlns="http://www.w3.org/2000/svg" xmlns:xlink="http://www.w3.org/1999/xlink" x="0px" y="0px"
	 viewBox="0 0 509.8 152.9" style="enable-background:new 0 0 509.8 152.9;" xml:space="preserve">
<style type="text/css">
	.st0{fill:#B6B6B6;}
	.st1{fill:#FFFFFF;}
	.st2{fill-rule:evenodd;clip-rule:evenodd;fill:#C8102E;}
</style>
<desc>Created with Sketch.</desc>
<g>
	<g>
		<path class="st0" d="M473.8,0H36c-1.4,0-2.8,0-4.1,0c-1.2,0-2.3,0-3.5,0c-2.5,0.1-5.1,0.2-7.6,0.7c-2.5,0.4-4.9,1.2-7.2,2.4
			c-2.3,1.2-4.3,2.7-6.1,4.4c-1.8,1.8-3.3,3.9-4.4,6.1c-1.2,2.3-1.9,4.7-2.4,7.2c-0.5,2.5-0.6,5-0.7,7.6c0,1.2,0,2.3-0.1,3.5
			c0,1.4,0,2.7,0,4.1v81c0,1.4,0,2.8,0,4.1c0,1.2,0,2.3,0.1,3.5c0.1,2.5,0.2,5.1,0.7,7.6c0.4,2.5,1.2,4.9,2.4,7.2
			c1.1,2.2,2.6,4.3,4.4,6.1c1.8,1.8,3.8,3.3,6.1,4.4c2.3,1.2,4.6,1.9,7.2,2.4c2.5,0.4,5.1,0.6,7.6,0.7c1.2,0,2.3,0,3.5,0
			c1.4,0,2.7,0,4.1,0h437.8c1.4,0,2.7,0,4.1,0c1.1,0,2.3,0,3.5,0c2.5-0.1,5.1-0.2,7.5-0.7c2.5-0.5,4.9-1.2,7.2-2.4
			c2.3-1.1,4.3-2.6,6.1-4.4c1.8-1.8,3.3-3.8,4.5-6.1c1.2-2.3,1.9-4.7,2.3-7.2c0.5-2.5,0.6-5,0.7-7.6c0-1.2,0-2.3,0-3.5
			c0-1.4,0-2.7,0-4.1V36c0-1.4,0-2.8,0-4.1c0-1.2,0-2.3,0-3.5c-0.1-2.5-0.2-5.1-0.7-7.6c-0.4-2.5-1.2-4.9-2.3-7.2
			c-1.2-2.3-2.7-4.3-4.5-6.1c-1.8-1.8-3.8-3.3-6.1-4.4c-2.3-1.2-4.7-1.9-7.2-2.4c-2.5-0.4-5-0.6-7.5-0.7c-1.1,0-2.3,0-3.5,0
			C476.6,0,475.2,0,473.8,0L473.8,0z"/>
		<path d="M31.9,149.6c-1.1,0-2.3,0-3.4,0c-2.1-0.1-4.6-0.2-7.1-0.6c-2.3-0.4-4.4-1.1-6.3-2.1c-2-1-3.7-2.3-5.3-3.8
			c-1.6-1.5-2.8-3.3-3.9-5.3c-1-1.9-1.6-4-2-6.3c-0.5-2.5-0.6-5.1-0.6-7.1c0-0.8-0.1-3.4-0.1-3.4V31.9c0,0,0-2.6,0.1-3.4
			c0-2,0.2-4.6,0.6-7.1C4.4,19.1,5,17.1,6,15.2c1-2,2.3-3.8,3.8-5.3C11.4,8.3,13.2,7,15.2,6c1.9-1,4-1.7,6.2-2.1
			c2.5-0.5,5.1-0.6,7.1-0.6l3.4,0h446l3.4,0c1.9,0,4.5,0.2,7,0.6c2.3,0.4,4.3,1.1,6.3,2.1c1.9,1,3.7,2.3,5.3,3.8
			c1.5,1.5,2.8,3.3,3.9,5.3c1,1.9,1.6,4,2,6.2c0.4,2.4,0.6,4.8,0.7,7.1c0,1.1,0,2.2,0,3.4c0,1.4,0,2.8,0,4.1v81c0,1.4,0,2.7,0,4.1
			c0,1.2,0,2.4,0,3.5c-0.1,2.2-0.2,4.7-0.6,7c-0.4,2.3-1.1,4.4-2,6.3c-1,2-2.3,3.7-3.8,5.2c-1.6,1.6-3.3,2.9-5.3,3.9
			c-2,1-4,1.7-6.3,2.1c-2.4,0.4-4.9,0.6-7.1,0.6c-1.1,0-2.3,0-3.4,0l-4.1,0L31.9,149.6z"/>
	</g>
	<g>
		<g>
			<path class="st1" d="M189.2,103.2h-17.9l-4.4,12h-7.9l17.5-44.7h7.4l17.9,44.7h-8.3L189.2,103.2z M173.6,97.2h13.4l-4.8-12.8
				c-0.7-1.8-1.3-3.7-1.9-5.9c-0.6,1.9-1.2,3.8-1.9,5.8L173.6,97.2z"/>
			<path class="st1" d="M205.1,90.1c0-2.5-0.1-5.2-0.2-8.1h7.2c0.3,1.4,0.5,2.8,0.6,4.2c3-3.2,6.4-4.8,10.2-4.8
				c2.2,0,4.3,0.6,6.2,1.7c1.9,1.1,3.4,2.9,4.6,5.3c1.2,2.4,1.7,5.5,1.7,9.2c0,3.9-0.7,7.2-2,10c-1.3,2.8-3.2,4.8-5.6,6.3
				c-2.4,1.4-5.1,2.1-8.3,2.1c-2.3,0-4.5-0.4-6.7-1.1v13.8l-7.6,0.7V90.1z M225.2,107.1c1.6-2.1,2.3-5.1,2.3-9.2
				c0-3.7-0.6-6.4-1.9-8.1c-1.3-1.7-3-2.5-5.1-2.5c-1.5,0-2.9,0.3-4.1,1c-1.3,0.7-2.4,1.6-3.6,2.8V109c0.8,0.4,1.6,0.7,2.7,0.9
				c1,0.2,2,0.3,3,0.3C221.4,110.2,223.6,109.2,225.2,107.1z"/>
			<path class="st1" d="M239.9,90.1c0-2.5-0.1-5.2-0.2-8.1h7.2c0.3,1.4,0.5,2.8,0.6,4.2c3-3.2,6.4-4.8,10.2-4.8
				c2.2,0,4.3,0.6,6.2,1.7c1.9,1.1,3.4,2.9,4.6,5.3c1.2,2.4,1.7,5.5,1.7,9.2c0,3.9-0.7,7.2-2,10c-1.3,2.8-3.2,4.8-5.6,6.3
				c-2.4,1.4-5.1,2.1-8.3,2.1c-2.3,0-4.5-0.4-6.7-1.1v13.8l-7.6,0.7V90.1z M260,107.1c1.6-2.1,2.3-5.1,2.3-9.2
				c0-3.7-0.6-6.4-1.9-8.1c-1.3-1.7-3-2.5-5.1-2.5c-1.5,0-2.9,0.3-4.1,1c-1.3,0.7-2.4,1.6-3.6,2.8V109c0.8,0.4,1.6,0.7,2.7,0.9
				c1,0.2,2,0.3,3,0.3C256.2,110.2,258.4,109.2,260,107.1z"/>
			<path class="st1" d="M284.1,113.1c-3.3-1.8-5.8-4.4-7.6-7.8s-2.7-7.4-2.7-12c0-5,1-9.3,3.1-12.8c2-3.5,4.8-6.1,8.3-7.9
				c3.5-1.8,7.4-2.6,11.8-2.6c2.6,0,5,0.3,7.4,0.8c2.3,0.6,4.5,1.3,6.5,2.3l-1.9,5.9C304.9,77,301,76,297.4,76c-3.1,0-5.8,0.7-8.2,2
				c-2.3,1.3-4.2,3.3-5.5,5.8c-1.3,2.6-1.9,5.7-1.9,9.3c0,3.2,0.5,6,1.5,8.5c1,2.5,2.6,4.4,4.7,5.9c2.1,1.4,4.9,2.2,8.1,2.2
				c1.5,0,3-0.1,4.4-0.4c1.5-0.2,2.9-0.6,4.2-1.1v-9h-10.3v-5.9h17.7v18.8c-2.6,1.2-5.2,2.1-8,2.7c-2.8,0.6-5.6,1-8.4,1
				C291.3,115.8,287.4,114.9,284.1,113.1z"/>
			<path class="st1" d="M339.3,115.2c-0.3-1.3-0.4-2.8-0.5-4.4c-1.2,1.4-2.7,2.6-4.6,3.6c-1.9,1-4,1.5-6.4,1.5
				c-1.9,0-3.7-0.4-5.2-1.1c-1.6-0.8-2.8-1.9-3.8-3.4c-0.9-1.5-1.4-3.4-1.4-5.5c0-3.2,1.2-5.8,3.5-7.7c2.3-1.9,6.2-2.9,11.6-2.9
				c2,0,4.1,0.1,6.1,0.4v-0.7c0-2.9-0.6-5-1.9-6.2c-1.3-1.2-3.1-1.8-5.4-1.8c-1.6,0-3.4,0.2-5.2,0.7c-1.9,0.5-3.5,1-4.9,1.7
				l-1.2-5.6c1.4-0.6,3.1-1.2,5.4-1.7c2.2-0.5,4.6-0.8,7-0.8c2.9,0,5.3,0.4,7.3,1.3c2,0.9,3.6,2.4,4.7,4.5c1.1,2.1,1.7,5,1.7,8.6
				v13.2c0,1.4,0.1,3.5,0.2,6.3H339.3z M334.7,109c1.6-0.8,2.9-1.7,3.9-2.8V100c-2.1-0.2-3.8-0.3-5.1-0.3c-3.1,0-5.3,0.5-6.5,1.5
				c-1.2,1-1.8,2.4-1.8,4.1c0,1.6,0.4,2.9,1.3,3.7c0.9,0.8,2.1,1.2,3.6,1.2C331.6,110.2,333.1,109.8,334.7,109z"/>
			<path class="st1" d="M352,107.2V67.9l7.6-0.6v38.6c0,1.4,0.2,2.4,0.7,3c0.5,0.6,1.2,0.9,2.3,0.9c0.5,0,1.1-0.1,2-0.3l0.9,5.5
				c-0.7,0.3-1.6,0.5-2.6,0.7c-1,0.2-2,0.3-2.9,0.3C354.7,115.8,352,113,352,107.2z"/>
			<path class="st1" d="M371,107.2V67.9l7.6-0.6v38.6c0,1.4,0.2,2.4,0.7,3c0.5,0.6,1.2,0.9,2.3,0.9c0.5,0,1.1-0.1,2-0.3l0.9,5.5
				c-0.7,0.3-1.6,0.5-2.6,0.7c-1,0.2-2,0.3-2.9,0.3C373.7,115.8,371,113,371,107.2z"/>
			<path class="st1" d="M415.8,99.5H394c0.3,7,3.7,10.5,10,10.5c1.6,0,3.2-0.2,4.8-0.6c1.6-0.4,3.2-0.9,4.7-1.5l1.7,5.2
				c-3.7,1.8-7.9,2.7-12.6,2.7c-3.5,0-6.5-0.7-9-2c-2.4-1.3-4.3-3.3-5.5-5.8c-1.2-2.5-1.8-5.5-1.8-9.1c0-3.7,0.6-6.9,1.9-9.5
				c1.3-2.7,3.1-4.7,5.4-6.1c2.3-1.4,5-2.1,8-2.1c3.1,0,5.8,0.7,7.9,2.2c2.1,1.5,3.7,3.4,4.7,5.9c1,2.5,1.5,5.2,1.5,8.1V99.5z
				 M408.3,94.7c-0.1-2.7-0.8-4.6-2-6c-1.2-1.3-2.8-2-4.8-2c-1.9,0-3.5,0.7-4.8,2c-1.3,1.3-2.1,3.3-2.5,6H408.3z"/>
			<path class="st1" d="M421.5,90.3c0-1.8-0.1-4.6-0.2-8.4h7.1c0.1,0.9,0.2,2,0.4,3.3c0.1,1.3,0.2,2.3,0.2,3.1
				c0.9-1.5,1.8-2.7,2.6-3.7c0.9-1,1.9-1.8,3-2.4c1.1-0.6,2.4-0.9,3.9-0.9c1.2,0,2.2,0.1,3,0.4l-1,6.6c-0.7-0.2-1.6-0.3-2.5-0.3
				c-1.8,0-3.4,0.5-4.7,1.4c-1.3,0.9-2.8,2.4-4.3,4.5v21.4h-7.6V90.3z"/>
			<path class="st1" d="M445.8,128.8c-1.1-0.2-2-0.4-2.7-0.7l1.4-5.6c0.5,0.1,1.2,0.3,1.9,0.4c0.8,0.1,1.5,0.2,2.2,0.2
				c3.4,0,5.9-2.2,7.6-6.5l0.5-1.2l-12.3-33.6h8.2l6.2,18.8c1,3.2,1.7,5.7,1.9,7.4c0.6-2.4,1.3-4.8,2-7.2l6.3-18.9h7.7l-12.3,33.7
				c-1.2,3.2-2.4,5.8-3.7,7.7c-1.3,2-2.9,3.4-4.7,4.4c-1.8,0.9-4,1.4-6.6,1.4C448.1,129.1,446.9,129,445.8,128.8z"/>
		</g>
		<g>
			<path class="st1" d="M159,27.9h13.6l-0.4,3.3H163v6.4h8.7v3.1H163v7h9.7l-0.3,3.3H159V27.9z"/>
			<path class="st1" d="M182,39.2l-7.2-11.3h4.5l4.9,8.3l5.1-8.3h4.4l-7.1,11.2l7.7,11.9h-4.6l-5.5-9.1l-5.6,9.1h-4.4L182,39.2z"/>
			<path class="st1" d="M197.2,27.9h6.2c2.9,0,5.2,0.6,6.7,1.8c1.6,1.2,2.3,2.9,2.3,5.2c0,1.5-0.3,2.9-1,4c-0.7,1.1-1.7,2-2.9,2.6
				c-1.2,0.6-2.7,0.9-4.3,0.9c-0.9,0-1.9-0.1-3-0.3V51h-4V27.9z M207.2,38.2c0.8-0.8,1.3-1.9,1.3-3.3c0-1.4-0.4-2.4-1.3-3.1
				c-0.9-0.6-2.1-0.9-3.8-0.9h-2.2v8.2c1,0.2,1.8,0.2,2.3,0.2C205.1,39.4,206.4,39,207.2,38.2z"/>
			<path class="st1" d="M216.4,27.9h4v19.7h9.5l-0.3,3.4h-13.2V27.9z"/>
			<path class="st1" d="M236,49.9c-1.7-1-3-2.3-3.9-4.1c-0.9-1.7-1.3-3.8-1.3-6.1c0-2.4,0.5-4.6,1.4-6.4c1-1.8,2.3-3.2,4.1-4.2
				c1.8-1,3.9-1.5,6.3-1.5c2.3,0,4.3,0.5,6,1.4c1.7,1,3,2.3,3.8,4.1c0.9,1.7,1.3,3.8,1.3,6.1c0,2.5-0.5,4.6-1.4,6.5
				c-1,1.8-2.3,3.2-4.1,4.2c-1.8,1-3.9,1.5-6.3,1.5C239.7,51.3,237.7,50.8,236,49.9z M246.3,47c1.1-0.7,1.9-1.8,2.5-3.1
				c0.6-1.3,0.8-2.8,0.8-4.5c0-1.7-0.2-3.1-0.7-4.4c-0.5-1.3-1.3-2.3-2.3-3.1c-1.1-0.8-2.5-1.2-4.1-1.2c-1.6,0-3,0.4-4.1,1.2
				c-1.1,0.8-2,1.8-2.5,3.1c-0.6,1.3-0.8,2.8-0.8,4.3c0,1.7,0.3,3.2,0.8,4.5c0.5,1.3,1.3,2.4,2.4,3.1c1.1,0.8,2.4,1.1,4.1,1.1
				C243.8,48.2,245.2,47.8,246.3,47z"/>
			<path class="st1" d="M258.3,27.9h7.2c2.6,0,4.6,0.5,6,1.6c1.4,1.1,2,2.6,2,4.5c0,1.2-0.2,2.3-0.7,3.2c-0.5,0.9-1.1,1.7-1.8,2.3
				c-0.7,0.6-1.5,1-2.2,1.3l7.1,10.2h-4.6l-6-9.1h-2.9V51h-4V27.9z M264.5,38.8c1,0,1.8-0.2,2.6-0.6c0.7-0.4,1.3-0.9,1.7-1.6
				c0.4-0.7,0.6-1.5,0.6-2.4c0-1.2-0.4-2-1.1-2.5c-0.7-0.5-1.8-0.8-3.2-0.8h-2.9v7.9H264.5z"/>
			<path class="st1" d="M279,27.9h13.6l-0.4,3.3h-9.2v6.4h8.7v3.1h-8.7v7h9.7l-0.3,3.3H279V27.9z"/>
			<path class="st1" d="M307.3,27.9h4V51h-4V27.9z"/>
			<path class="st1" d="M321.8,31.2h-7.2l0.4-3.3h18l-0.4,3.3h-6.8V51h-4V31.2z"/>
			<path class="st1" d="M350.3,49.9c-1.7-1-3-2.3-3.9-4.1c-0.9-1.7-1.3-3.8-1.3-6.1c0-2.4,0.5-4.6,1.4-6.4c0.9-1.8,2.3-3.2,4.1-4.2
				c1.8-1,3.9-1.5,6.3-1.5c2.3,0,4.3,0.5,6,1.4c1.7,1,3,2.3,3.8,4.1c0.9,1.7,1.3,3.8,1.3,6.1c0,2.5-0.5,4.6-1.4,6.5
				c-1,1.8-2.3,3.2-4.1,4.2c-1.8,1-3.9,1.5-6.3,1.5C354,51.3,352,50.8,350.3,49.9z M360.6,47c1.1-0.7,1.9-1.8,2.5-3.1
				c0.6-1.3,0.8-2.8,0.8-4.5c0-1.7-0.2-3.1-0.7-4.4c-0.5-1.3-1.3-2.3-2.3-3.1c-1.1-0.8-2.5-1.2-4.1-1.2c-1.6,0-3,0.4-4.1,1.2
				c-1.1,0.8-2,1.8-2.5,3.1c-0.6,1.3-0.8,2.8-0.8,4.3c0,1.7,0.3,3.2,0.8,4.5c0.5,1.3,1.3,2.4,2.4,3.1c1.1,0.8,2.5,1.1,4.1,1.1
				C358.1,48.2,359.5,47.8,360.6,47z"/>
			<path class="st1" d="M372.6,27.9h4.6l11.4,17.9c-0.1-1.7-0.1-3.3-0.1-4.7V27.9h3.7V51h-4.4l-11.6-18.2c0.1,2.1,0.2,3.9,0.2,5.5
				V51h-3.7V27.9z"/>
		</g>
	</g>
	<g>
		<g id="形状_1_拷贝_25_4_">
			<g>
				<path class="st2" d="M103,28H60.7c-20,0-27.3,7.3-27.3,27.3v42.4c0,20,7.3,27.3,27.3,27.3H103c20,0,27.3-7.3,27.3-27.3l0-42.4
					C130.3,35.3,123,28,103,28z"/>
			</g>
		</g>
		<g>
			<path class="st1" d="M52.6,76.5h2.6v12.7h-2.6V84h-5.8v5.1h-2.6V76.5h2.6v5.1h5.8V76.5z M67.1,83.7c0,2.1-1,3.2-2.9,3.2
				c-1.9,0-2.9-1.1-2.9-3.2v-7.2h-2.6v7.2c0,3.6,2,5.6,5.4,5.6c3.5,0,5.5-2.1,5.5-5.7v-7.1h-2.6V83.7z M96.8,85.2l-2.9-8.7h-2.1
				l-2.9,8.7l-2.8-8.7h-2.7l4.4,12.7h2.1l2.9-8.3l2.9,8.3h2.1l4.4-12.7h-2.7L96.8,85.2z M106.8,83.7h4.7v-2.3h-4.7v-2.6h6.8v-2.3
				h-9.3v12.6h9.6v-2.3h-7V83.7z M116.9,89.1h2.5V76.5h-2.5V89.1z M74.7,86.5l-1.2,2.6h-2.6l5.6-12.7h2.3l5.6,12.7h-2.7l-1.1-2.6
				H74.7z M75.7,84.2h3.9l-1.9-4.5L75.7,84.2z"/>
			<path class="st1" d="M81.8,60.4c-8.9,0-16.1-7.2-16.1-16.1H68c0,7.6,6.2,13.8,13.8,13.8c7.6,0,13.8-6.2,13.8-13.8H98
				C98,53.1,90.7,60.4,81.8,60.4z"/>
		</g>
	</g>
</g>
</svg>
