<?xml version="1.0" encoding="utf-8"?>
<!-- Generator: Adobe Illustrator 25.2.1, SVG Export Plug-In . SVG Version: 6.00 Build 0)  -->
<!DOCTYPE svg PUBLIC "-//W3C//DTD SVG 1.1//EN" "http://www.w3.org/Graphics/SVG/1.1/DTD/svg11.dtd" [
	<!ENTITY ns_extend "http://ns.adobe.com/Extensibility/1.0/">
	<!ENTITY ns_ai "http://ns.adobe.com/AdobeIllustrator/10.0/">
	<!ENTITY ns_graphs "http://ns.adobe.com/Graphs/1.0/">
	<!ENTITY ns_vars "http://ns.adobe.com/Variables/1.0/">
	<!ENTITY ns_imrep "http://ns.adobe.com/ImageReplacement/1.0/">
	<!ENTITY ns_sfw "http://ns.adobe.com/SaveForWeb/1.0/">
	<!ENTITY ns_custom "http://ns.adobe.com/GenericCustomNamespace/1.0/">
	<!ENTITY ns_adobe_xpath "http://ns.adobe.com/XPath/1.0/">
]>
<svg version="1.1" id="Layer_1" xmlns:x="&ns_extend;" xmlns:i="&ns_ai;" xmlns:graph="&ns_graphs;"
	 xmlns="http://www.w3.org/2000/svg" xmlns:xlink="http://www.w3.org/1999/xlink" x="0px" y="0px" viewBox="0 0 94.9 94.9"
	 style="enable-background:new 0 0 94.9 94.9;" xml:space="preserve">
<style type="text/css">
	.st0{fill:#00B7E2;}
</style>
<metadata>
	<sfw  xmlns="&ns_sfw;">
		<slices></slices>
		<sliceSourceBounds  bottomLeftOrigin="true" height="94.9" width="94.9" x="-66.7" y="47.6"></sliceSourceBounds>
	</sfw>
</metadata>
<g>
	<path class="st0" d="M72.3,0H61.4c-2.9,0-5.2,2.4-5.2,5.2v0c0,2.9,2.4,5.2,5.2,5.2h10.8c6.8,0,12.3,5.5,12.3,12.2v49.6
		c0,6.7-5.5,12.2-12.2,12.2H22.7c-6.7,0-12.2-5.5-12.2-12.2V22.7c0-6.7,5.5-12.2,12.2-12.2h11.1c2.9,0,5.2-2.4,5.2-5.2v0
		c0-2.9-2.4-5.2-5.2-5.2H22.7C10.2,0,0,10.2,0,22.7v49.5c0,12.5,10.2,22.7,22.7,22.7h49.5c12.5,0,22.7-10.2,22.7-22.7V22.7
		C95,10.2,84.8,0,72.3,0z"/>
</g>
<path class="st0" d="M43.7,3.9v53.5L30.5,44.3c-1.5-1.5-4-1.5-5.6,0c-0.8,0.8-1.2,1.8-1.2,2.8c0,1,0.4,2,1.2,2.8l19.9,19.9
	c0,0,0,0,0,0c0.1,0.1,0.2,0.2,0.3,0.2c0,0,0.1,0.1,0.1,0.1c0.1,0,0.1,0.1,0.2,0.1c0.1,0,0.1,0.1,0.2,0.1c0.1,0,0.1,0.1,0.2,0.1
	c0.1,0,0.1,0.1,0.2,0.1c0.1,0,0.1,0.1,0.2,0.1c0.1,0,0.1,0,0.2,0.1c0.1,0,0.1,0,0.2,0.1c0.1,0,0.1,0,0.2,0c0.1,0,0.1,0,0.2,0
	c0.1,0,0.1,0,0.2,0c0.1,0,0.1,0,0.2,0c0.1,0,0.2,0,0.4,0c0,0,0,0,0,0c0,0,0,0,0,0c0.1,0,0.2,0,0.4,0c0.1,0,0.1,0,0.2,0
	c0.1,0,0.1,0,0.2,0c0.1,0,0.1,0,0.2,0c0.1,0,0.1,0,0.2,0c0.1,0,0.1,0,0.2-0.1c0.1,0,0.1,0,0.2-0.1c0.1,0,0.1-0.1,0.2-0.1
	c0.1,0,0.1-0.1,0.2-0.1c0.1,0,0.1-0.1,0.2-0.1c0.1,0,0.1-0.1,0.2-0.1c0.1,0,0.1-0.1,0.2-0.1c0,0,0.1-0.1,0.1-0.1
	c0.1-0.1,0.2-0.2,0.3-0.2c0,0,0,0,0,0l19.9-19.9c1.5-1.5,1.5-4,0-5.6s-4-1.5-5.6,0L51.5,57.5V3.9c0-2.2-1.8-3.9-3.9-3.9
	C45.4,0,43.7,1.8,43.7,3.9z"/>
</svg>
