<?xml version="1.0" encoding="utf-8"?>
<!-- Generator: Adobe Illustrator 25.3.1, SVG Export Plug-In . SVG Version: 6.00 Build 0)  -->
<svg version="1.1" id="Layer_1" xmlns="http://www.w3.org/2000/svg" xmlns:xlink="http://www.w3.org/1999/xlink" x="0px" y="0px"
	 viewBox="0 0 128 126.4" style="enable-background:new 0 0 128 126.4;" xml:space="preserve">
<style type="text/css">
	.st0{fill:#00B5E2;}
</style>
<path class="st0" d="M50.3,30.7H27.1c-0.6,0-1,0.4-1,1v66.3c0,0.6,0.4,1,1,1H91c4.2,0,7.6-3.4,7.6-7.6v-5.9c0-0.1,0-0.2-0.1-0.3h6.5
	c0.6,0,1-0.4,1-1V59c0-0.6-0.4-1-1-1h-6.5c0-0.1,0.1-0.2,0.1-0.3V38.3c0-4.2-3.4-7.6-7.6-7.6c0,0,0,0,0,0H73.7L69,26
	c-0.4-0.4-1-0.4-1.4,0l-5.5,5.4L56.7,26c-0.4-0.4-1-0.4-1.4,0l-4.8,4.8C50.5,30.8,50.4,30.8,50.3,30.7z M48.5,32.7L37.1,44.1h-9.1
	V32.7H48.5z M104,83.3H74c-6.4,0-11.6-5.2-11.6-11.6S67.6,60,74,60h30V83.3z M74,58c-7.5,0-13.6,6-13.7,13.5l0,0v0.1l0,0
	c0,7.5,6.2,13.6,13.7,13.6h22.7c0,0.1-0.1,0.2-0.1,0.3v5.9c0,3.1-2.5,5.6-5.6,5.6c0,0,0,0,0,0H28V46.1h63c3.1,0,5.6,2.5,5.6,5.6v6
	c0,0.1,0,0.2,0.1,0.3L74,58z M91,32.7c3.1,0,5.6,2.5,5.6,5.6v8.3c-1.4-1.6-3.4-2.5-5.6-2.5h-3.9L75.7,32.7H91z M68.3,28.1l16,16
	h-9.5L63.5,32.9L68.3,28.1z M56,28.1l16,16H40L56,28.1z"/>
<path class="st0" d="M68.7,71.6c0,2.9,2.4,5.3,5.3,5.3c2.9,0,5.3-2.4,5.3-5.3c0-2.9-2.4-5.3-5.3-5.3C71.1,66.3,68.7,68.7,68.7,71.6
	C68.7,71.6,68.7,71.6,68.7,71.6z M77.3,71.6c0,1.8-1.5,3.3-3.3,3.3c-1.8,0-3.3-1.5-3.3-3.3c0-1.8,1.5-3.3,3.3-3.3c0,0,0,0,0,0
	C75.8,68.3,77.3,69.8,77.3,71.6z"/>
<path class="st0" d="M126.3,47.9c-0.5-2-1-4-1.7-5.9c-0.2-0.5-0.7-0.8-1.3-0.6c-0.5,0.2-0.8,0.7-0.6,1.3c0.6,1.9,1.2,3.8,1.6,5.8
	c7.7,33.3-13,66.6-46.4,74.4c-1.9,0.4-3.8,0.8-5.7,1.1c-0.6,0-1,0.5-0.9,1.1c0,0.6,0.5,1,1.1,0.9h0.1c2-0.3,4-0.6,5.9-1.1
	C112.9,116.8,134.3,82.4,126.3,47.9C126.4,48,126.4,48,126.3,47.9L126.3,47.9z"/>
<path class="st0" d="M64,124.4c-1.5,0-3.1-0.1-4.6-0.2c-0.6,0-1,0.4-1.1,0.9c0,0.6,0.4,1,0.9,1.1c1.6,0.1,3.2,0.2,4.8,0.2
	c0.6,0,1-0.4,1-1S64.5,124.4,64,124.4L64,124.4z"/>
<path class="st0" d="M43.8,3.7c0.1,0,0.2,0,0.3-0.1C46.1,3,48,2.4,50,2c0.5-0.1,0.9-0.7,0.8-1.2S50.1-0.1,49.6,0c-2,0.5-4.1,1-6,1.7
	C43,1.9,42.7,2.5,42.9,3C43,3.4,43.4,3.7,43.8,3.7L43.8,3.7z"/>
<path class="st0" d="M1,62.5L1,62.5c0.6,0,1-0.4,1-1c0.3-22.7,12.9-43.4,33-54c0.5-0.2,0.7-0.8,0.5-1.3c-0.2-0.5-0.8-0.7-1.3-0.5
	c0,0,0,0,0,0C13.4,16.7,0.3,38.1,0,61.5C0,62.1,0.4,62.5,1,62.5C1,62.5,1,62.5,1,62.5z"/>
<path class="st0" d="M42.8,120.2L42.8,120.2c0.2-0.5-0.1-1.1-0.6-1.3C21,110.8,6,91.7,3,69.2c-0.1-0.5-0.6-0.9-1.1-0.9
	c-0.5,0.1-0.9,0.6-0.9,1.1c0,0,0,0,0,0c3.1,23.2,18.6,42.9,40.5,51.3C42,120.9,42.6,120.7,42.8,120.2
	C42.8,120.2,42.8,120.2,42.8,120.2z"/>
<path class="st0" d="M63.5,1L63.5,1c0,0.6,0.5,1,1,1c22.7,0.2,43.4,12.8,54.1,32.8c0.2,0.5,0.8,0.7,1.3,0.4c0.5-0.2,0.7-0.8,0.4-1.3
	c0,0,0,0,0,0C109.4,13.2,87.9,0.2,64.5,0C63.9,0,63.5,0.4,63.5,1C63.5,1,63.5,1,63.5,1z"/>
</svg>
