<?xml version="1.0" encoding="utf-8"?>
<!-- Generator: Adobe Illustrator 22.1.0, SVG Export Plug-In . SVG Version: 6.00 Build 0)  -->
<svg version="1.1" id="Layer_1" xmlns="http://www.w3.org/2000/svg" xmlns:xlink="http://www.w3.org/1999/xlink" x="0px" y="0px"
	 viewBox="0 0 64.1 46.4" style="enable-background:new 0 0 64.1 46.4;" xml:space="preserve">
<style type="text/css">
	.st0{fill:none;stroke:#000000;stroke-miterlimit:10;}
</style>
<rect x="0.5" y="5.7" class="st0" width="63" height="40.2"/>
<rect x="55.1" y="22.4" class="st0" width="8.5" height="6.8"/>
<circle cx="59.3" cy="25.8" r="1.2"/>
<path d="M43.6,19.3l-0.9-1.5c-0.4-0.6-0.6-1-0.8-1.4h0c-0.2,0.4-0.4,0.8-0.7,1.4l-0.8,1.5h-1l2.1-3.5l-2-3.4h1l0.9,1.6
	c0.3,0.4,0.4,0.8,0.6,1.2h0c0.2-0.4,0.4-0.7,0.6-1.2l0.9-1.6h1l-2.1,3.3l2.1,3.5L43.6,19.3L43.6,19.3z"/>
<path d="M23.4,19.3l-0.9-1.5c-0.4-0.6-0.6-1-0.8-1.4h0c-0.2,0.4-0.4,0.8-0.7,1.4l-0.8,1.5h-1l2.1-3.5l-2-3.4h1l0.9,1.6
	c0.3,0.4,0.4,0.8,0.6,1.2h0c0.2-0.4,0.4-0.7,0.6-1.2l0.9-1.6h1l-2.1,3.3l2.1,3.5L23.4,19.3L23.4,19.3z"/>
<polyline class="st0" points="0.5,5.7 62.6,0.6 62.8,5.5 "/>
<polyline class="st0" points="14.4,39.1 18.8,34.6 23.4,39.1 27.9,34.6 32.3,39 36.9,34.7 41.3,39.1 45.8,34.6 50.3,39.1 "/>
</svg>
