<?xml version="1.0" encoding="utf-8"?>
<!-- Generator: Adobe Illustrator 23.0.3, SVG Export Plug-In . SVG Version: 6.00 Build 0)  -->
<!DOCTYPE svg PUBLIC "-//W3C//DTD SVG 1.1//EN" "http://www.w3.org/Graphics/SVG/1.1/DTD/svg11.dtd" [
	<!ENTITY ns_extend "http://ns.adobe.com/Extensibility/1.0/">
	<!ENTITY ns_ai "http://ns.adobe.com/AdobeIllustrator/10.0/">
	<!ENTITY ns_graphs "http://ns.adobe.com/Graphs/1.0/">
	<!ENTITY ns_vars "http://ns.adobe.com/Variables/1.0/">
	<!ENTITY ns_imrep "http://ns.adobe.com/ImageReplacement/1.0/">
	<!ENTITY ns_sfw "http://ns.adobe.com/SaveForWeb/1.0/">
	<!ENTITY ns_custom "http://ns.adobe.com/GenericCustomNamespace/1.0/">
	<!ENTITY ns_adobe_xpath "http://ns.adobe.com/XPath/1.0/">
]>
<svg version="1.1" id="Layer_1" xmlns:x="&ns_extend;" xmlns:i="&ns_ai;" xmlns:graph="&ns_graphs;"
	 xmlns="http://www.w3.org/2000/svg" xmlns:xlink="http://www.w3.org/1999/xlink" x="0px" y="0px" viewBox="0 0 422.1 513.2"
	 style="enable-background:new 0 0 422.1 513.2;" xml:space="preserve">
<style type="text/css">
	.st0{fill:#FFFFFF;}
</style>
<metadata>
	<sfw  xmlns="&ns_sfw;">
		<slices></slices>
		<sliceSourceBounds  bottomLeftOrigin="true" height="513.2" width="422.1" x="870.9" y="-734.3"></sliceSourceBounds>
	</sfw>
</metadata>
<g>
	<path class="st0" d="M421,60c0.7,5,1,10.1,1,15.3c0,5.3,0,10.5,0,15.8c0,10.5,0,21.1,0,31.6c0,21.1,0,42.1,0,63.2s0,42.1,0,63.2
		s0,42.1,0,63.2c0,10.5,0,21.1,0,31.6c0,6.5-0.1,13,0,19.5c0.4,15.4-2.3,30.1-10,43.6c-3.5,6-7.9,11.4-13.2,16
		c-9.1,8-20.4,13-32.2,15.7c-4.2,1-5.6,2.1-5.6,6.5c0,15-5,29.7-14.3,41.6c-10.5,13.4-26.2,23.1-43.1,25.7
		c-8.8,1.3-17.6,0.6-26.5,0.6c-10.5,0-21,0-31.5,0c-12.4,0-24.8,0-37.2,0c-30.9,0-61.9-0.7-92.7-0.2c-10.2,0.2-20.4,0.3-30.6,0.5
		c-14.2,0.2-28.2,0.1-41.6-5.3c-11.4-4.7-21.6-12.3-29.2-22c-0.9-1.2-1.8-2.4-2.7-3.7c-3.4-5-6.1-10.5-8.1-16.2
		c-4.5-12.6-3.6-25.1-3.6-38.2c0-15.7,0-31.5,0-47.2c0-6.8,0-13.5,0-20.3c0-31.5,0-63.1,0-94.6s0-63.1,0-94.6c0-9.6,0-19.2,0-28.9
		c0-24.8,15.1-49.3,37.2-60.6c2.4-1.2,4.8-2.3,7.3-3.2c7.7-2.9,15.9-4.3,24.1-4.3c54.3,0,108.6,0,163,0c15.6,0,28.9,5.6,39.9,16.5
		c24.3,24.2,48.6,48.5,72.8,72.8c11.1,11.1,16.8,24.5,16.8,40.3c0,65.3,0,130.6-0.1,196c0,4.4,1,5,5,3.4c13.6-5.6,21.4-18,21.4-34.6
		c0-87.3,0-174.6,0-261.9c0-11.7,0.1-23.3,0-35c-0.1-21.6-14.6-35.9-36.2-35.9c-78,0-156,0-233.9,0c-11.2,0-20.4,3.8-27.7,12.3
		c-0.9,1.1-1.6,2.4-3.5,2.4c-11.9-0.1-23.8,0-36.3,0c0.3,0,2.8-7.4,3.2-8.1c1.2-2.6,2.5-5.1,3.9-7.6c2.8-4.7,6.1-9.1,9.9-13
		c3.8-3.9,8.2-7.3,12.8-10.2c2.4-1.5,4.9-2.8,7.5-4c2.8-1.3,5.7-2.5,8.6-3.6c2.8-1.1,5.7-1.6,8.6-2c5.3-0.7,10.6-0.6,15.9-0.6
		c15.5,0.1,31,0,46.5,0c0.3,0,0.6,0,0.9,0c21,0,42.1,0,63.1,0s42.1,0,63.1,0c20.5,0,41.2-1.9,61.7-0.2c9.1,0.7,18,3,26.3,6.8
		c7.5,3.4,14.5,7.9,20.3,13.8c4.6,4.7,8.5,10,11.6,15.8C417.8,44.5,419.9,52.1,421,60z M34.6,293c0,49.5,0,99,0,148.4
		c0,22.6,14.3,36.9,36.7,36.9c72.6,0,145.3-0.4,217.9,0.2c20.4,0.2,37.9-14.2,37.8-37.7c-0.3-78.3-0.1-156.6-0.1-234.9
		c0-1.5,0-3,0-4.5c-0.2-3.4-1.4-5.3-5.5-5.2c-11.8,0.3-23.7,0.2-35.5,0.1c-29-0.3-50.3-21.9-50.3-50.8c0-10.5-0.2-21,0.1-31.5
		c0.1-4.5-1-5.8-5.7-5.8c-53.3,0.2-106.6,0.1-159.9,0.1c-3.2,0-6.3,0.2-9.4,1c-16.1,4.2-26,17.5-26,35.2
		C34.5,194.1,34.6,243.5,34.6,293z"/>
	<path class="st0" d="M180.5,374.8c29.7,0,59.3,0,89,0c11.4,0,19.5,6.1,21.8,16c2.4,10.7-4.3,21.5-15.1,23.9
		c-2.6,0.6-5.3,0.8-7.9,0.8c-58.5,0-117,0-175.5,0c-14.2,0-24-9.2-23.3-21.5C70.2,383,79,375,91.1,374.9c19.5-0.1,39,0,58.5,0
		C159.9,374.8,170.2,374.8,180.5,374.8z"/>
	<path class="st0" d="M180.8,287.7c29.8,0,59.6,0,89.5,0c12.4,0,21.6,8.5,21.6,20c0.1,11.5-9.1,20.3-21.3,20.3
		c-60,0-119.9,0-179.9,0c-12,0-21-8.7-21.1-20c-0.1-11.6,9-20.2,21.3-20.3C120.8,287.7,150.8,287.7,180.8,287.7z"/>
	<path class="st0" d="M142.3,240.7c-16.8,0-33.7,0-50.5,0c-13.1,0-22.4-8.5-22.3-20.5c0.1-11.8,9.2-20.2,22-20.2
		c34.2,0,68.3-0.1,102.5,0c10.7,0,19.4,7.3,20.9,17.2c1.4,9.5-4.1,18.9-13.3,22.1c-2.8,1-5.8,1.4-8.8,1.4
		C176,240.7,159.1,240.7,142.3,240.7z"/>
</g>
</svg>
