<?xml version="1.0" encoding="utf-8"?>
<!-- Generator: Adobe Illustrator 22.1.0, SVG Export Plug-In . SVG Version: 6.00 Build 0)  -->
<svg version="1.1" id="Layer_1" xmlns="http://www.w3.org/2000/svg" xmlns:xlink="http://www.w3.org/1999/xlink" x="0px" y="0px"
	 viewBox="0 0 73.9 73.9" style="enable-background:new 0 0 73.9 73.9;" xml:space="preserve">
<style type="text/css">
	.st0{fill:none;stroke:#FFFFFF;stroke-width:3;stroke-miterlimit:10;}
	.st1{fill:#FFFFFF;}
</style>
<circle class="st0" cx="37" cy="37" r="35.5"/>
<path d="M37,37"/>
<path class="st1" d="M36.9,34.4c-1.8-2.6-6.1-4-8.2-0.8c-2,3.3,1.3,6.8,3.4,9c0.8,0.8,2.7,1.9,3.1,2.9c0.3,0.8-0.2,2.4-0.3,3.2
	c-0.3,2.6-1.4,7.3-5,6.9c-2.8-0.3-4-4.8-4.8-7.1c-0.9-2.4-1.6-4.8-2.6-7.1c-1-2-2.4-4-3.1-6.1c-1.4-3.9-1.2-8.7,0.9-12.5
	c1.7-3.1,5.4-4.7,8.8-4.7c3.6,0.1,6.4,2,9.9,1.2c2.7-0.5,5.3-1.6,8.1-1.1c3.8,0.8,6.6,3.7,7.6,7.3c1.1,3.9,0.4,8.5-1.4,12.1
	c-1.1,2-2.2,3.9-3,6c-0.9,2.3-1.6,4.5-2.6,6.8c-0.8,1.7-1.8,4.8-4,5.2c-3.9,0.4-4.3-4.3-4.7-7c-0.2-1-0.8-2.6-0.4-3.4
	c0.4-1.2,2.5-2.5,3.3-3.3c2-2,4.6-4.7,3.2-8c-1-2-3.9-2.9-5.9-1.8C38.4,32.7,37.7,33.7,36.9,34.4z"/>
</svg>
