<?xml version="1.0" encoding="utf-8"?>
<!-- Generator: Adobe Illustrator 22.1.0, SVG Export Plug-In . SVG Version: 6.00 Build 0)  -->
<svg version="1.1" id="Layer_1" xmlns="http://www.w3.org/2000/svg" xmlns:xlink="http://www.w3.org/1999/xlink" x="0px" y="0px"
	 viewBox="0 0 73.9 73.9" style="enable-background:new 0 0 73.9 73.9;" xml:space="preserve">
<style type="text/css">
	.st0{fill:none;stroke:#FFFFFF;stroke-width:3;stroke-miterlimit:10;}
	.st1{fill:#FFFFFF;}
</style>
<circle class="st0" cx="37" cy="37" r="35.5"/>
<path d="M37,37"/>
<g>
	<path class="st1" d="M52.7,40.4c-0.1,0.6-0.4,0.9-1.1,0.9c-11.5,0-23.1,0-34.7,0c-0.2,0-0.6,0-0.8,0c-0.2-0.8-0.1-0.9,0.6-0.9
		c5.8,0,11.4,0,17.2,0c0.2,0,0.3,0,0.6,0c0.1,0,0.6,0,0.8,0c5.7,0,11.4,0,17.1,0C52.4,40.4,52.5,40.4,52.7,40.4z"/>
	<path class="st1" d="M19.3,32c0-0.3,0-0.6,0-0.9c0.2,0,0.4,0,0.7,0c8.4,0,16.9,0,25.3,0c0.7,0,0.9,0.3,1.1,0.9
		C37.2,32,28.3,32,19.3,32z"/>
	<path class="st1" d="M19.2,30.1c0-0.2,0-0.6,0-0.9c0.2,0,0.4,0,0.7,0c8.1,0,16.2,0,24.3,0c0.7,0,0.9,0.2,1,0.9
		C36.5,30.1,28,30.1,19.2,30.1z"/>
	<path class="st1" d="M44.2,28.2c-8.3,0-16.5,0-24.9,0c0-0.2,0-0.6,0-0.9c0.2,0,0.3,0,0.6,0c7.8,0,15.5,0,23.4,0
		C44,27.3,44,27.4,44.2,28.2z"/>
	<path class="st1" d="M19.3,26.3c0-0.3,0-0.6,0-0.8c0.3,0,0.7,0,1,0c7.3,0,14.7,0,22,0c0.7,0,0.8,0.3,1,0.8
		C35.2,26.3,27.3,26.3,19.3,26.3z"/>
	<path class="st1" d="M40.1,46c-0.3,0.4-0.6,0.9-1.3,0.9c-6.8-0.1-13.7-0.1-20.4-0.1c-0.2,0-0.4,0-0.7,0c0-0.3,0-0.6,0-0.8
		C25.1,46,32.5,46,40.1,46z"/>
	<path class="st1" d="M19.3,45c0-0.3,0-0.6,0-0.8c7.3,0,14.8,0,22.1,0c-0.2,0.4-0.3,0.8-0.9,0.8c-6.9,0-13.8,0-20.6,0
		C19.7,45,19.5,45,19.3,45z"/>
	<path class="st1" d="M35.4,36.8c6.4,0,12.8,0,19.2,0c-0.1,0.8-0.2,0.9-1,0.9c-5.8,0-11.7,0-17.4,0C35.4,37.7,35.4,37.7,35.4,36.8z"
		/>
	<path class="st1" d="M34.6,34.9c7,0,14,0,21,0c-0.2,0.8-0.2,0.8-1,0.8c-6.3,0-12.7,0-18.9,0C35.2,35.5,35,35.3,34.6,34.9z"/>
	<path class="st1" d="M38.2,47.9c-0.6,0.6-1.1,0.8-1.9,0.8c-5.3,0-10.7,0-15.9,0c-0.3,0-0.7,0-1,0c0-0.3,0-0.6,0-0.8
		C25.5,47.9,31.9,47.9,38.2,47.9z"/>
	<path class="st1" d="M35.2,39.4c0.1-0.3,0.1-0.6,0.2-0.8c6.1,0,12.1,0,18.2,0c-0.1,0.8-0.2,0.8-0.9,0.8c-5.7,0-11.3,0-16.9,0
		C35.6,39.4,35.4,39.4,35.2,39.4z"/>
	<path class="st1" d="M13.4,35.7c0-0.3,0-0.6,0-0.8c5.4,0,10.9,0,16.3,0c0,0.2,0,0.4,0,0.8C24.3,35.7,19,35.7,13.4,35.7z"/>
	<path class="st1" d="M19.3,37.5c-0.1-0.9-0.1-0.9,0.7-0.9c4.3,0,8.7,0,12.9,0c0.2,0,0.4,0,0.7,0c0,0.3,0,0.6,0,0.9
		C28.8,37.5,24,37.5,19.3,37.5z"/>
	<path class="st1" d="M30.9,42.3c0,0.2,0,0.4,0,0.8c-5.2,0-10.4,0-15.8,0c0-0.1,0-0.2,0-0.3s0-0.2,0-0.4
		C20.3,42.3,25.5,42.3,30.9,42.3z"/>
	<path class="st1" d="M32.9,33c3,0,6,0,9,0c1.4,0,2.8,0,4.2,0c0.9,0,0.9,0,1.1,0.9c-0.1,0-0.2,0-0.4,0c-4.2,0-8.4,0-12.7,0
		c-0.4-0.2-1-0.4-1.3-0.7C32.9,33.1,32.9,33,32.9,33z"/>
	<path class="st1" d="M19.3,50.6c0-0.3,0-0.6,0-0.8c5.1,0,10.2,0,15.3,0V50c-1.1,0.2-2.2,0.6-3.4,0.6c-3.9,0.1-7.8,0-11.7,0
		C19.5,50.6,19.4,50.6,19.3,50.6z"/>
	<path class="st1" d="M17.5,39.4c0-0.3,0-0.6,0-0.8c4.7,0,9.3,0,14.1,0c0,0.2,0,0.6,0,0.8C26.9,39.4,22.2,39.4,17.5,39.4z"/>
	<path class="st1" d="M31.2,33c0,0.3,0,0.6,0,0.9c-4,0-7.9,0-11.9,0c0-0.3,0-0.6,0-0.9C23.2,33,27.2,33,31.2,33z"/>
	<path class="st1" d="M57.5,31.1c-0.2,0.9-0.3,1-1.1,1c-2.4,0-5,0-7.4,0c-0.2,0-0.3,0-0.6,0c0.2-0.8,0.3-1,1.1-1c2.4,0,5,0,7.4,0
		C57.2,31.1,57.4,31.1,57.5,31.1z"/>
	<path class="st1" d="M56.6,33c-0.3,0.9-0.3,0.9-1.1,0.9c-2.6,0-5.1,0-7.7,0c-0.1,0-0.2,0-0.3,0c0.1-0.8,0.2-0.9,1-0.9
		c2.6,0,5,0,7.5,0C56.2,33,56.4,33,56.6,33z"/>
	<path class="st1" d="M31.4,43.2c1.8-0.3,2.3-0.6,3.2-0.9c2.2,0.1,4.4,0,6.7,0c0.2,0,0.4,0,0.7,0c-0.1,0.8-0.2,0.9-1,0.9
		c-3,0-6,0-9,0C31.9,43.2,31.8,43.2,31.4,43.2z"/>
	<path class="st1" d="M43.1,42.3c2.9,0,5.8,0,8.5,0c-0.1,0.8-0.2,0.9-1,0.9c-2.1,0-4.3,0-6.4,0C43.4,43.2,43.4,43.2,43.1,42.3z"/>
	<path class="st1" d="M58.5,29.2c-0.1,0.7-0.3,0.9-1,0.9c-2.7,0-5.3,0-8,0c0.1-0.7,0.3-0.9,1-0.9c2.4,0,5,0,7.4,0
		C58.1,29.2,58.3,29.2,58.5,29.2z"/>
	<path class="st1" d="M59.5,27.3c-0.3,0.9-0.3,0.9-1.1,0.9c-2.4,0-5,0-7.4,0c-0.1,0-0.2,0-0.4,0c0.1-0.8,0.2-0.9,0.9-0.9
		c2.6,0,5,0,7.5,0C59.2,27.3,59.3,27.3,59.5,27.3z"/>
	<path class="st1" d="M60.5,25.4c-0.1,0.8-0.6,0.9-1.1,0.9c-2.4,0-4.9,0-7.3,0c-0.2,0-0.3,0-0.6,0c0.1-0.6,0.3-0.9,1-0.9
		c2.4,0,4.9,0,7.3,0C60.1,25.4,60.3,25.4,60.5,25.4z"/>
	<path class="st1" d="M44.1,44.2c2.2,0,4.4,0,6.7,0c-0.1,0.8-0.2,0.9-0.9,0.9c-1.4,0-3,0-4.4,0C44.4,45.1,44.4,45.1,44.1,44.2z"/>
	<path class="st1" d="M49.7,46.1C49.4,47,49.4,47,48.5,47c-0.8,0-1.6,0-2.2,0c-0.9,0-0.9,0-1.2-0.9C46.6,46.1,48.2,46.1,49.7,46.1z"
		/>
	<path class="st1" d="M46.1,47.9c0.9,0,1.8,0,2.8,0c-0.2,0.3-0.1,0.9-0.7,0.9C46.2,48.8,46.5,49,46.1,47.9z"/>
	<path class="st1" d="M47.4,50.8c-0.2-0.3-0.3-0.7-0.4-1c0.3,0,0.6,0,1,0C47.7,50.1,47.6,50.4,47.4,50.8z"/>
</g>
</svg>
