<?xml version="1.0" encoding="utf-8"?>
<!-- Generator: Adobe Illustrator 23.0.3, SVG Export Plug-In . SVG Version: 6.00 Build 0)  -->
<!DOCTYPE svg PUBLIC "-//W3C//DTD SVG 1.1//EN" "http://www.w3.org/Graphics/SVG/1.1/DTD/svg11.dtd" [
	<!ENTITY ns_extend "http://ns.adobe.com/Extensibility/1.0/">
	<!ENTITY ns_ai "http://ns.adobe.com/AdobeIllustrator/10.0/">
	<!ENTITY ns_graphs "http://ns.adobe.com/Graphs/1.0/">
	<!ENTITY ns_vars "http://ns.adobe.com/Variables/1.0/">
	<!ENTITY ns_imrep "http://ns.adobe.com/ImageReplacement/1.0/">
	<!ENTITY ns_sfw "http://ns.adobe.com/SaveForWeb/1.0/">
	<!ENTITY ns_custom "http://ns.adobe.com/GenericCustomNamespace/1.0/">
	<!ENTITY ns_adobe_xpath "http://ns.adobe.com/XPath/1.0/">
]>
<svg version="1.1" id="Layer_1" xmlns:x="&ns_extend;" xmlns:i="&ns_ai;" xmlns:graph="&ns_graphs;"
	 xmlns="http://www.w3.org/2000/svg" xmlns:xlink="http://www.w3.org/1999/xlink" x="0px" y="0px" viewBox="0 0 1387.7 492.6"
	 style="enable-background:new 0 0 1387.7 492.6;" xml:space="preserve">
<style type="text/css">
	.st0{fill:#FFFFFF;}
	.st1{fill:url(#SVGID_1_);}
	.st2{fill:url(#SVGID_2_);}
	.st3{fill:url(#SVGID_3_);}
	.st4{fill:url(#SVGID_4_);}
	.st5{fill:url(#SVGID_5_);}
	.st6{fill:url(#SVGID_6_);}
	.st7{fill:url(#XMLID_2_);}
	.st8{fill:url(#XMLID_5_);}
</style>
<metadata>
	<sfw  xmlns="&ns_sfw;">
		<slices></slices>
		<sliceSourceBounds  bottomLeftOrigin="true" height="489.5" width="1383.3" x="2.8" y="0.8"></sliceSourceBounds>
	</sfw>
</metadata>
<g>
	<g>
		<g>
			<path class="st0" d="M648.8,103.6c-2.5-6.5-6.1-11.9-10.8-16.1c-4.7-4.7-10-8.3-16.5-10.8s-13.7-3.9-21.5-3.9h-38
				c-1.1,0-1.8,0.7-1.8,1.8v36.6c0,1.1,0.7,1.8,1.8,1.8h18.3c1.1,0,1.8-0.7,1.8-1.8V91.4c0-1.1,0.7-1.8,1.8-1.8h16.5
				c4.7,0,9.3,0.7,13,2.5c3.9,1.5,7.2,3.9,9.7,6.8s4.7,6.5,6.1,11.1c1.5,4.3,2.2,9.3,2.2,14.7s-0.7,10.4-2.2,14.7s-3.6,7.9-6.1,11.1
				c-2.5,2.9-5.7,5.4-9.7,6.8c-3.9,1.5-8.3,2.5-13,2.5h-16.5c-1.1,0-1.8-0.7-1.8-1.8v-19.8c0-1.1-0.7-1.8-1.8-1.8H562
				c-1.1,0-1.8,0.7-1.8,1.8V174c0,1.1,0.7,1.8,1.8,1.8h38c7.9,0,15.1-1.5,21.5-3.9c6.5-2.5,12.2-6.1,16.5-10.8
				c4.7-4.7,8.3-10,10.8-16.1c2.5-6.5,3.9-13.3,3.9-20.8C652.8,116.5,651.3,109.7,648.8,103.6z"/>
			<path class="st0" d="M691.6,89.2h41c1.1,0,1.8-0.7,1.8-1.8V74.2c0-1.1-0.7-1.8-1.8-1.8H670c-1.1,0-1.8,0.7-1.8,1.8V174
				c0,1.1,0.7,1.8,1.8,1.8h62.5c1.1,0,1.8-0.7,1.8-1.8v-13.3c0-1.1-0.7-1.8-1.8-1.8h-41c-1.1,0-1.8-0.7-1.8-1.8v-23.7
				c0-1.1,0.7-1.8,1.8-1.8h31.2c1.1,0,1.8-0.7,1.8-1.8v-13c0-1.1-0.7-1.8-1.8-1.8h-31.2c-1.1,0-1.8-0.7-1.8-1.8V90.1
				C690.1,89.9,690.8,89.2,691.6,89.2z"/>
			<path class="st0" d="M836.7,72.7h-15.4c-1.1,0-1.8,0.7-1.8,1.8V132c0,1.5,0,3.2,0,4.7c0,1.8,0.4,3.6,0.4,5.4l-51.7-65.7
				c-0.7-0.7-1.1-1.5-1.5-1.8c-0.4-0.4-1.1-0.7-1.5-1.1s-1.1-0.4-1.8-0.4s-1.5,0-2.2,0h-9.7c-1.1,0-1.8,0.7-1.8,1.8V174
				c0,1.1,0.7,1.8,1.8,1.8H767c1.1,0,1.8-0.7,1.8-1.8v-57.9c0-1.5,0-2.9,0-4.3c0-1.8,0-3.2-0.4-5l51.4,65.3c1.1,1.5,2.2,2.2,3.2,2.9
				c1.1,0.7,2.5,0.7,4.3,0.7h9.3c1.1,0,1.8-0.7,1.8-1.8V74.1C838.5,73.4,837.8,72.7,836.7,72.7z"/>
			<path class="st0" d="M931.5,72.7h-78.3c-1.1,0-1.8,0.7-1.8,1.8v14c0,1.1,0.7,1.8,1.8,1.8h26.9c1.1,0,1.8,0.7,1.8,1.8v82.6
				c0,1.1,0.7,1.8,1.8,1.8h18c1.1,0,1.8-0.7,1.8-1.8V91.4c0-1.1,0.7-1.8,1.8-1.8h26.9c1.1,0,1.8-0.7,1.8-1.8v-14
				C933.3,73.4,932.6,72.7,931.5,72.7z"/>
			<path class="st0" d="M1025.2,173.6l-38.8-99.8c-0.4-0.7-0.7-1.1-1.5-1.1h-19.4c-0.7,0-1.5,0.4-1.5,1.1l-39,99.8
				c-0.4,1.1,0.4,2.2,1.5,2.2h14.3c1.8,0,3.2-0.4,4.3-1.5s2.2-2.2,2.5-3.2l6.5-18.7c0.4-0.7,0.7-1.1,1.5-1.1h38.8
				c0.7,0,1.5,0.4,1.5,1.1l6.5,18.7c0.7,1.5,1.5,2.5,2.5,3.2c1.1,0.7,2.5,1.5,4.7,1.5h14C1024.9,175.8,1025.9,174.7,1025.2,173.6z
				 M987.9,136.6h-25.8c-1.1,0-1.8-1.1-1.5-2.2l10.4-29.1c0.7-1.8,1.5-3.6,2.2-5.7c0-0.7,0.4-1.1,0.4-1.8c0.4-1.5,2.5-1.5,3.2,0
				c0,0.4,0.4,1.1,0.4,1.5c0.7,2.2,1.5,4.3,2.2,5.7l10.4,29.5C990,135.5,989.3,136.6,987.9,136.6z"/>
			<path class="st0" d="M1113.2,159.6l-7.6-7.9c-0.7-0.7-1.8-1.5-2.9-1.5c-0.7,0-1.5,0-1.8,0.4c-0.7,0.4-1.1,0.7-1.8,1.1
				c-1.5,1.5-2.9,2.5-4.7,3.2c-1.5,1.1-3.2,1.8-4.7,2.2c-1.8,0.7-3.6,1.1-5.4,1.1c-2.2,0.4-4.3,0.4-6.5,0.4c-3.9,0-7.9-0.7-11.5-2.2
				s-6.8-3.9-9.3-6.8c-2.5-2.9-4.7-6.8-6.5-11.1c-1.5-4.3-2.2-9.3-2.2-14.7s0.7-10.4,2.2-14.7c1.5-4.3,3.6-7.9,6.1-10.8
				s5.7-5.4,9.3-6.8c3.6-1.5,7.6-2.5,11.9-2.5c3.9,0,7.2,0.4,9.7,1.1s4.7,1.8,6.5,2.9s3.2,1.8,4.3,2.5c1.1,0.7,2.2,1.1,3.6,1.1
				c1.1,0,2.2-0.4,2.5-0.7c0.7-0.4,1.1-1.1,1.8-1.8l6.5-8.6c0.4-0.7,0.4-1.8-0.4-2.2c-1.8-1.8-3.6-3.2-5.7-4.7
				c-2.5-1.8-5-3.2-8.3-4.3c-2.9-1.1-6.1-2.2-9.3-2.9c-3.2-0.7-6.8-1.1-10.8-1.1c-5,0-9.7,0.7-14.3,1.8c-4.3,1.1-8.6,2.9-12.6,5
				c-3.9,2.2-7.2,5-10,7.9c-2.9,3.2-5.7,6.5-7.6,10.4c-2.2,3.9-3.6,8.3-5,13c-1.1,4.7-1.8,9.3-1.8,14.7c0,7.6,1.1,14.7,3.6,21.2
				s5.7,11.9,10,16.5c4.3,4.7,9.7,8.3,15.8,11.1c6.1,2.5,13,3.9,20.8,3.9c8.6,0,15.8-1.5,21.9-3.9c5.7-2.5,10.8-6.1,14.7-10.8
				C1114,161,1114,160.3,1113.2,159.6z"/>
			<path class="st0" d="M1219.9,103.2c-2.5-6.5-6.1-11.9-10.8-16.5c-4.7-4.7-10-8.3-16.5-11.1c-6.5-2.5-13.7-3.9-21.5-3.9
				c-7.9,0-15.1,1.5-21.5,3.9c-6.5,2.5-12.2,6.5-16.9,11.1c-4.7,4.7-8.3,10.4-10.8,16.5c-2.5,6.5-3.9,13.3-3.9,20.8
				c0,7.6,1.5,14.4,3.9,20.8c2.5,6.5,6.1,11.9,10.8,16.9c4.7,4.7,10,8.3,16.9,11.1c6.5,2.5,13.7,3.9,21.5,3.9
				c7.9,0,15.1-1.5,21.5-3.9c6.5-2.5,12.2-6.5,16.5-11.1c4.7-4.7,8.3-10.4,10.8-16.9s3.9-13.3,3.9-20.8S1222.4,109.7,1219.9,103.2z
				 M1199.8,138.7c-1.5,4.3-3.6,7.9-6.1,10.8c-2.5,2.9-6.1,5.4-9.7,6.8c-3.9,1.5-8.3,2.5-13,2.5s-9.3-0.7-13-2.5
				c-3.9-1.5-7.2-3.9-9.7-6.8c-2.5-2.9-4.7-6.5-6.1-10.8s-2.2-9.3-2.2-14.7s0.7-10.4,2.2-14.7c1.5-4.3,3.6-7.9,6.1-10.8
				s6.1-5.4,9.7-6.8c3.9-1.5,8.3-2.5,13-2.5s8.9,0.7,13,2.5c3.9,1.5,7.2,3.9,9.7,6.8s4.7,6.8,6.1,10.8c1.5,4.3,2.2,8.9,2.2,14.7
				C1201.9,129.4,1201.2,134.4,1199.8,138.7z"/>
			<path class="st0" d="M1259,72.7h-18.3c-1.1,0-1.8,0.7-1.8,1.8V174c0,1.1,0.7,1.8,1.8,1.8h18.3c1.1,0,1.8-0.7,1.8-1.8V74.1
				C1260.9,73.4,1260.1,72.7,1259,72.7z"/>
			<path class="st0" d="M1369.3,72.7h-15.4c-1.1,0-1.8,0.7-1.8,1.8V132c0,1.5,0,3.2,0,4.7c0,1.8,0.4,3.6,0.4,5.4l-51.7-65.7
				c-0.7-0.7-1.1-1.5-1.5-1.8c-0.4-0.4-1.1-0.7-1.5-1.1s-1.1-0.4-1.8-0.4c-0.7,0-1.5,0-2.2,0h-9.7c-1.1,0-1.8,0.7-1.8,1.8V174
				c0,1.1,0.7,1.8,1.8,1.8h15.4c1.1,0,1.8-0.7,1.8-1.8v-57.9c0-1.5,0-2.9,0-4.3c0-1.8,0-3.2-0.4-5l51.4,65.3
				c1.1,1.5,2.2,2.2,3.2,2.9c1.1,0.7,2.5,0.7,4.3,0.7h9.3c1.1,0,1.8-0.7,1.8-1.8V74.1C1370.7,73.4,1370,72.7,1369.3,72.7z"/>
		</g>
	</g>
</g>
<g>
	<path class="st0" d="M858.2,242.2L794,448.8h-34.7l-45.2-141.2c-1.2-3.4-2.4-7.6-3.4-12.6c-0.6,2.4-1.1,4.6-1.7,6.7
		c-0.6,2.1-1.2,4.1-1.9,5.9l-45.6,141.2h-34.9l-64-206.7h32.2c3.3,0,6.1,0.8,8.4,2.4c2.2,1.6,3.7,3.7,4.5,6.4l35.2,123.6
		c0.8,3.1,1.5,6.4,2.2,9.9c0.7,3.6,1.5,7.3,2.2,11.2c0.8-4,1.6-7.8,2.5-11.3s1.9-6.8,2.9-9.9l40.6-123.6c0.8-2.2,2.3-4.2,4.5-6
		s5-2.7,8.2-2.7h11.3c3.3,0,6.1,0.8,8.1,2.4c2.1,1.6,3.7,3.7,4.7,6.3l40.4,123.6c2,5.9,3.8,12.7,5.4,20.4c1.2-7.5,2.6-14.3,4.1-20.4
		l35.2-123.6c0.6-2.4,2-4.4,4.4-6.1c2.3-1.7,5.1-2.6,8.4-2.6h30.2V242.2z"/>
	<path class="st0" d="M857,322.6c16.9-15.4,37.2-23.2,60.9-23.2c8.6,0,16.2,1.4,23,4.2c6.8,2.8,12.5,6.7,17.1,11.7
		c4.7,5,8.2,11,10.6,17.9c2.4,7,3.6,14.6,3.6,22.9v92.6h-16c-3.3,0-5.9-0.5-7.7-1.5s-3.2-3-4.3-6.1l-3.1-10.6
		c-3.7,3.3-7.3,6.3-10.9,8.8c-3.5,2.5-7.2,4.6-11,6.4c-3.8,1.7-7.9,3-12.2,3.9s-9.1,1.4-14.4,1.4c-6.2,0-11.9-0.8-17.2-2.5
		c-5.2-1.7-9.8-4.2-13.6-7.5s-6.8-7.5-8.9-12.4c-2.1-5-3.1-10.7-3.1-17.3c0-3.7,0.6-7.4,1.9-11.1c1.2-3.7,3.3-7.2,6.1-10.5
		s6.5-6.5,10.9-9.4c4.5-3,10-5.5,16.5-7.7s14.1-4,22.8-5.4s18.6-2.2,29.7-2.5v-8.6c0-9.8-2.1-17.1-6.3-21.8
		c-4.2-4.7-10.2-7.1-18.2-7.1c-5.7,0-10.5,0.7-14.2,2c-3.8,1.3-7.1,2.8-9.9,4.5c-2.9,1.7-5.5,3.2-7.8,4.5s-4.9,2-7.8,2
		c-2.5,0-4.6-0.6-6.3-1.9s-3.1-2.8-4.1-4.5L857,322.6z M937.9,386.2c-10.2,0.5-18.8,1.4-25.7,2.6c-7,1.3-12.5,2.9-16.7,4.9
		s-7.2,4.3-9,7s-2.7,5.6-2.7,8.7c0,6.2,1.8,10.6,5.5,13.3c3.7,2.7,8.5,4,14.4,4c7.2,0,13.5-1.3,18.8-3.9s10.5-6.6,15.5-11.9
		L937.9,386.2L937.9,386.2z"/>
	<path class="st0" d="M1041.2,236.4v212.4h-35.3V236.4H1041.2z"/>
	<path class="st0" d="M1112.3,236.4v212.4H1077V236.4H1112.3z"/>
	<path class="st0" d="M1174.7,379.9c0.6,7.5,1.9,14,4,19.5s4.9,10,8.3,13.6s7.5,6.2,12.2,8s9.9,2.6,15.7,2.6s10.6-0.7,14.8-2
		c4.1-1.3,7.8-2.8,10.9-4.4s5.8-3.1,8.1-4.4c2.3-1.3,4.6-2,6.8-2c3,0,5.1,1.1,6.6,3.3l10.1,12.9c-3.9,4.6-8.3,8.4-13.1,11.5
		c-4.9,3.1-9.9,5.6-15.2,7.4s-10.7,3.2-16.1,3.9c-5.5,0.8-10.8,1.1-15.9,1.1c-10.2,0-19.7-1.7-28.4-5.1c-8.8-3.4-16.4-8.4-22.9-15
		s-11.6-14.8-15.3-24.6c-3.7-9.8-5.6-21.1-5.6-33.9c0-10,1.6-19.4,4.9-28.2c3.2-8.8,7.9-16.5,13.9-23s13.4-11.7,22.2-15.5
		c8.7-3.8,18.6-5.7,29.5-5.7c9.2,0,17.8,1.5,25.6,4.4c7.8,3,14.5,7.3,20.2,12.9c5.6,5.7,10,12.6,13.2,20.9
		c3.2,8.2,4.8,17.7,4.8,28.2c0,5.3-0.6,8.9-1.7,10.8s-3.3,2.8-6.6,2.8L1174.7,379.9L1174.7,379.9z M1242,358.6
		c0-4.6-0.6-8.9-1.9-12.9s-3.2-7.6-5.8-10.6c-2.6-3-5.8-5.5-9.8-7.2c-4-1.8-8.6-2.6-13.8-2.6c-10.2,0-18.2,2.9-24.1,8.7
		c-5.9,5.8-9.6,14.1-11.2,24.7h66.6V358.6z"/>
	<path class="st0" d="M1347.7,451.1c-12.8,0-22.6-3.6-29.4-10.8c-6.8-7.2-10.2-17.1-10.2-29.8v-81.9h-15c-1.9,0-3.5-0.6-4.9-1.9
		c-1.3-1.2-2-3.1-2-5.6v-14l23.6-3.9l7.4-40c0.5-1.9,1.4-3.4,2.7-4.4c1.3-1,3-1.6,5.1-1.6h18.3v46.2h39.2v25.2h-39.2v79.5
		c0,4.6,1.1,8.1,3.4,10.7c2.2,2.6,5.3,3.9,9.2,3.9c2.2,0,4-0.3,5.5-0.8s2.8-1.1,3.9-1.6c1.1-0.6,2.1-1.1,2.9-1.6
		c0.9-0.5,1.7-0.8,2.6-0.8c1,0,1.9,0.3,2.6,0.8s1.4,1.3,2.1,2.4l10.6,17.2c-5.1,4.3-11.1,7.5-17.7,9.7
		C1361.7,450,1354.8,451.1,1347.7,451.1z"/>
</g>
<path class="st0" d="M492.3,247c0,68.2-27.9,129.9-72.9,174.3c-0.8,0.8-1.6,1.5-2.4,2.3c-0.6,0.6-1.2,1.2-1.9,1.8
	c-0.4,0.4-0.9,0.8-1.3,1.2c-43.6,40.5-102.1,65.2-166.3,65.2C112.3,491.8,2.8,382.2,2.8,247S112.3,2.3,247.5,2.3
	c64.6,0,123.4,25,167.1,66c0.7,0.6,1.4,1.3,2.1,1.9c1.5,1.4,3,2.9,4.4,4.3c0.8,0.8,1.6,1.7,2.5,2.5C466.1,121,492.3,181,492.3,247z"
	/>
<g>
	
		<linearGradient id="SVGID_1_" gradientUnits="userSpaceOnUse" x1="53.7658" y1="2075.7012" x2="110.0094" y2="2075.7012" gradientTransform="matrix(1 0 0 1 0 -1868)">
		<stop  offset="0" style="stop-color:#00A99D"/>
		<stop  offset="1" style="stop-color:#0071BC"/>
	</linearGradient>
	<path class="st1" d="M73.3,141l36.5-12.5c-10.4,4.2-17.7,14.6-17.7,27.1v131.2L55.6,178.5C50.4,162.9,58.7,146.3,73.3,141z"/>
	
		<linearGradient id="SVGID_2_" gradientUnits="userSpaceOnUse" x1="114.2577" y1="1960.3601" x2="371.5107" y2="1960.3601" gradientTransform="matrix(1 0 0 1 0 -1868)">
		<stop  offset="0" style="stop-color:#00A99D"/>
		<stop  offset="1" style="stop-color:#0071BC"/>
	</linearGradient>
	<path class="st2" d="M355.6,77.5l16.7,49h-250c-2.1,0-5.2,0-7.3,1l204.1-68.7C333.7,53.6,350.4,61.9,355.6,77.5z"/>
	
		<linearGradient id="SVGID_3_" gradientUnits="userSpaceOnUse" x1="74.998" y1="2130.9014" x2="423.4071" y2="2130.9014" gradientTransform="matrix(1 0 0 1 0 -1868)">
		<stop  offset="0" style="stop-color:#32FFC2"/>
		<stop  offset="1" style="stop-color:#00A9EB"/>
	</linearGradient>
	<circle class="st3" cx="249.3" cy="262.9" r="173.9"/>
	
		<linearGradient id="SVGID_4_" gradientUnits="userSpaceOnUse" x1="92.0694" y1="2136.1089" x2="426.8816" y2="2136.1089" gradientTransform="matrix(1 0 0 1 0 -1868)">
		<stop  offset="0" style="stop-color:#00C4E6"/>
		<stop  offset="1" style="stop-color:#1E8BAC"/>
	</linearGradient>
	<path class="st4" d="M397.2,408.7h-276c-16.7,0-29.2-13.5-29.2-29.2V156.7c0-16.7,13.5-29.2,29.2-29.2h276
		c16.7,0,29.2,13.5,29.2,29.2v222.9C427.4,395.2,413.9,408.7,397.2,408.7z"/>
	
		<linearGradient id="SVGID_5_" gradientUnits="userSpaceOnUse" x1="109.9698" y1="1996.0256" x2="114.0317" y2="1996.0256" gradientTransform="matrix(1 0 0 1 0 -1868)">
		<stop  offset="0" style="stop-color:#00C4E6"/>
		<stop  offset="1" style="stop-color:#1E8BAC"/>
	</linearGradient>
	<path class="st5" d="M113.9,127.5l-4.2,1C110.8,128.5,112.9,128.5,113.9,127.5z"/>
	
		<linearGradient id="SVGID_6_" gradientUnits="userSpaceOnUse" x1="307.662" y1="2135.0674" x2="440.7379" y2="2135.0674" gradientTransform="matrix(1 0 0 1 0 -1868)">
		<stop  offset="0" style="stop-color:#0086AE"/>
		<stop  offset="1" style="stop-color:#0071BC"/>
	</linearGradient>
	<path class="st6" d="M345.2,217.1h83.3c7.3,0,12.5,6.2,12.5,12.5v75c0,7.3-6.2,12.5-12.5,12.5h-83.3c-20.8,0-37.5-16.7-37.5-37.5
		v-26C307.7,233.7,324.3,217.1,345.2,217.1z"/>
	<circle class="st0" cx="349.3" cy="268.1" r="20.8"/>
	<g>
		
			<linearGradient id="XMLID_2_" gradientUnits="userSpaceOnUse" x1="125.8154" y1="2134.5466" x2="284.3863" y2="2134.5466" gradientTransform="matrix(1 0 0 1 0 -1868)">
			<stop  offset="0" style="stop-color:#32FFC2"/>
			<stop  offset="1" style="stop-color:#00A9EB"/>
		</linearGradient>
		<path id="XMLID_4_" class="st7" d="M284.7,267.1c0,43.7-36.5,79.2-80.2,79.2c-21.9,0-40.6-9.4-55.2-22.9
			c-14.6-14.6-24-34.4-24-57.3c0-43.7,36.5-79.2,80.2-79.2C249.3,186.9,284.7,223.3,284.7,267.1z"/>
		
			<linearGradient id="XMLID_5_" gradientUnits="userSpaceOnUse" x1="125.8154" y1="2134.5466" x2="284.3863" y2="2134.5466" gradientTransform="matrix(1 0 0 1 0 -1868)">
			<stop  offset="0" style="stop-color:#32FFC2"/>
			<stop  offset="1" style="stop-color:#00A9EB"/>
		</linearGradient>
		<path id="XMLID_3_" class="st8" d="M284.7,267.1c0,43.7-36.5,79.2-80.2,79.2c-21.9,0-40.6-9.4-55.2-22.9
			c-14.6-14.6-24-34.4-24-57.3c0-43.7,36.5-79.2,80.2-79.2C249.3,186.9,284.7,223.3,284.7,267.1z"/>
		<path class="st0" d="M167.1,294.1l-17.7,30.2c0,0,7.3,9.4,27.1,17.7l10.4-27.1l7.3-18.7l7.3-20.8l2.1-6.2v-1l0,0l0,0l0,0l0,0l0,0
			l0,0l0,0l1,2.1l1,4.2l5.2,14.6l4.2,12.5l6.2,19.8l5.2,13.5l2.1,7.3c0,0,15.6-4.2,30.2-17.7l-8.3-14.6l-6.2-10.4l-7.3-13.5
			l-5.2-11.5l-4.2-10.4l-3.1-10.4l-3.1-9.4l-3.1-11.5l-3.1-11.5l-3.1-11.5l-3.1-12.5l-3.1-6.2l-4.2,12.5l-5.2,16.7l-4.2,13.5
			l-5.2,14.6l-4.2,11.5l-5.2,11.5l-5.2,10.4L167.1,294.1z"/>
	</g>
</g>
</svg>
