<?xml version="1.0" encoding="utf-8"?>
<!-- Generator: Adobe Illustrator 24.0.2, SVG Export Plug-In . SVG Version: 6.00 Build 0)  -->
<!DOCTYPE svg PUBLIC "-//W3C//DTD SVG 1.1//EN" "http://www.w3.org/Graphics/SVG/1.1/DTD/svg11.dtd" [
	<!ENTITY ns_extend "http://ns.adobe.com/Extensibility/1.0/">
	<!ENTITY ns_ai "http://ns.adobe.com/AdobeIllustrator/10.0/">
	<!ENTITY ns_graphs "http://ns.adobe.com/Graphs/1.0/">
	<!ENTITY ns_vars "http://ns.adobe.com/Variables/1.0/">
	<!ENTITY ns_imrep "http://ns.adobe.com/ImageReplacement/1.0/">
	<!ENTITY ns_sfw "http://ns.adobe.com/SaveForWeb/1.0/">
	<!ENTITY ns_custom "http://ns.adobe.com/GenericCustomNamespace/1.0/">
	<!ENTITY ns_adobe_xpath "http://ns.adobe.com/XPath/1.0/">
]>
<svg version="1.1" id="Layer_1" xmlns:x="&ns_extend;" xmlns:i="&ns_ai;" xmlns:graph="&ns_graphs;"
	 xmlns="http://www.w3.org/2000/svg" xmlns:xlink="http://www.w3.org/1999/xlink" x="0px" y="0px" viewBox="0 0 24 24"
	 style="enable-background:new 0 0 24 24;" xml:space="preserve">
<style type="text/css">
	.st0{fill:#00B7D9;}
</style>
<metadata>
	<sfw  xmlns="&ns_sfw;">
		<slices></slices>
		<sliceSourceBounds  bottomLeftOrigin="true" height="24" width="24" x="0" y="0"></sliceSourceBounds>
	</sfw>
</metadata>
<path class="st0" d="M19,2c1.7,0,3,1.3,3,3v14c0,1.7-1.3,3-3,3H5c-1.7,0-3-1.3-3-3V5c0-1.7,1.3-3,3-3H19z M19,0H5C2.2,0,0,2.2,0,5
	v14c0,2.8,2.2,5,5,5h14c2.8,0,5-2.2,5-5V5C24,2.2,21.8,0,19,0z M11,8h-1V6h1v1h2v1h-1v1h-1V8z M13,20v-1h-1v1H13z M12,5V4h-2v1h1v1
	h1V5z M20,4v6h-1V9h-4V4H20z M19,8V5h-3v3H19z M5,10H4v1h2v-1H5z M5,13h1v1h1v-3H6v1H4v2h1V13z M10,14v2h1v-2H10z M14,4h-1v3h1V4z
	 M14,9V8h-1v1H14z M17,7h1V6h-1V7z M7,6H6v1h1V6z M9,4v5H4V4H9z M8,5H5v3h3V5z M17,10v1h-1v-1h-2v1h-1v-1h-3V9H9v1H8v1h1v2h1v-1h1v2
	h1v-2h3v1h-2v1h2v1h1v-3h1v1h1v2h1v-1h1v-1h-1v-1h-1v-1h1v-1H17z M6,18h1v-1H6V18z M4,15h5v5H4V15z M5,19h3v-3H5V19z M17,16v-1h-1v1
	H17z M17,17h-1v1h-1v-1h-1v-1h1v-1h-2v-1h-1v2h-1v1h-1v3h1v-1h1v-1h2v2h1v-1h1v1h2v-1h1v-1h-2V17z M8,14h1v-1H8V14z M18,16v1h1v1h1
	v-3h-1v1H18z M20,20v-1h-1v1H20z M20,12v-1h-1v1H20z"/>
</svg>
