<?xml version="1.0" encoding="utf-8"?>
<!-- Generator: Adobe Illustrator 23.0.3, SVG Export Plug-In . SVG Version: 6.00 Build 0)  -->
<!DOCTYPE svg PUBLIC "-//W3C//DTD SVG 1.1//EN" "http://www.w3.org/Graphics/SVG/1.1/DTD/svg11.dtd" [
	<!ENTITY ns_extend "http://ns.adobe.com/Extensibility/1.0/">
	<!ENTITY ns_ai "http://ns.adobe.com/AdobeIllustrator/10.0/">
	<!ENTITY ns_graphs "http://ns.adobe.com/Graphs/1.0/">
	<!ENTITY ns_vars "http://ns.adobe.com/Variables/1.0/">
	<!ENTITY ns_imrep "http://ns.adobe.com/ImageReplacement/1.0/">
	<!ENTITY ns_sfw "http://ns.adobe.com/SaveForWeb/1.0/">
	<!ENTITY ns_custom "http://ns.adobe.com/GenericCustomNamespace/1.0/">
	<!ENTITY ns_adobe_xpath "http://ns.adobe.com/XPath/1.0/">
]>
<svg version="1.1" id="Layer_1" xmlns:x="&ns_extend;" xmlns:i="&ns_ai;" xmlns:graph="&ns_graphs;"
	 xmlns="http://www.w3.org/2000/svg" xmlns:xlink="http://www.w3.org/1999/xlink" x="0px" y="0px" viewBox="0 0 439.2 438.9"
	 style="enable-background:new 0 0 439.2 438.9;" xml:space="preserve">
	 <style>path{fill: white;}</style>
<metadata>
	<sfw  xmlns="&ns_sfw;">
		<slices></slices>
		<sliceSourceBounds  bottomLeftOrigin="true" height="438.9" width="439.2" x="741.7" y="739.1"></sliceSourceBounds>
	</sfw>
</metadata>
<g>
	<path d="M0,262.6c0.7-0.8,1.6-2.2,3-3.2c11.8-8.7,23.6-17.5,35.5-25.9c3.2-2.2,4.4-4.5,3.9-8.2c-0.3-2-0.4-4.1-0.1-6
		c1.7-8.3-2-13.3-8.9-17.7c-10.5-6.7-20.2-14.7-30.4-21.9c-2.6-1.9-3.1-3.7-2.5-6.7c5.9-27.1,16.3-52.3,31.4-75.7
		c1.7-2.6,3.3-3.5,6.4-3c14.9,2.5,29.9,4.8,44.9,6.9c1.9,0.3,4.3-0.7,5.9-2c2.6-2,4.4-5.2,7.1-7c5.8-3.7,5.8-8.6,4.7-14.6
		c-2.4-13.4-4.5-26.9-6.3-40.4c-0.2-1.6,1.1-4.2,2.4-5.1c23.4-15.5,49-26,76.5-32c2.8-0.6,4.5-0.1,6.3,2.4
		c8.7,12.2,17.7,24.2,26.4,36.4c1.8,2.5,3.6,3.5,6.6,3.2c3.5-0.3,7.1-0.6,10.5,0c5.7,0.9,9-1.5,12.1-6.1c7.7-11.3,16.1-22.1,24-33.2
		c1.8-2.6,3.7-3.3,6.7-2.6c27.3,6,52.7,16.4,76.1,31.7c2.5,1.6,3.1,3.1,2.6,6.1c-2.6,15.1-4.9,30.2-7.1,45.4
		c-0.2,1.6,0.8,3.7,1.7,5.2c1.1,1.6,3.2,2.6,4.2,4.2c5.7,9,13.6,9.4,23.1,7.3c11.4-2.5,23-3.7,34.5-5.7c2.9-0.5,4.5,0.3,6.1,2.8
		c15.3,23.6,25.8,49.1,31.7,76.6c0.6,2.7-0.2,4.2-2.4,5.8c-12,8.7-23.9,17.6-36,26.1c-3,2.1-4.1,4.3-3.7,7.9c0.4,3,0.6,6.1,0.1,9
		c-1.2,6.2,1.6,9.6,6.4,13c11.1,7.6,21.8,15.9,32.8,23.7c2.5,1.8,3.4,3.4,2.7,6.6c-5.9,27.3-16.4,52.7-31.6,76.1
		c-1.5,2.4-2.9,3.3-6,2.8c-15.1-2.6-30.2-4.9-45.4-7.1c-1.7-0.2-3.8,1-5.6,1.9c-1.1,0.6-1.7,2.1-2.8,2.8c-10,6.3-10.8,15-8.2,25.7
		c2.6,11,3.8,22.3,5.3,33.5c0.2,1.6-0.8,4.2-2.2,5.1c-23.7,15.8-49.6,26.4-77.4,32.1c-1.5,0.3-4.2-0.9-5.2-2.3
		c-9-12-17.9-24.1-26.6-36.3c-1.8-2.6-3.7-4-7-3.5c-2.1,0.3-4.4,0.6-6.5,0.2c-8.6-1.8-13.6,1.9-18.2,9
		c-6.7,10.5-14.7,20.2-21.9,30.4c-1.7,2.4-3.2,3.1-6.2,2.5c-27.1-5.8-52.4-16.2-75.7-31.2c-3-1.9-3.8-3.8-3.2-7.3
		c2.5-14.9,4.8-29.9,7-44.9c0.2-1.6-0.7-3.7-1.8-5.1c-1.9-2.3-4.7-3.9-6.3-6.4c-4.2-6.4-9.6-7.1-16.7-5.6c-13,2.6-26.3,4.4-39.4,6.3
		c-1.4,0.2-3.7-0.6-4.4-1.7C16.9,319.1,6.2,293,0.3,265C0.2,264.6,0.2,264.1,0,262.6z M219.4,123.1c-52.2-0.3-95.9,42.8-96.2,94.8
		c-0.3,53.4,42.3,96.9,95.3,97.2c52.9,0.3,96.4-42.6,96.7-95.3C315.5,166.6,272.7,123.4,219.4,123.1z"/>
</g>
</svg>
