<?xml version="1.0" encoding="utf-8"?>
<!-- Generator: Adobe Illustrator 26.0.2, SVG Export Plug-In . SVG Version: 6.00 Build 0)  -->
<svg version="1.1" id="Layer_1" xmlns="http://www.w3.org/2000/svg" xmlns:xlink="http://www.w3.org/1999/xlink" x="0px" y="0px"
	 viewBox="0 0 606.6 606.8" style="enable-background:new 0 0 606.6 606.8;" xml:space="preserve">
<style type="text/css">
	.st0{fill:#1FC0DE;}
	.st1{fill:none;stroke:#1FC0DE;stroke-width:2.8346;stroke-linecap:round;stroke-miterlimit:10;}
</style>
<g>
	<g>
		<g>
			<path class="st0" d="M302.9,606.8c-51.4,0-102.3-13.2-148.3-39.1C83.9,527.9,33,463,11.2,385C-33.8,224,60.6,56.3,221.7,11.3
				C295.5-9.4,373.8-1.5,441.9,33.6c8.3,4.3,11.6,14.5,7.3,22.8c-4.3,8.3-14.5,11.6-22.8,7.3c-60.6-31.1-130.1-38.2-195.7-19.8
				c-143.1,40-227,189-187,332.1c19.4,69.3,64.6,126.9,127.3,162.3s135.5,44.1,204.7,24.7c143.1-40,227-189,187-332.1
				c-7.7-27.7-19.7-53.7-35.5-77.3c-5.2-7.8-3.1-18.3,4.7-23.5c7.8-5.2,18.3-3.1,23.5,4.7c17.8,26.6,31.2,55.9,39.9,87
				c45,161.1-49.4,328.7-210.4,373.7C357.9,603,330.3,606.8,302.9,606.8z"/>
		</g>
		<g>
			<g>
				<path class="st1" d="M697.3,345.9"/>
			</g>
		</g>
	</g>
	<g>
		<g>
			<path class="st0" d="M298.8,429.6c-5.2,0-10.4-2.4-13.7-6.9L140.3,224.1c-5.5-7.5-3.9-18.1,3.7-23.6c7.5-5.5,18.1-3.9,23.6,3.7
				l144.8,198.5c5.5,7.5,3.9,18.1-3.7,23.6C305.7,428.5,302.2,429.6,298.8,429.6z"/>
		</g>
		<g>
			<path class="st1" d="M366.6,168.9"/>
		</g>
		<g>
			<path class="st0" d="M298.7,429.6c-2.9,0-5.8-0.7-8.5-2.3c-8.1-4.7-10.8-15.1-6.1-23.1L478,72.1c4.7-8.1,15-10.8,23.1-6.1
				c8.1,4.7,10.8,15.1,6.1,23.1l-193.9,332C310.2,426.6,304.5,429.6,298.7,429.6z"/>
		</g>
	</g>
</g>
</svg>
