<?xml version="1.0" encoding="utf-8"?>
<!-- Generator: Adobe Illustrator 25.3.1, SVG Export Plug-In . SVG Version: 6.00 Build 0)  -->
<svg version="1.1" id="Layer_1" xmlns="http://www.w3.org/2000/svg" xmlns:xlink="http://www.w3.org/1999/xlink" x="0px" y="0px"
	 viewBox="0 0 781.2 910.7" style="enable-background:new 0 0 781.2 910.7;" xml:space="preserve">
<style type="text/css">
	.st0{fill:#FFFFFF;}
</style>
<g>
	<path class="st0" d="M489.6,803.8l14,38.9c-63.6,43.5-113,68.1-113,68.1s-54.7-27.5-123.1-75.4l12.3-33.3l13.6-36.8l25.6-69.7
		l12-32.7l39-113c0,0,13.2-37.1,13.2-37.2l2-4c0.2-0.3,0.8-1.4,1.2-1.8l1-1.1l0.4-0.4c0.4-0.2,0.8-0.4,1.2-0.4l0.9,0.1l0.9,0.6
		l1.7,3.2l3.5,10.9l7.6,21.5l26.6,81.2l23.1,71.7l0.5,1.4L489.6,803.8z"/>
	<path class="st0" d="M781.2,129.5v325.3c0,107.1-65.7,203.1-143.2,279l-23.1-39.5l-7.9-13.6L571,610l-30-62.1l-3.4-8.2l-20.3-48.5
		l-20-56.1l-18.3-54.8l-19.9-61.9L440,253.1l-11.6-43.4l-5.7-21.4l-1-3.6l-18.3-68.2l-10.8-36.1l-21.2,68.4l-10.8,35.9l-7.6,24.9
		l-10.6,35L319,317.2l-27.5,81l-22.9,66.4l-26.3,63.7l-1.3,2.8l-26.9,58.1l-32.5,64.7L157,695.5l-5.7,9.7l-1.6,2.6L137.9,728
		c0,0,0,0-0.1-0.1C62.6,652.7,0,558.9,0,454.8V129.5L389.5,0L781.2,129.5z"/>
</g>
</svg>
