<?xml version="1.0" encoding="utf-8"?>
<!-- Generator: Adobe Illustrator 23.0.3, SVG Export Plug-In . SVG Version: 6.00 Build 0)  -->
<!DOCTYPE svg PUBLIC "-//W3C//DTD SVG 1.1//EN" "http://www.w3.org/Graphics/SVG/1.1/DTD/svg11.dtd" [
	<!ENTITY ns_extend "http://ns.adobe.com/Extensibility/1.0/">
	<!ENTITY ns_ai "http://ns.adobe.com/AdobeIllustrator/10.0/">
	<!ENTITY ns_graphs "http://ns.adobe.com/Graphs/1.0/">
	<!ENTITY ns_vars "http://ns.adobe.com/Variables/1.0/">
	<!ENTITY ns_imrep "http://ns.adobe.com/ImageReplacement/1.0/">
	<!ENTITY ns_sfw "http://ns.adobe.com/SaveForWeb/1.0/">
	<!ENTITY ns_custom "http://ns.adobe.com/GenericCustomNamespace/1.0/">
	<!ENTITY ns_adobe_xpath "http://ns.adobe.com/XPath/1.0/">
]>
<svg version="1.1" id="Layer_1" xmlns:x="&ns_extend;" xmlns:i="&ns_ai;" xmlns:graph="&ns_graphs;"
	 xmlns="http://www.w3.org/2000/svg" xmlns:xlink="http://www.w3.org/1999/xlink" x="0px" y="0px" viewBox="0 0 19.8 24"
	 style="enable-background:new 0 0 19.8 24;" xml:space="preserve">
<style type="text/css">
	.st0{fill:#303030;}
</style>
<metadata>
	<sfw  xmlns="&ns_sfw;">
		<slices></slices>
		<sliceSourceBounds  bottomLeftOrigin="true" height="24" width="19.8" x="1.2" y="0"></sliceSourceBounds>
	</sfw>
</metadata>
<g>
	<path class="st0" d="M19.8,2.9c0,4.9,0,9.9,0,14.8c0,0.1,0,0.1,0,0.2c-0.2,1.4-1.2,2.4-2.6,2.7c-0.2,0-0.2,0.1-0.2,0.3
		c0,1.3-0.6,2.2-1.8,2.8c-0.3,0.2-0.7,0.2-1,0.3c-3.8,0-7.5,0-11.3,0c0,0-0.1,0-0.1,0c-1.3-0.3-2.2-1-2.6-2.3
		C0.1,21.4,0,21.3,0,21.1c0-4.9,0-9.9,0-14.8c0,0,0-0.1,0-0.1c0.3-1.6,1.6-2.7,3.2-2.7c2.5,0,5.1,0,7.6,0c0.7,0,1.3,0.3,1.9,0.8
		c1.1,1.1,2.3,2.3,3.4,3.4c0.5,0.5,0.8,1.1,0.8,1.9c0,3,0,6.1,0,9.1c0,0.1,0,0.2,0,0.3c0.2-0.1,0.3-0.1,0.4-0.2
		c0.6-0.3,0.8-0.9,0.8-1.6c0-4.2,0-8.4,0-12.6c0-0.4,0-0.9,0-1.3c0-1-0.7-1.7-1.7-1.7c-3.7,0-7.3,0-11,0c-0.5,0-1,0.2-1.3,0.6
		c0,0.1-0.1,0.1-0.2,0.1c-0.5,0-1.1,0-1.6,0c0,0,0-0.1,0-0.1c0-0.1,0-0.1,0.1-0.2c0.3-0.9,0.9-1.5,1.8-1.8C4.5,0.1,4.7,0.1,5,0
		c4,0,8,0,11.9,0c0,0,0.1,0,0.1,0c1.4,0.2,2.3,1.2,2.6,2.5C19.7,2.7,19.7,2.8,19.8,2.9z M1.6,13.7c0,2.3,0,4.6,0,6.9
		c0,1.1,0.7,1.7,1.7,1.7c3.4,0,6.8,0,10.2,0c1.1,0,1.8-0.7,1.8-1.8c0-3.7,0-7.3,0-11c0-0.1,0-0.1,0-0.2c0-0.2-0.1-0.2-0.3-0.2
		c-0.6,0-1.1,0-1.7,0c-1.4,0-2.3-1-2.3-2.4c0-0.5,0-1,0-1.5C11,5.1,11,5,10.8,5c-2.5,0-5,0-7.5,0C3,5,2.8,5.1,2.5,5.2
		C1.9,5.5,1.6,6.1,1.6,6.8C1.6,9.1,1.6,11.4,1.6,13.7z"/>
	<path class="st0" d="M8.5,17.5c1.4,0,2.8,0,4.1,0c0.6,0,0.9,0.3,1,0.8c0.1,0.5-0.2,1-0.7,1.1c-0.1,0-0.2,0-0.3,0
		c-2.8,0-5.5,0-8.3,0c-0.6,0-1.1-0.4-1.1-0.9c0-0.5,0.4-0.9,1-0.9c0.6,0,1.3,0,1.9,0C6.9,17.5,7.7,17.5,8.5,17.5z"/>
	<path class="st0" d="M8.4,15.3c-1.4,0-2.8,0-4.2,0c-0.4,0-0.8-0.2-0.9-0.6c-0.1-0.4,0-0.8,0.3-1c0.2-0.1,0.4-0.2,0.6-0.2
		c2.8,0,5.7,0,8.5,0c0.5,0,0.9,0.4,0.9,0.9c0,0.5-0.4,0.9-0.9,1c-0.6,0-1.2,0-1.8,0C10.1,15.3,9.3,15.3,8.4,15.3z"/>
	<path class="st0" d="M6.7,11.2c-0.8,0-1.6,0-2.4,0c-0.4,0-0.7-0.2-0.9-0.6c-0.2-0.3-0.1-0.7,0.1-1c0.2-0.2,0.4-0.3,0.7-0.3
		c1.6,0,3.2,0,4.9,0c0.6,0,1,0.4,1,1c0,0.5-0.4,0.9-1,0.9C8.3,11.2,7.5,11.2,6.7,11.2z"/>
</g>
</svg>
