<?xml version="1.0" encoding="utf-8"?>
<!-- Generator: Adobe Illustrator 25.3.1, SVG Export Plug-In . SVG Version: 6.00 Build 0)  -->
<svg version="1.1" id="Layer_1" xmlns="http://www.w3.org/2000/svg" xmlns:xlink="http://www.w3.org/1999/xlink" x="0px" y="0px"
	 viewBox="0 0 128 125.1" style="enable-background:new 0 0 128 125.1;" xml:space="preserve">
<style type="text/css">
	.st0{fill:#FFFFFF;}
</style>
<path class="st0" d="M28.4,100.8V7.1c0-3.9,3.2-7.1,7.1-7.1s7.1,3.2,7.1,7.1v93.7L59,84.5c2.8-2.8,7.3-2.8,10.1,0
	c2.8,2.8,2.8,7.3,0,10.1L40.6,123c-2.8,2.8-7.3,2.8-10.1,0L2.1,94.6c-2.8-2.8-2.8-7.3,0-10.1c2.8-2.8,7.3-2.8,10.1,0L28.4,100.8z
	 M99.6,27.8V118c0,3.9-3.2,7.1-7.1,7.1s-7.1-3.2-7.1-7.1V27.8L69,44.1c-2.8,2.8-7.3,2.8-10.1,0c-2.8-2.8-2.8-7.3,0-10.1L87.4,5.6
	c2.8-2.8,7.3-2.8,10.1,0l28.4,28.4c2.8,2.8,2.8,7.3,0,10.1c-2.8,2.8-7.3,2.8-10.1,0L99.6,27.8z"/>
</svg>
