<?xml version="1.0" encoding="utf-8"?>
<!-- Generator: Adobe Illustrator 25.3.1, SVG Export Plug-In . SVG Version: 6.00 Build 0)  -->
<svg version="1.1" id="Layer_1" xmlns="http://www.w3.org/2000/svg" xmlns:xlink="http://www.w3.org/1999/xlink" x="0px" y="0px"
	 viewBox="0 0 77.7 84.2" style="enable-background:new 0 0 77.7 84.2;" xml:space="preserve">
<style type="text/css">
	.st0{fill:#FFFFFF;}
</style>
<path class="st0" d="M38.5,5.1c1.1,0,2.2,0.2,3.2,0.7c7.5,3.6,15.8,6.1,24.8,7.5c3.4,0.5,5.9,3.5,5.8,7c-0.4,8.3-1.8,20.6-6.6,32
	c-5.1,12.1-13.1,20.9-23.6,26c-1,0.5-2,0.7-3.1,0.7c-1.1,0-2.1-0.3-3-0.7C13.1,66.7,7.4,47.5,5.5,20.3c-0.2-3.4,2.2-6.5,5.6-7.1
	c8.8-1.4,16.9-3.9,24.3-7.4C36.4,5.4,37.4,5.1,38.5,5.1 M38.6,0c-2.3,0-4.6,0.5-6.7,1.5c-6.8,3.3-13.6,5-19.2,5.9
	C5,8.6-0.5,15.5,0,23.2c1.7,25,7.3,46.6,32.1,59.3c2.1,1.1,4.5,1.6,6.8,1.6c2.3,0,4.6-0.5,6.7-1.6C71.6,70,77,40.8,77.7,23
	C78,15.3,72.6,8.6,65,7.5c-5.7-0.9-12.7-2.6-19.7-5.9C43.2,0.5,40.9,0,38.6,0L38.6,0z"/>
<g>
	<polygon class="st0" points="45.2,14.5 45.2,28 57,28 	"/>
	<path class="st0" d="M43.4,31.6c-1,0-1.8-0.8-1.8-1.8V13.4H21.5c-1,0-1.8,0.8-1.8,1.8v47.4c0,1,0.8,1.8,1.8,1.8h34.6
		c1,0,1.8-0.8,1.8-1.8v-31H43.4z M28.8,35.3h18.2c1,0,1.8,0.8,1.8,1.8c0,1-0.8,1.8-1.8,1.8H28.8c-1,0-1.8-0.8-1.8-1.8
		C27,36.1,27.8,35.3,28.8,35.3z M28.8,42.6h10.9c1,0,1.8,0.8,1.8,1.8s-0.8,1.8-1.8,1.8H28.8c-1,0-1.8-0.8-1.8-1.8
		S27.8,42.6,28.8,42.6z M50.7,53.5H28.8c-1,0-1.8-0.8-1.8-1.8c0-1,0.8-1.8,1.8-1.8h21.9c1,0,1.8,0.8,1.8,1.8
		C52.5,52.7,51.7,53.5,50.7,53.5z"/>
</g>
</svg>
