<?xml version="1.0" encoding="utf-8"?>
<!-- Generator: Adobe Illustrator 23.0.0, SVG Export Plug-In . SVG Version: 6.00 Build 0)  -->
<svg version="1.1" id="Layer_1" xmlns="http://www.w3.org/2000/svg" xmlns:xlink="http://www.w3.org/1999/xlink" x="0px" y="0px"
	 viewBox="0 0 301.4 285.1" style="enable-background:new 0 0 301.4 285.1;" xml:space="preserve">
<style type="text/css">
	.st0{fill:#00B7D9;stroke:#FFFFFF;stroke-width:3;stroke-miterlimit:10;}
	.st1{fill:#FFFFFF;}
	.st2{enable-background:new    ;}
	.st3{fill:#FCFCFC;}
</style>
<path class="st0" d="M290.9,283.6H10.5c-5,0-9-4-9-9V10.5c0-4.9,4.1-9,9-9h280.4c4.9,0,9,4.1,9,9v264.1
	C299.9,279.5,295.8,283.6,290.9,283.6z"/>
<g>
	<path class="st1" d="M47.7,41.5V99h57.5V41.5H47.7z M97.1,90.8H56V49.7h41.1V90.8z"/>
	<path class="st1" d="M195.7,41.5V99h57.5V41.5H195.7z M245,90.8h-41.1V49.7H245V90.8z"/>
	<rect x="64.2" y="57.9" class="st1" width="24.7" height="24.7"/>
	<path class="st1" d="M187.5,74.3V49.7h-24.7v-8.2h-8.2v16.4h-8.2V41.5h-32.9v16.4h8.2v8.2h8.2V49.7h8.2v16.4h16.4v8.2h-8.2v8.2H171
		v8.2h8.2v16.4h8.2V82.6h-8.2v-8.2L187.5,74.3L187.5,74.3z M162.8,66.1v-8.2h16.4v8.2C179.3,66.1,162.8,66.1,162.8,66.1z"/>
	<rect x="212.1" y="57.9" class="st1" width="24.7" height="24.7"/>
	<polygon class="st1" points="113.5,66.1 121.7,66.1 121.7,82.6 146.4,82.6 146.4,90.8 138.2,90.8 138.2,99 129.9,99 129.9,90.8 
		121.7,90.8 121.7,99 113.5,99 	"/>
	<rect x="146.4" y="90.8" class="st1" width="8.2" height="8.2"/>
	<polygon class="st1" points="162.8,90.8 171,90.8 171,115.4 162.8,115.4 162.8,107.2 154.6,107.2 154.6,99 162.8,99 	"/>
	<rect x="121.7" y="99" class="st1" width="8.2" height="8.2"/>
	<rect x="138.2" y="99" class="st1" width="8.2" height="8.2"/>
	<rect x="72.4" y="107.2" class="st1" width="8.2" height="8.2"/>
	<rect x="97.1" y="107.2" class="st1" width="8.2" height="8.2"/>
	<rect x="146.4" y="107.2" class="st1" width="8.2" height="8.2"/>
	<polygon class="st1" points="203.9,107.2 228.6,107.2 228.6,115.4 212.1,115.4 212.1,123.7 228.6,123.7 228.6,115.4 236.8,115.4 
		236.8,131.9 203.9,131.9 	"/>
	<polygon class="st1" points="236.8,107.2 253.3,107.2 253.3,131.9 245,131.9 245,115.4 236.8,115.4 	"/>
	<rect x="47.7" y="115.4" class="st1" width="24.7" height="8.2"/>
	<polygon class="st1" points="80.6,115.4 97.1,115.4 97.1,123.7 88.8,123.7 88.8,131.9 80.6,131.9 	"/>
	<rect x="113.5" y="115.4" class="st1" width="8.2" height="8.2"/>
	<rect x="154.6" y="115.4" class="st1" width="8.2" height="8.2"/>
	<polygon class="st1" points="187.5,115.4 195.7,115.4 195.7,131.9 179.3,131.9 179.3,123.7 187.5,123.7 	"/>
	<polygon class="st1" points="97.1,123.7 113.5,123.7 113.5,131.9 121.7,131.9 121.7,156.6 113.5,156.6 113.5,164.8 121.7,164.8 
		121.7,156.6 129.9,156.6 129.9,173 113.5,173 113.5,181.2 80.6,181.2 80.6,164.8 88.8,164.8 88.8,173 105.3,173 105.3,164.8 
		97.1,164.8 97.1,156.6 105.3,156.6 105.3,148.3 97.1,148.3 97.1,140.1 105.3,140.1 105.3,131.9 97.1,131.9 	"/>
	<rect x="47.7" y="131.9" class="st1" width="8.2" height="8.2"/>
	<polygon class="st1" points="72.4,131.9 80.6,131.9 80.6,148.3 97.1,148.3 97.1,156.6 80.6,156.6 80.6,164.8 64.2,164.8 
		64.2,156.6 56,156.6 56,140.1 64.2,140.1 64.2,148.3 72.4,148.3 	"/>
	<rect x="195.7" y="131.9" class="st1" width="8.2" height="8.2"/>
	<polygon class="st1" points="203.9,140.1 228.6,140.1 228.6,148.3 212.1,148.3 212.1,156.6 203.9,156.6 	"/>
	<polygon class="st1" points="236.8,140.1 245,140.1 245,148.3 253.3,148.3 253.3,164.8 228.6,164.8 228.6,148.3 236.8,148.3 	"/>
	<rect x="129.9" y="148.3" class="st1" width="8.2" height="8.2"/>
	<rect x="47.7" y="156.6" class="st1" width="8.2" height="8.2"/>
	<rect x="138.2" y="156.6" class="st1" width="8.2" height="8.2"/>
	<polygon class="st1" points="56,164.8 64.2,164.8 64.2,181.2 47.7,181.2 47.7,173 56,173 	"/>
	<rect x="113.5" y="181.2" class="st1" width="8.2" height="8.2"/>
	<polygon class="st1" points="121.7,189.4 129.9,189.4 129.9,222.3 138.2,222.3 138.2,205.9 162.8,205.9 162.8,214.1 154.6,214.1 
		154.6,238.8 162.8,238.8 162.8,247 138.2,247 138.2,238.8 129.9,238.8 129.9,230.5 121.7,230.5 121.7,222.3 113.5,222.3 
		113.5,214.1 121.7,214.1 	"/>
	<rect x="195.7" y="189.4" class="st1" width="8.2" height="8.2"/>
	<path class="st1" d="M47.7,189.4V247h57.5v-57.5H47.7V189.4z M97.1,238.8H56v-41.1h41.1V238.8z"/>
	<rect x="64.2" y="205.9" class="st1" width="24.7" height="24.7"/>
	<path class="st1" d="M245,173v8.2h-8.2V173h-8.2v8.2h-8.2v-16.4H204v8.2h-16.4v-8.2H204v-8.2h-8.2v-16.4h-16.4v8.2h8.2v8.2h-8.2
		v-8.2H171v-8.2h8.2V132H171v-8.2h-8.2v8.2h-24.7v-8.2h8.2v-8.2h-8.2v-8.2h-8.2v16.4h-8.2v8.2h8.2v8.2h8.2v8.2h16.4v-8.2h8.2v8.2
		h-8.2v8.2h8.2v8.2h-16.4v16.4h-8.2v8.2h24.7v8.2h8.2v-16.4h-16.4V173H171v-8.2h8.2v8.2H171v8.2h8.2v16.4H171v8.2h8.2v8.2h8.2v24.7
		h16.4v-8.2h24.7v-8.2H245v-16.4h-8.2v8.2h-16.4v-24.7h8.2v16.4h8.2v-16.4h8.2v8.2h8.2V173H245z M212.1,222.3h-16.4v-8.2h16.4V222.3
		z M212.1,205.9h-24.7v-24.7h24.7V205.9z"/>
	<rect x="162.8" y="222.3" class="st1" width="8.2" height="8.2"/>
	<rect x="245" y="222.3" class="st1" width="8.2" height="8.2"/>
	<rect x="171" y="230.5" class="st1" width="8.2" height="16.4"/>
	<rect x="121.7" y="238.8" class="st1" width="8.2" height="8.2"/>
	<rect x="212.1" y="238.8" class="st1" width="16.4" height="8.2"/>
	<rect x="236.8" y="238.8" class="st1" width="16.4" height="8.2"/>
</g>
<polygon class="st0" points="299.9,132.7 85.1,283.6 220.7,283.6 299.9,227.2 "/>
<g class="st2">
	<path class="st3" d="M206.2,253.1c1,1.3,1.6,2.6,1.8,3.9c0.2,1.3,0.2,2.6-0.1,3.9c-0.3,1.3-0.9,2.5-1.8,3.6s-1.9,2.2-3.1,3.1
		c-0.8,0.6-1.7,1.1-2.5,1.5c-0.8,0.4-1.6,0.7-2.3,0.9c-0.7,0.2-1.3,0.4-1.8,0.4c-0.5,0.1-0.9,0.1-1.2,0c-0.3,0-0.6-0.2-0.9-0.4
		c-0.3-0.3-0.7-0.7-1.1-1.3c-0.3-0.4-0.5-0.7-0.7-1c-0.2-0.3-0.3-0.5-0.4-0.7c-0.1-0.2-0.1-0.4,0-0.5c0-0.1,0.1-0.3,0.3-0.3
		c0.2-0.1,0.5-0.2,1-0.2c0.5,0,1.1-0.1,1.8-0.2c0.7-0.1,1.5-0.3,2.3-0.7c0.9-0.3,1.7-0.8,2.7-1.5c0.6-0.5,1.1-0.9,1.5-1.4
		s0.6-1,0.8-1.5c0.1-0.5,0.1-1,0-1.6c-0.1-0.5-0.4-1-0.7-1.5c-0.4-0.6-0.9-0.9-1.5-1.1s-1.3-0.2-2-0.2s-1.5,0.2-2.3,0.4
		c-0.8,0.2-1.7,0.4-2.5,0.6c-0.9,0.2-1.8,0.3-2.7,0.4c-0.9,0.1-1.8,0-2.7-0.1c-0.9-0.2-1.7-0.5-2.6-1s-1.7-1.3-2.4-2.3
		c-0.9-1.2-1.4-2.4-1.7-3.6c-0.2-1.2-0.2-2.4,0.1-3.5c0.3-1.1,0.8-2.2,1.6-3.3s1.7-2,2.9-2.8c0.6-0.4,1.2-0.8,1.8-1.2
		s1.3-0.6,1.9-0.9c0.6-0.2,1.2-0.4,1.7-0.5c0.5-0.1,0.9-0.1,1.1-0.1c0.2,0,0.4,0.1,0.5,0.1c0.1,0.1,0.2,0.1,0.4,0.3
		c0.1,0.1,0.3,0.3,0.5,0.5c0.2,0.2,0.4,0.5,0.6,0.8c0.3,0.4,0.5,0.7,0.7,0.9c0.2,0.3,0.3,0.5,0.4,0.7c0.1,0.2,0.1,0.4,0.1,0.5
		c0,0.1-0.1,0.3-0.2,0.4s-0.4,0.2-0.9,0.2s-0.9,0.1-1.5,0.3c-0.6,0.1-1.2,0.3-2,0.6c-0.7,0.3-1.4,0.7-2.1,1.2
		c-0.5,0.4-1,0.8-1.3,1.3c-0.3,0.4-0.5,0.9-0.6,1.3s-0.1,0.9,0,1.3c0.1,0.4,0.3,0.8,0.6,1.2c0.4,0.5,0.9,0.9,1.5,1.1s1.3,0.2,2,0.2
		c0.7-0.1,1.5-0.2,2.3-0.4c0.8-0.2,1.7-0.4,2.6-0.6c0.9-0.2,1.8-0.3,2.7-0.4s1.8,0,2.7,0.1s1.8,0.5,2.6,1
		C204.6,251.4,205.4,252.1,206.2,253.1z"/>
	<path class="st3" d="M229.5,241.3c0.2,0.3,0.4,0.6,0.6,0.8c0.1,0.2,0.3,0.4,0.3,0.6c0.1,0.2,0.1,0.4,0.2,0.5c0,0.2,0,0.4,0,0.6
		c0,0.2-0.2,0.6-0.4,1.2c-0.2,0.5-0.5,1.1-1,1.7c-0.4,0.6-0.9,1.3-1.6,2c-0.6,0.7-1.4,1.4-2.2,2c-1.7,1.3-3.4,2.1-5.1,2.6
		c-1.7,0.5-3.5,0.6-5.2,0.3c-1.7-0.3-3.4-1.1-5-2.2c-1.7-1.2-3.2-2.8-4.8-4.8c-1.6-2.1-2.7-4.1-3.3-6.1c-0.6-2-0.9-4-0.7-5.8
		c0.2-1.8,0.7-3.6,1.7-5.2c1-1.6,2.3-3,4-4.3c0.7-0.5,1.4-0.9,2.1-1.3s1.4-0.6,2.1-0.9c0.7-0.2,1.3-0.4,1.9-0.4
		c0.6-0.1,1.1-0.1,1.4-0.1c0.3,0,0.5,0.1,0.7,0.2c0.1,0.1,0.3,0.2,0.5,0.3c0.2,0.1,0.4,0.3,0.5,0.6c0.2,0.2,0.4,0.5,0.7,0.9
		c0.3,0.4,0.5,0.7,0.7,1c0.2,0.3,0.3,0.5,0.3,0.7c0.1,0.2,0.1,0.4,0,0.5s-0.1,0.3-0.2,0.3c-0.2,0.1-0.5,0.2-1,0.2
		c-0.5,0-1,0-1.7,0.1c-0.7,0.1-1.4,0.2-2.2,0.5c-0.8,0.3-1.6,0.7-2.5,1.4c-1,0.7-1.7,1.6-2.1,2.5s-0.7,2-0.7,3.1
		c0,1.1,0.3,2.3,0.8,3.6c0.5,1.3,1.2,2.5,2.2,3.8c1.1,1.4,2.1,2.6,3.2,3.4c1.1,0.8,2.1,1.4,3.2,1.7c1.1,0.3,2.1,0.3,3.1,0
		s2-0.7,3-1.5c0.9-0.7,1.6-1.3,2-2c0.5-0.7,0.9-1.3,1.1-1.9c0.3-0.6,0.5-1.1,0.6-1.5c0.1-0.4,0.3-0.7,0.5-0.8
		c0.1-0.1,0.2-0.1,0.4-0.2c0.1,0,0.3,0,0.4,0.2s0.4,0.3,0.6,0.5C228.9,240.5,229.2,240.8,229.5,241.3z"/>
	<path class="st3" d="M254.5,225.5c0.5,0.3,0.9,0.6,1.1,0.9c0.2,0.2,0.3,0.5,0.3,0.7c0,0.2-0.2,0.5-0.6,0.8
		c-0.3,0.3-0.8,0.7-1.4,1.1c-0.6,0.5-1.1,0.8-1.5,1.1c-0.4,0.2-0.7,0.4-0.9,0.5s-0.4,0.1-0.6,0.1c-0.2,0-0.3-0.1-0.5-0.3l-5.3-3.7
		l-9.2,6.9l2,5.9c0.1,0.2,0.1,0.4,0.1,0.6c0,0.2-0.1,0.4-0.2,0.6c-0.1,0.2-0.4,0.4-0.7,0.7c-0.3,0.3-0.7,0.6-1.3,1
		c-0.6,0.4-1,0.8-1.4,1c-0.4,0.2-0.7,0.3-0.9,0.2c-0.2,0-0.4-0.2-0.6-0.5c-0.2-0.3-0.3-0.7-0.5-1.3l-8.7-27.3
		c-0.1-0.3-0.1-0.5-0.1-0.7s0.1-0.4,0.3-0.7c0.2-0.2,0.4-0.5,0.8-0.8c0.4-0.3,0.9-0.7,1.5-1.2c0.7-0.6,1.3-1,1.8-1.3
		c0.5-0.3,0.8-0.5,1.1-0.6s0.5-0.1,0.8-0.1c0.2,0.1,0.4,0.2,0.7,0.4L254.5,225.5z M229.9,216L229.9,216l4.3,13l6.9-5.2L229.9,216z"
		/>
	<path class="st3" d="M278.1,208c0.2,0.3,0.4,0.6,0.4,0.9c0.1,0.3,0.1,0.6,0,0.9c-0.1,0.3-0.2,0.5-0.4,0.8c-0.2,0.2-0.4,0.5-0.6,0.6
		l-2.1,1.6c-0.4,0.3-0.9,0.6-1.2,0.7c-0.4,0.2-0.8,0.2-1.2,0.2c-0.4,0-0.9-0.2-1.5-0.4c-0.5-0.2-1.2-0.5-2-0.9l-14.6-6.9
		c-0.9-0.4-1.8-0.9-2.7-1.4c-1-0.5-1.8-1-2.7-1.6l0,0c0.7,0.9,1.4,1.7,2.1,2.6c0.7,0.9,1.4,1.8,2.1,2.8l9.5,12.8
		c0.1,0.1,0.1,0.3,0.2,0.4s0,0.3-0.2,0.5c-0.1,0.2-0.3,0.4-0.6,0.7c-0.3,0.3-0.6,0.6-1.1,0.9c-0.4,0.3-0.8,0.6-1.1,0.8
		c-0.3,0.2-0.6,0.3-0.8,0.3c-0.2,0.1-0.4,0.1-0.5,0c-0.1-0.1-0.3-0.1-0.3-0.3l-16.4-21.9c-0.4-0.6-0.6-1.2-0.5-1.7
		c0.1-0.6,0.4-1,0.9-1.4l2.7-2c0.5-0.4,0.9-0.6,1.3-0.8c0.4-0.2,0.8-0.2,1.2-0.3c0.4,0,0.8,0.1,1.3,0.2c0.5,0.2,1,0.4,1.6,0.7
		l11.4,5.4c0.7,0.3,1.4,0.7,2,1c0.7,0.3,1.3,0.6,2,1c0.6,0.3,1.3,0.7,1.9,1c0.6,0.3,1.2,0.7,1.8,1l0,0c-0.7-0.9-1.4-1.7-2.1-2.7
		s-1.4-1.8-2.1-2.7l-8.6-11.4c-0.1-0.1-0.1-0.3-0.1-0.4c0-0.2,0.1-0.3,0.2-0.5c0.1-0.2,0.3-0.4,0.6-0.7s0.6-0.5,1.1-0.9
		c0.4-0.3,0.8-0.6,1.1-0.8c0.3-0.2,0.6-0.3,0.8-0.3s0.4,0,0.5,0c0.1,0.1,0.3,0.1,0.3,0.3L278.1,208z"/>
</g>
</svg>
