<?xml version="1.0" encoding="utf-8"?>
<!-- Generator: Adobe Illustrator 22.1.0, SVG Export Plug-In . SVG Version: 6.00 Build 0)  -->
<svg version="1.1" id="Layer_1" xmlns="http://www.w3.org/2000/svg" xmlns:xlink="http://www.w3.org/1999/xlink" x="0px" y="0px"
	 viewBox="0 0 73.9 73.9" style="enable-background:new 0 0 73.9 73.9;" xml:space="preserve">
<style type="text/css">
	.st0{fill:none;stroke:#FFFFFF;stroke-width:3;stroke-miterlimit:10;}
	.st1{fill:#FFFFFF;}
</style>
<circle class="st0" cx="37" cy="37" r="35.5"/>
<path d="M46,38.6"/>
<g>
	<polygon class="st1" points="19,29 19,46.2 23.7,43.8 23.7,31.7 	"/>
	<polygon class="st1" points="19.7,49.1 34.8,57.6 34.9,52.2 24.5,46.3 	"/>
	<polygon class="st1" points="38.6,57.9 53.5,49.2 48.9,46.4 38.6,52.4 	"/>
	<polygon class="st1" points="54.9,46.5 54.9,30.9 50.5,35.4 50.5,44.3 	"/>
	<polygon class="st1" points="35.7,17.8 20.3,26.6 24.8,29.4 35.5,23.2 	"/>
	<polygon class="st1" points="50.1,25.1 38.2,18.1 38.1,22.4 46.7,27.4 	"/>
	<polygon class="st1" points="32.3,34.6 28.5,38.5 36.2,46.5 59.6,20.7 36.5,38.7 	"/>
</g>
</svg>
