<?xml version="1.0" encoding="utf-8"?>
<!-- Generator: Adobe Illustrator 26.0.2, SVG Export Plug-In . SVG Version: 6.00 Build 0)  -->
<svg version="1.1" id="Layer_1" xmlns="http://www.w3.org/2000/svg" xmlns:xlink="http://www.w3.org/1999/xlink" x="0px" y="0px"
	 viewBox="0 0 118.8 72.8" style="enable-background:new 0 0 118.8 72.8;" xml:space="preserve">
<style type="text/css">
	.st0{fill:#FFFFFF;}
</style>
<g transform="matrix(1,0,0,1,194.28700256347656,119)">
	<path class="st0" d="M-170-104.8c19.4-19,50.8-19,70.1,0l2.3,2.3c1,1,1,2.5,0,3.4l-8,7.8c-0.5,0.5-1.3,0.5-1.8,0l-3.2-3.1
		c-13.5-13.2-35.4-13.2-48.9,0l-3.4,3.4c-0.5,0.5-1.3,0.5-1.8,0l-8-7.8c-1-1-1-2.5,0-3.4L-170-104.8z M-83.3-88.6l7.1,6.9
		c1,1,1,2.5,0,3.4l-32,31.3c-1,1-2.5,1-3.5,0l-22.7-22.2c-0.3-0.2-0.6-0.2-0.9,0L-158-46.9c-1,1-2.5,1-3.5,0l-32-31.3
		c-1-1-1-2.5,0-3.4l7.1-6.9c1-1,2.5-1,3.5,0l22.7,22.2c0.3,0.2,0.6,0.2,0.9,0l22.7-22.2c1-1,2.5-1,3.5,0l22.7,22.2
		c0.3,0.2,0.6,0.2,0.9,0l22.7-22.2C-85.9-89.6-84.3-89.6-83.3-88.6z"/>
</g>
</svg>
