<?xml version="1.0" encoding="utf-8"?>
<!-- Generator: Adobe Illustrator 22.1.0, SVG Export Plug-In . SVG Version: 6.00 Build 0)  -->
<svg version="1.1" id="Layer_1" xmlns="http://www.w3.org/2000/svg" xmlns:xlink="http://www.w3.org/1999/xlink" x="0px" y="0px"
	 viewBox="0 0 73.9 73.9" style="enable-background:new 0 0 73.9 73.9;" xml:space="preserve">
<style type="text/css">
	.st0{fill:none;stroke:#FFFFFF;stroke-width:3;stroke-miterlimit:10;}
	.st1{fill:#FFFFFF;}
</style>
<circle class="st0" cx="37" cy="37" r="35.5"/>
<path d="M46,38.6"/>
<path class="st1" d="M36.8,17.1c-5.8,0-11.4,3.8-11.4,11c0,1.9,1.6,3.4,3.4,3.4c1.9,0,3.4-1.6,3.4-3.4c0-3.8,4.1-3.9,4.5-3.9
	s4.5,0.2,4.5,3.9v0.8c0,1.6-0.8,2.8-2.2,3.6l-3,1.7c-1.7,0.9-2.7,2.7-2.7,4.5v2.8c0,1.9,1.6,3.4,3.4,3.4s3.4-1.6,3.4-3.4v-1.7
	l2.2-1.1c3.6-1.9,5.8-5.6,5.8-9.7v-0.9C48.2,20.9,42.4,17.1,36.8,17.1z"/>
<path class="st1" d="M36.8,48.9c-5.6,0-5.6,8.8,0,8.8S42.4,48.9,36.8,48.9z"/>
</svg>
