<?xml version="1.0" encoding="utf-8"?>
<!-- Generator: Adobe Illustrator 23.0.3, SVG Export Plug-In . SVG Version: 6.00 Build 0)  -->
<!DOCTYPE svg PUBLIC "-//W3C//DTD SVG 1.1//EN" "http://www.w3.org/Graphics/SVG/1.1/DTD/svg11.dtd" [
	<!ENTITY ns_extend "http://ns.adobe.com/Extensibility/1.0/">
	<!ENTITY ns_ai "http://ns.adobe.com/AdobeIllustrator/10.0/">
	<!ENTITY ns_graphs "http://ns.adobe.com/Graphs/1.0/">
	<!ENTITY ns_vars "http://ns.adobe.com/Variables/1.0/">
	<!ENTITY ns_imrep "http://ns.adobe.com/ImageReplacement/1.0/">
	<!ENTITY ns_sfw "http://ns.adobe.com/SaveForWeb/1.0/">
	<!ENTITY ns_custom "http://ns.adobe.com/GenericCustomNamespace/1.0/">
	<!ENTITY ns_adobe_xpath "http://ns.adobe.com/XPath/1.0/">
]>
<svg version="1.1" id="Layer_1" xmlns:x="&ns_extend;" xmlns:i="&ns_ai;" xmlns:graph="&ns_graphs;"
	 xmlns="http://www.w3.org/2000/svg" xmlns:xlink="http://www.w3.org/1999/xlink" x="0px" y="0px" viewBox="0 0 100.1 100"
	 style="enable-background:new 0 0 100.1 100;" xml:space="preserve">
<style type="text/css">
	.st0{fill:#FFFFFF;}
	.st1{fill:#5CCB92;}
	.st2{fill:none;stroke:#5CCB92;stroke-width:2.8346;stroke-linecap:round;stroke-miterlimit:10;}
</style>
<metadata>
	<sfw  xmlns="&ns_sfw;">
		<slices></slices>
		<sliceSourceBounds  bottomLeftOrigin="true" height="100" width="105.7" x="-7.2" y="-6.4"></sliceSourceBounds>
	</sfw>
</metadata>
<circle class="st0" cx="50" cy="50" r="50"/>
<g>
	<g>
		<g>
			<path class="st1" d="M50.1,93.8c-18.7,0-36-12.4-41.3-31.3c-6.4-22.8,7-46.4,29.7-52.8C48.9,6.8,60,7.9,69.6,12.9
				c1.2,0.6,1.6,2,1,3.2c-0.6,1.2-2.1,1.6-3.2,1c-8.6-4.4-18.4-5.4-27.7-2.8C19.6,19.9,7.7,41,13.4,61.2s26.7,32.1,46.9,26.4
				s32.1-26.7,26.4-46.9c-1.1-3.9-2.8-7.6-5-10.9c-0.7-1.1-0.4-2.6,0.7-3.3c1.1-0.7,2.6-0.4,3.3,0.7c2.5,3.8,4.4,7.9,5.6,12.3
				c6.4,22.8-7,46.5-29.7,52.8C57.8,93.3,53.9,93.8,50.1,93.8z"/>
		</g>
		<g>
			<g>
				<path class="st2" d="M105.7,57"/>
			</g>
		</g>
	</g>
	<g>
		<g>
			<path class="st1" d="M30.3,80.8l3.6-37.1c0.1-1.3,1.3-2.3,2.6-2.2c1.3,0.1,2.3,1.3,2.2,2.6L36,71.7l26.4-15.9
				c1.1-0.7,2.6-0.3,3.3,0.8c0.7,1.1,0.3,2.6-0.8,3.3L30.3,80.8z"/>
		</g>
		<g>
			<path class="st1" d="M36.4,72.4c-0.5,0-1-0.2-1.5-0.5c-1-0.8-1.2-2.3-0.4-3.4L74.9,18c0.8-1,2.3-1.2,3.4-0.4
				c1,0.8,1.2,2.3,0.4,3.4L38.3,71.5C37.8,72.1,37.1,72.4,36.4,72.4z"/>
		</g>
	</g>
</g>
</svg>
