<?xml version="1.0" encoding="utf-8"?>
<!-- Generator: Adobe Illustrator 25.1.0, SVG Export Plug-In . SVG Version: 6.00 Build 0)  -->
<!DOCTYPE svg PUBLIC "-//W3C//DTD SVG 1.1//EN" "http://www.w3.org/Graphics/SVG/1.1/DTD/svg11.dtd" [
	<!ENTITY ns_extend "http://ns.adobe.com/Extensibility/1.0/">
	<!ENTITY ns_ai "http://ns.adobe.com/AdobeIllustrator/10.0/">
	<!ENTITY ns_graphs "http://ns.adobe.com/Graphs/1.0/">
	<!ENTITY ns_vars "http://ns.adobe.com/Variables/1.0/">
	<!ENTITY ns_imrep "http://ns.adobe.com/ImageReplacement/1.0/">
	<!ENTITY ns_sfw "http://ns.adobe.com/SaveForWeb/1.0/">
	<!ENTITY ns_custom "http://ns.adobe.com/GenericCustomNamespace/1.0/">
	<!ENTITY ns_adobe_xpath "http://ns.adobe.com/XPath/1.0/">
]>
<svg version="1.1" xmlns:x="&ns_extend;" xmlns:i="&ns_ai;" xmlns:graph="&ns_graphs;"
	 xmlns="http://www.w3.org/2000/svg" xmlns:xlink="http://www.w3.org/1999/xlink" x="0px" y="0px" viewBox="0 0 95 83.7"
	 style="enable-background:new 0 0 95 83.7;" xml:space="preserve">
<style type="text/css">
	.st0{fill:#2BA5CA;}
</style>
<metadata>
	<sfw  xmlns="&ns_sfw;">
		<slices></slices>
		<sliceSourceBounds  bottomLeftOrigin="true" height="83.7" width="95" x="2.5" y="33.1"></sliceSourceBounds>
	</sfw>
</metadata>
<g id="Layer_2">
</g>
<g id="Layer_1">
	<path class="st0" d="M93.2,64.3L58.5,6.2C56.2,2.3,52.1,0,47.5,0s-8.7,2.3-11,6.2L1.8,64.3c-2.4,4-2.4,8.8-0.1,12.9
		s6.5,6.5,11.1,6.5h69.4c4.7,0,8.8-2.4,11.1-6.5S95.6,68.3,93.2,64.3z M47.5,70.1c-3,0-5.4-2.4-5.4-5.4c0-3,2.4-5.4,5.4-5.4
		s5.4,2.4,5.4,5.4C52.9,67.7,50.5,70.1,47.5,70.1z M53.3,29l-1.9,22.3c-0.2,2.1-2.1,3.7-4.2,3.5c-1.9-0.2-3.4-1.7-3.5-3.5L41.8,29
		c-0.3-3.2,2.1-6,5.3-6.3s6,2.1,6.3,5.3C53.3,28.3,53.3,28.7,53.3,29z"/>
</g>
</svg>
