<?xml version="1.0" encoding="utf-8"?>
<!-- Generator: Adobe Illustrator 25.3.1, SVG Export Plug-In . SVG Version: 6.00 Build 0)  -->
<svg version="1.1" id="Layer_1" xmlns="http://www.w3.org/2000/svg" xmlns:xlink="http://www.w3.org/1999/xlink" x="0px" y="0px"
	 viewBox="0 0 90 79.3" style="enable-background:new 0 0 90 79.3;" xml:space="preserve">
<style type="text/css">
	.st0{fill:#FFFFFF;}
</style>
<path class="st0" d="M5.2,79.3h79.7c2.8,0,5.1-2.3,5.1-5.1c0-0.9-0.2-1.8-0.7-2.6l-39.8-69c-1.4-2.5-4.6-3.3-7-1.9
	c-0.8,0.5-1.4,1.1-1.9,1.9l-39.8,69c-1.4,2.5-0.6,5.6,1.9,7C3.4,79.1,4.2,79.3,5.2,79.3z M45,69.7c-2.8,0-5.1-2.3-5.1-5.1
	c0-2.8,2.3-5.1,5.1-5.1s5.1,2.3,5.1,5.1c0,0,0,0,0,0C50.1,67.5,47.8,69.7,45,69.7C45,69.7,45,69.7,45,69.7L45,69.7z M45,20.6
	c3,0,5.5,2.5,5.5,5.5c0,0.1,0,0.2,0,0.2l-1,23.6c-0.1,2.5-2.2,4.4-4.7,4.3c-2.3-0.1-4.2-2-4.3-4.3l-1-23.6c-0.1-3,2.2-5.6,5.3-5.7
	C44.8,20.6,44.9,20.6,45,20.6L45,20.6z"/>
</svg>
