<?xml version="1.0" encoding="utf-8"?>
<!-- Generator: Adobe Illustrator 25.3.1, SVG Export Plug-In . SVG Version: 6.00 Build 0)  -->
<svg version="1.1" id="Layer_1" xmlns="http://www.w3.org/2000/svg" xmlns:xlink="http://www.w3.org/1999/xlink" x="0px" y="0px"
	 viewBox="0 0 128 126" style="enable-background:new 0 0 128 126;" xml:space="preserve">
<style type="text/css">
	.st0{fill:#00B5E2;}
	.st1{fill:#FFFFFF;}
	.st2{fill-rule:evenodd;clip-rule:evenodd;fill:#00B5E2;}
</style>
<g>
	<path class="st0" d="M37.1,3h11.7L59,46.5c0,0.1,0,0.1,0,0.2c0,0.1,0.1,0.2,0.1,0.3c0.1,0.1,0.1,0.2,0.2,0.3l0.1,0.1
		c0.1,0.1,0.2,0.1,0.3,0.2l0.1,0.1c0.2,0.1,0.3,0.1,0.5,0.1H117c0.7,0,1.4-0.5,1.6-1.2l7.9-33.6c0.2-0.8-0.3-1.7-1.2-1.9
		c-0.1,0-0.3,0-0.4,0H54l-2.3-9.9C51.5,0.5,50.9,0,50.1,0h-13c-0.9,0-1.6,0.7-1.6,1.6S36.3,3,37.1,3z M87.4,44.6H75.8l-1.3-13.3
		h12.8L87.4,44.6L87.4,44.6z M108.8,14.2h14.4l-3.3,13.9h-12.7L108.8,14.2z M119.1,31.3L116,44.6h-10.7l1.6-13.3
		C106.9,31.3,119.1,31.3,119.1,31.3z M90.5,14.2h15.1L104,28.1H90.5V14.2z M90.5,31.3h13.1L102,44.6H90.5V31.3z M87.4,14.2v13.9
		H74.3L73,14.2H87.4z M72.7,44.6H61.9l-0.3-0.9l-2.9-12.4h12.7L72.7,44.6z M69.8,14.2l1.3,13.9H58l-3.3-13.9H69.8z"/>
	<path class="st0" d="M116.5,56.3c0-0.9-0.7-1.6-1.6-1.6H80.6c-0.9,0-1.6,0.7-1.6,1.6c0,0.9,0.7,1.6,1.6,1.6h34.3
		C115.8,57.9,116.5,57.2,116.5,56.3z"/>
	<path class="st0" d="M95.9,69.3c0,5,4.1,9.1,9.1,9.1s9.1-4.1,9.1-9.1s-4.1-9.1-9.1-9.1l0,0C100,60.2,95.9,64.2,95.9,69.3z
		 M110.9,69.3c0,3.3-2.7,5.9-5.9,5.9c-3.3,0-5.9-2.7-5.9-5.9c0-3.3,2.7-5.9,5.9-5.9l0,0C108.3,63.3,110.9,65.9,110.9,69.3
		C111,69.2,111,69.2,110.9,69.3L110.9,69.3z"/>
</g>
<path class="st0" d="M126.3,47.9c-0.5-2-1-4-1.7-5.9c-0.2-0.5-0.7-0.8-1.3-0.6c-0.5,0.2-0.8,0.7-0.6,1.3c0.6,1.9,1.2,3.8,1.6,5.8
	c7.7,33.3-13,66.6-46.4,74.4c-1.9,0.4-3.8,0.8-5.7,1.1c-0.6,0-1,0.5-0.9,1.1c0,0.6,0.5,1,1.1,0.9h0.1c2-0.3,4-0.6,5.9-1.1
	C112.9,116.7,134.4,82.3,126.3,47.9C126.4,47.9,126.4,47.9,126.3,47.9L126.3,47.9z"/>
<ellipse class="st1" cx="52.7" cy="56.3" rx="36.4" ry="24.2"/>
<path class="st0" d="M1,62.5L1,62.5c0.6,0,1-0.4,1-1c0.3-22.7,13-43.4,33-54c0.5-0.2,0.7-0.8,0.5-1.3s-0.8-0.7-1.3-0.5l0,0
	C13.4,16.6,0.3,38,0,61.5C0,62,0.5,62.5,1,62.5L1,62.5z"/>
<g>
	<path class="st2" d="M79.1,99.2c-3.6,2.2-7.8,3.9-12.4,5C72,99.6,75,94,75,88.1v-1.8c0.8-0.4,1.5-0.8,2.2-1.3
		c4.3-2.6,7.6-5.6,9.9-9c1.8,2.5,2.7,5.2,2.7,8C89.7,89.7,85.9,95.1,79.1,99.2L79.1,99.2L79.1,99.2z M87.9,97.1
		c0,3.8-2,7.4-5.7,10.5v-6.3c2.3-1.5,4.2-3.1,5.7-4.8V97.1L87.9,97.1z M80.6,108.8c-0.5,0.4-1.1,0.8-1.7,1.1c-1.7,1-3.5,1.9-5.4,2.7
		v-7.1c2.5-0.9,4.9-2,7.1-3.2V108.8L80.6,108.8z M72,113.1c-2.2,0.8-4.6,1.4-7.1,1.8v-7.4c2.4-0.4,4.8-0.9,7.1-1.6V113.1L72,113.1z
		 M63.6,100.1c-0.5,0.4-1.1,0.8-1.7,1.1c-1.7,1-3.5,1.9-5.4,2.7v-7.2c2.5-0.9,4.9-2,7.1-3.2L63.6,100.1L63.6,100.1z M63.4,115.2
		c-2.3,0.3-4.7,0.5-7.1,0.5v-6.8c0.6-0.2,1.2-0.4,1.8-0.7c1.8-0.1,3.5-0.2,5.3-0.4V115.2L63.4,115.2z M52.4,87.7v-7.4
		c2.4,0,4.8-0.2,7.1-0.5v7.4C57.1,87.5,54.8,87.7,52.4,87.7L52.4,87.7L52.4,87.7z M41.1,96.2c-9.8,0-19-2.3-25.9-6.5
		c-6.5-3.9-10-9-10-14.3c0-5.1,3.4-10.1,9.5-13.9v5.8c0,7.2,4.4,13.8,12.5,18.7c7.7,4.6,17.8,7.2,28.6,7.2c1.4,0,2.8,0,4.1-0.1
		C54.3,95.1,47.8,96.2,41.1,96.2L41.1,96.2L41.1,96.2z M55,104.4c-2.2,0.8-4.6,1.4-7.1,1.8v-7.4c2.4-0.4,4.8-0.9,7.1-1.6V104.4
		L55,104.4z M54.8,115.7c-2.4,0-4.8-0.3-7.1-0.6V111c2.4-0.4,4.8-0.9,7.1-1.6V115.7L54.8,115.7z M46.4,106.5
		c-2.3,0.3-4.7,0.5-7.1,0.5v-7.4c2.4,0,4.8-0.2,7.1-0.5V106.5L46.4,106.5z M46.2,114.8c-2.5-0.5-4.8-1.1-7.1-1.9v-1.2
		c2.4,0,4.8-0.2,7.1-0.4V114.8L46.2,114.8z M37.8,107c-2.4,0-4.8-0.3-7.1-0.6V99c2.3,0.3,4.7,0.5,7.1,0.6V107L37.8,107z M29.2,106.1
		c-2.5-0.5-4.8-1.1-7.1-1.9V97c2.3,0.7,4.6,1.3,7.1,1.7V106.1L29.2,106.1z M20.6,103.6c-1.6-0.7-3.2-1.5-4.6-2.4
		c-0.9-0.5-1.7-1.1-2.4-1.7V93l0,0c2.1,1.3,4.5,2.4,7,3.4V103.6L20.6,103.6z M12,98.3c-3.2-3-5-6.4-5-9.9v-0.7c1.4,1.6,3,3,5,4.4
		V98.3L12,98.3z M18.2,66.2c1.9,1.9,4.1,5,6.8,6.6v6.1c-4.4-3.6-6.8-7.7-6.8-12V66.2L18.2,66.2z M33.6,77.2v7.1
		c-1.6-0.7-3.2-1.5-4.6-2.4c-0.9-0.5-1.7-1.1-2.4-1.7v-6.5l0,0C28.7,75.1,31.1,76.2,33.6,77.2L33.6,77.2L33.6,77.2z M42.2,79.4v7.4
		c-2.5-0.5-4.8-1.1-7.1-1.9v-7.2C37.4,78.4,39.8,79,42.2,79.4L42.2,79.4L42.2,79.4z M50.8,80.2v7.5c-2.4,0-4.8-0.3-7.1-0.6v-7.4
		C46.1,80,48.4,80.2,50.8,80.2L50.8,80.2L50.8,80.2z M69.6,84.6v-7.1c2.5-0.9,4.9-2,7.1-3.2v6.6c-0.5,0.4-1.1,0.8-1.7,1.1
		C73.3,82.9,71.5,83.8,69.6,84.6L69.6,84.6L69.6,84.6z M61,86.9v-7.4c2.4-0.4,4.8-0.9,7.1-1.6v7.2C65.8,85.9,63.4,86.5,61,86.9
		L61,86.9L61,86.9z M65.2,92.6c1.4-0.9,2.6-1.9,3.8-2.9c0.6-0.2,1.3-0.4,1.9-0.7c-0.2,3.6-2.2,7-5.7,9.9L65.2,92.6L65.2,92.6z
		 M83.9,68.4v0.7c0,3.8-2,7.4-5.7,10.5v-6.3C80.4,71.8,82.3,70.2,83.9,68.4L83.9,68.4L83.9,68.4z M27.8,43c6.5-4,15.3-6.2,24.7-6.2
		s16.3,2,22.8,6c6.2,3.8,9,9.4,9,14.5s-1,9.5-7.2,13.3c-6.5,4-15.3,6.2-24.7,6.2s-18.1-2.2-24.7-6.2c-6.2-3.8-9.6-8.7-9.6-13.8
		S21.6,46.8,27.8,43L27.8,43L27.8,43z M86.9,72.5c0.4-1.4,0.7-2.9,0.7-4.4V56.4c0-6.2-3.9-12-10.9-16.3C70,36,61.2,33.8,51.9,33.8
		S33.8,36,27.1,40.1s-10.6,9.6-10.9,15.6v2.2c-0.6,0.3-1.2,0.7-1.8,1C7.7,63,3.8,68.5,3.5,74.5V87c0,6.2,3.9,12,10.9,16.3
		c3.4,2.1,7.4,3.7,11.7,4.7c1.4,1.3,3,2.6,4.9,3.7c6.7,4.1,15.5,6.3,24.8,6.3s18.1-2.2,24.8-6.3c7-4.3,10.9-10.1,10.9-16.3V83.6
		C91.4,79.7,89.9,75.9,86.9,72.5L86.9,72.5L86.9,72.5z"/>
</g>
</svg>
