<?xml version="1.0" encoding="utf-8"?>
<!-- Generator: Adobe Illustrator 25.2.1, SVG Export Plug-In . SVG Version: 6.00 Build 0)  -->
<!DOCTYPE svg PUBLIC "-//W3C//DTD SVG 1.1//EN" "http://www.w3.org/Graphics/SVG/1.1/DTD/svg11.dtd" [
	<!ENTITY ns_extend "http://ns.adobe.com/Extensibility/1.0/">
	<!ENTITY ns_ai "http://ns.adobe.com/AdobeIllustrator/10.0/">
	<!ENTITY ns_graphs "http://ns.adobe.com/Graphs/1.0/">
	<!ENTITY ns_vars "http://ns.adobe.com/Variables/1.0/">
	<!ENTITY ns_imrep "http://ns.adobe.com/ImageReplacement/1.0/">
	<!ENTITY ns_sfw "http://ns.adobe.com/SaveForWeb/1.0/">
	<!ENTITY ns_custom "http://ns.adobe.com/GenericCustomNamespace/1.0/">
	<!ENTITY ns_adobe_xpath "http://ns.adobe.com/XPath/1.0/">
]>
<svg version="1.1" id="Layer_1" xmlns:x="&ns_extend;" xmlns:i="&ns_ai;" xmlns:graph="&ns_graphs;"
	 xmlns="http://www.w3.org/2000/svg" xmlns:xlink="http://www.w3.org/1999/xlink" x="0px" y="0px" viewBox="0 0 94.9 94.9"
	 style="enable-background:new 0 0 94.9 94.9;" xml:space="preserve">
<style type="text/css">
	.st0{fill:#FFFFFF;}
</style>
<metadata>
	<sfw  xmlns="&ns_sfw;">
		<slices></slices>
		<sliceSourceBounds  bottomLeftOrigin="true" height="94.9" width="94.9" x="-66.7" y="47.6"></sliceSourceBounds>
	</sfw>
</metadata>
<g>
	<path class="st0" d="M64.8,42.3h-12v-12c0-2.9-2.3-5.2-5.2-5.2s-5.2,2.3-5.2,5.2v12h-12c-2.9,0-5.2,2.3-5.2,5.2s2.3,5.2,5.2,5.2h12
		v12c0,2.9,2.3,5.2,5.2,5.2s5.2-2.3,5.2-5.2v-12h12c2.9,0,5.2-2.3,5.2-5.2S67.7,42.3,64.8,42.3z"/>
	<path class="st0" d="M72.3,0H22.7C10.2,0,0,10.2,0,22.7v49.5c0,12.5,10.2,22.7,22.7,22.7h49.5c12.5,0,22.7-10.2,22.7-22.7V22.7
		C95,10.2,84.8,0,72.3,0z M84.5,72.3c0,6.7-5.5,12.2-12.2,12.2H22.7c-6.7,0-12.2-5.5-12.2-12.2V22.7c0-6.7,5.5-12.2,12.2-12.2h49.5
		c6.8,0,12.3,5.5,12.3,12.2V72.3z"/>
</g>
</svg>
