<?xml version="1.0" encoding="utf-8"?>
<!-- Generator: Adobe Illustrator 25.3.1, SVG Export Plug-In . SVG Version: 6.00 Build 0)  -->
<svg version="1.1" id="Layer_1" xmlns="http://www.w3.org/2000/svg" xmlns:xlink="http://www.w3.org/1999/xlink" x="0px" y="0px"
	 viewBox="0 0 2053.9 2053.8" style="enable-background:new 0 0 2053.9 2053.8;" xml:space="preserve">
<style type="text/css">
	.st0{fill:#010101;}
	.st1{fill:#FFFFFF;}
	.st2{stroke:#FFFFFF;stroke-width:18;stroke-miterlimit:10;}
	.st3{fill:#FFFFFF;stroke:#FFFFFF;stroke-width:18;stroke-miterlimit:10;}
	.st4{stroke:#FFFFFF;stroke-width:27;stroke-miterlimit:10;}
</style>
<g>
	<g>
		<g>
			<g>
				<g id="XMLID_26_">
					<path class="st0" d="M1848.6,1101.4c-4.1,510.5-419,921.3-927.4,919.3c-252.2-2-478-103.7-642.7-268.5
						c-170.8-170.8-274.6-404.7-272.5-663c4.1-510.5,419-923.4,927.4-919.3C1441.8,174,1850.6,588.9,1848.6,1101.4z"/>
				</g>
				<g>
					<path class="st1" d="M485.9,1408.5l-203.4,347.8c0,0,83.4,113.9,319.3,205.4l118-319.3l79.3-213.6l81.4-235.9l28.5-77.3
						l4.1-8.1c0,0,2-2,2-4.1l2-2l0,0h2h2l2,2l4.1,6.1l8.1,22.4l16.3,44.7l54.9,168.8l48.8,150.5l75.3,229.8l59,160.7l30.5,89.5
						c0,0,187.1-50.8,345.8-209.5l-115.9-174.9l-75.3-128.1l-75.3-148.5l-63-130.2l-48.8-118l-40.7-118L1108.2,835l-40.7-130.2
						l-40.7-136.3l-36.6-134.2l-40.7-150.5l-22.4-73.2l-44.7,142.4l-61,199.3l-48.8,152.5l-56.9,168.8l-48.8,138.3L614,1146.1
						l-59,128.1L485.9,1408.5z"/>
				</g>
			</g>
		</g>
	</g>
	<g>
		<g>
			<path class="st2" d="M1245,45.4h78.4c33.9,0,61.4,27.5,61.4,61.4v483.8c0,3.5,2.8,6.3,6.3,6.3h326.7c3.5,0,6.3,2.8,6.3,6.3V750
				c0,3.5-2.8,6.3-6.3,6.3h-482.8c-28.3,0-51.2-22.9-51.2-51.2V106.7C1183.6,72.8,1211.1,45.4,1245,45.4z"/>
			<path class="st3" d="M1717.6,768.5h-482.8c-35,0-63.4-28.5-63.4-63.4V106.7c0-40.6,33-73.6,73.6-73.6h78.4
				c40.6,0,73.6,33,73.6,73.6v477.8h320.7c10.2,0,18.5,8.3,18.5,18.5V750C1736.2,760.2,1727.8,768.5,1717.6,768.5z M1245,57.6
				c-27.1,0-49.1,22-49.1,49.1v598.3c0,21.5,17.5,38.9,38.9,38.9h476.8V609.1H1391c-10.2,0-18.5-8.3-18.5-18.5V106.7
				c0-27.1-22-49.1-49.1-49.1H1245z"/>
		</g>
	</g>
	<g>
		<g>
			<path class="st4" d="M2035.7,858L2035.7,858c0,44-35.7,79.7-79.7,79.7h-427.5c-25.5,0-46.3-20.7-46.3-46.3v-53.2
				c0-16.9,7-33,19.3-44.6l246.7-230.7c56.9-52.8,65-85.3,65-114.8c0-45.7-30.5-73.1-91.4-73.1c-34.5,0-66.8,10.4-92.9,30.8
				c-25.4,19.9-59.7,23.9-87.9,8.2l-4.2-2.3c-53.1-29.6-57.7-105.2-7.7-139.6c54.4-37.5,125.3-59.5,211-59.5
				c163.5,0,276.2,84.3,276.2,216.3c0,69.1-19.3,132-120.9,225.5l-134.1,123.9H1956C2000.1,778.2,2035.7,813.9,2035.7,858z"/>
			<path class="st3" d="M1956,949.9h-427.5c-32.3,0-58.5-26.3-58.5-58.5v-53.2c0-20.2,8.5-39.7,23.2-53.5L1740,554
				c56.4-52.4,61.1-82.1,61.1-105.8c0-40.4-26.6-60.8-79.1-60.8c-32.3,0-61.8,9.8-85.3,28.2c-29.8,23.4-69.6,27-101.4,9.2l-4.2-2.3
				c-29-16.2-47.3-45.7-48.8-79c-1.5-32.6,13.5-63.1,40.2-81.5c59.4-40.9,132.7-61.7,217.9-61.7c172.6,0,288.5,91.9,288.5,228.6
				c0,73.9-20.9,138.9-124.8,234.5l-111,102.6H1956c50.7,0,92,41.3,92,92C2048,908.7,2006.7,949.9,1956,949.9z M1721.9,362.8
				c65.9,0,103.7,31.1,103.7,85.4c0,35.9-11.7,70.6-68.9,123.7L1510,802.6c-9.8,9.2-15.5,22.2-15.5,35.6v53.2c0,18.7,15.3,34,34,34
				H1956c37.2,0,67.5-30.3,67.5-67.4v0c0-37.2-30.3-67.5-67.5-67.5h-225.8l157.1-145.2c97.4-89.6,116.9-149.2,116.9-216.4
				c0-124-103.6-204-264-204c-80.1,0-148.8,19.3-204,57.3c-19.7,13.5-30.7,36-29.6,60.1c1.2,24.7,14.7,46.7,36.3,58.7l4.2,2.3
				c23.2,12.9,52.4,10.1,74.3-7.1C1649.4,374.4,1684.1,362.8,1721.9,362.8z"/>
		</g>
	</g>
</g>
</svg>
