<?xml version="1.0" encoding="utf-8"?>
<!-- Generator: Adobe Illustrator 25.3.1, SVG Export Plug-In . SVG Version: 6.00 Build 0)  -->
<svg version="1.1" id="Layer_1" xmlns="http://www.w3.org/2000/svg" xmlns:xlink="http://www.w3.org/1999/xlink" x="0px" y="0px"
	 viewBox="0 0 90.6 91" style="enable-background:new 0 0 90.6 91;" xml:space="preserve">
<style type="text/css">
	.st0{fill:#010101;}
	.st1{fill:#FFFFFF;}
</style>
<g>
	<path class="st0" d="M29.3,88.1L29.3,88.1l1-2.6L29.3,88.1z"/>
	<path class="st0" d="M90.6,45.8c0.1-25.2-20-45.6-45-45.8S0.2,20.1,0,45.2c-0.1,12.7,5,24.2,13.4,32.6c0.1,0.1,0.1,0.1,0.2,0.2
		l10-17.1l3.4-6.6l2.9-6.3l2.6-6.6l2.4-6.8l2.8-8.3l2.4-7.5l3-9.8l2.2-7l1.1,3.6l2,7.4l1.8,6.6l2,6.7l2,6.4l1.9,5.6l2,5.8l2.4,5.8
		l3.1,6.4l3.7,7.3l3.7,6.3l5.6,8.4C85.1,70.1,90.5,58.6,90.6,45.8z"/>
	<path class="st0" d="M55.3,76.5l-3.7-11.3l-2.4-7.4l-2.7-8.3l-0.8-2.2l-0.4-1.1l-0.2-0.3L45,45.8h-0.1h-0.1l-0.1,0.1
		c0,0.1-0.1,0.2-0.1,0.2l-0.2,0.4L43,50.3l-4,11.6l-3.9,10.5l-4.8,13.1l-0.9,2.6C34.2,89.9,39.5,91,45,91c5.1,0,10-0.8,14.6-2.4
		l-1.4-4.2L55.3,76.5z"/>
	<path class="st1" d="M13.6,78c0,0,3.7,5,14,9.4C22.3,85.2,17.6,81.9,13.6,78L13.6,78z"/>
</g>
<g>
	<circle class="st1" cx="67" cy="23.6" r="22.6"/>
	<path d="M67,47.1c-13,0-23.6-10.6-23.6-23.6C43.5,10.6,54,0,67,0s23.6,10.6,23.6,23.6C90.6,36.6,80,47.1,67,47.1z M67,2
		c-11.9,0-21.6,9.7-21.6,21.6S55.2,45.1,67,45.1s21.6-9.7,21.6-21.6S78.9,2,67,2z"/>
</g>
<g>
	<path d="M75.9,29.8c0.5,0.4,0.7,1,0.7,1.9c0,0.9-0.2,1.5-0.7,1.9s-1.2,0.6-2.3,0.6H61c-0.8,0-1.5-0.2-2-0.7
		c-0.5-0.5-0.7-1.1-0.7-1.9c0-1,0.4-1.9,1.2-2.7l7.3-7.6c1.5-1.6,2.3-3.1,2.3-4.4c0-0.8-0.2-1.4-0.7-1.8s-1.1-0.6-1.9-0.6
		c-0.7,0-1.3,0.1-1.8,0.3c-0.6,0.2-1.2,0.5-2,0.8L62,16c-0.1,0-0.3,0.1-0.5,0.3s-0.5,0.3-0.7,0.3c-0.2,0.1-0.4,0.1-0.7,0.1
		c-0.6,0-1.1-0.3-1.5-0.8c-0.4-0.5-0.6-1.1-0.6-1.8c0-0.5,0.1-0.9,0.2-1.2c0.1-0.3,0.4-0.6,0.8-0.9c1.1-0.7,2.3-1.3,3.6-1.7
		c1.3-0.4,2.7-0.6,4-0.6c1.7,0,3.2,0.3,4.5,0.8c1.3,0.6,2.3,1.4,3,2.4c0.7,1,1.1,2.3,1.1,3.6c0,1.4-0.3,2.7-0.8,3.9
		c-0.6,1.2-1.5,2.5-2.9,3.9l-4.9,5h6.9C74.7,29.2,75.4,29.4,75.9,29.8z"/>
</g>
</svg>
