<?xml version="1.0" encoding="utf-8"?>
<!-- Generator: Adobe Illustrator 26.0.2, SVG Export Plug-In . SVG Version: 6.00 Build 0)  -->
<svg version="1.1" id="artwork" xmlns="http://www.w3.org/2000/svg" xmlns:xlink="http://www.w3.org/1999/xlink" x="0px" y="0px"
	 viewBox="0 0 362.7 108.8" style="enable-background:new 0 0 362.7 108.8;" xml:space="preserve">
<style type="text/css">
	.st0{fill:#B6B6B6;}
	.st1{fill:#FFFFFF;}
</style>
<desc>Created with Sketch.</desc>
<g>
	<g>
		<path class="st0" d="M337.1,0H25.6c-1,0-2,0-2.9,0c-0.8,0-1.6,0-2.5,0c-1.8,0-3.6,0.2-5.4,0.5C13,0.8,11.3,1.4,9.7,2.2
			C8.1,3,6.6,4.1,5.4,5.4C4.1,6.6,3,8.1,2.2,9.7c-0.8,1.6-1.4,3.3-1.7,5.1c-0.3,1.8-0.4,3.6-0.5,5.4c0,0.8,0,1.6,0,2.5
			c0,1,0,1.9,0,2.9v57.6c0,1,0,2,0,2.9c0,0.8,0,1.6,0,2.5c0,1.8,0.2,3.6,0.5,5.4c0.3,1.8,0.8,3.5,1.7,5.1c0.8,1.6,1.9,3.1,3.2,4.3
			c1.3,1.3,2.7,2.3,4.3,3.2c1.6,0.8,3.3,1.4,5.1,1.7c1.8,0.3,3.6,0.4,5.4,0.5c0.8,0,1.6,0,2.5,0c1,0,2,0,2.9,0h311.5
			c1,0,1.9,0,2.9,0c0.8,0,1.7,0,2.5,0c1.8,0,3.6-0.2,5.4-0.5c1.8-0.3,3.5-0.9,5.1-1.7c1.6-0.8,3.1-1.9,4.3-3.2
			c1.3-1.3,2.3-2.7,3.2-4.3c0.8-1.6,1.4-3.3,1.7-5.1c0.3-1.8,0.4-3.6,0.5-5.4c0-0.8,0-1.6,0-2.5c0-1,0-1.9,0-2.9V25.6c0-1,0-2,0-2.9
			c0-0.8,0-1.6,0-2.5c-0.1-1.8-0.2-3.6-0.5-5.4c-0.3-1.8-0.8-3.5-1.7-5.1c-0.8-1.6-1.9-3.1-3.2-4.4c-1.3-1.3-2.7-2.3-4.3-3.2
			c-1.7-0.8-3.3-1.4-5.1-1.7c-1.8-0.3-3.6-0.4-5.4-0.5c-0.8,0-1.7,0-2.5,0C339.1,0,338.1,0,337.1,0L337.1,0z"/>
		<path d="M22.7,106.5c-0.8,0-1.6,0-2.4,0c-1.5,0-3.3-0.1-5-0.4c-1.6-0.3-3.1-0.8-4.4-1.5c-1.4-0.7-2.7-1.6-3.8-2.7
			c-1.1-1.1-2-2.3-2.7-3.8c-0.7-1.4-1.2-2.8-1.5-4.5c-0.3-1.8-0.4-3.6-0.4-5c0-0.6,0-2.5,0-2.5V22.7c0,0,0-1.9,0-2.4
			c0-1.4,0.1-3.2,0.4-5c0.3-1.6,0.8-3.1,1.5-4.5C5,9.4,5.9,8.1,7,7c1.1-1.1,2.4-2,3.8-2.7c1.4-0.7,2.8-1.2,4.4-1.5
			c1.8-0.3,3.6-0.4,5-0.4l2.4,0H340l2.5,0c1.4,0,3.2,0.1,5,0.4c1.6,0.3,3.1,0.8,4.5,1.5c1.4,0.7,2.6,1.6,3.7,2.7
			c1.1,1.1,2,2.4,2.7,3.8c0.7,1.4,1.2,2.8,1.4,4.4c0.3,1.7,0.4,3.4,0.5,5.1c0,0.8,0,1.6,0,2.4c0,1,0,2,0,2.9v57.6c0,1,0,1.9,0,2.9
			c0,0.9,0,1.7,0,2.5c-0.1,1.6-0.2,3.3-0.5,5c-0.3,1.6-0.8,3.1-1.5,4.5c-0.7,1.4-1.6,2.7-2.7,3.7c-1.1,1.1-2.4,2-3.8,2.7
			c-1.4,0.7-2.8,1.2-4.5,1.5c-1.7,0.3-3.5,0.4-5,0.4c-0.8,0-1.6,0-2.4,0l-2.9,0L22.7,106.5z"/>
	</g>
	<g>
		<g>
			<path class="st1" d="M145.1,82h-4.7c-0.5,0-1-0.1-1.3-0.4c-0.3-0.3-0.6-0.6-0.7-1L136,74h-13.5l-2.4,6.6
				c-0.1,0.3-0.4,0.7-0.7,0.9c-0.4,0.3-0.8,0.4-1.3,0.4h-4.7l12.8-32.5h6.2L145.1,82z M124,69.7h10.4l-4-10.8
				c-0.2-0.5-0.4-1-0.6-1.7c-0.2-0.7-0.4-1.4-0.6-2.1c-0.2,0.8-0.4,1.5-0.6,2.1c-0.2,0.7-0.4,1.2-0.6,1.7L124,69.7z"/>
			<path class="st1" d="M147,82V58.9h3.4c0.7,0,1.2,0.3,1.4,1l0.4,1.8c0.5-0.5,1-0.9,1.5-1.3s1.1-0.7,1.6-1c0.6-0.3,1.2-0.5,1.9-0.7
				c0.7-0.2,1.4-0.2,2.2-0.2c1.3,0,2.4,0.2,3.4,0.6c1,0.4,1.8,1,2.4,1.8c0.7,0.8,1.1,1.7,1.5,2.8c0.3,1.1,0.5,2.3,0.5,3.5V82h-5.6
				V67.3c0-1.4-0.3-2.5-1-3.3c-0.7-0.8-1.6-1.2-2.9-1.2c-1,0-1.9,0.2-2.7,0.7c-0.8,0.4-1.6,1-2.4,1.8V82H147z"/>
			<path class="st1" d="M187.6,82c-0.7,0-1.2-0.3-1.4-1l-0.4-2.2c-0.5,0.5-1,1-1.5,1.5c-0.5,0.4-1.1,0.8-1.7,1.1
				c-0.6,0.3-1.3,0.6-2,0.7c-0.7,0.2-1.4,0.3-2.3,0.3c-1.3,0-2.4-0.3-3.5-0.8s-2-1.3-2.7-2.3c-0.8-1-1.3-2.2-1.8-3.7
				c-0.4-1.5-0.6-3.1-0.6-5c0-1.7,0.2-3.3,0.7-4.8c0.5-1.5,1.1-2.7,2-3.8c0.9-1.1,1.9-1.9,3.1-2.5c1.2-0.6,2.6-0.9,4.1-0.9
				c1.3,0,2.4,0.2,3.3,0.6c0.9,0.4,1.7,1,2.5,1.7V48.6h5.6V82H187.6z M180.2,77.9c1.2,0,2.1-0.2,2.9-0.7c0.8-0.5,1.6-1.2,2.3-2V64.8
				c-0.6-0.8-1.3-1.3-2.1-1.6c-0.7-0.3-1.5-0.5-2.4-0.5c-0.8,0-1.6,0.2-2.3,0.5c-0.7,0.3-1.3,0.8-1.7,1.4c-0.5,0.6-0.8,1.4-1.1,2.4
				s-0.4,2.1-0.4,3.5c0,1.3,0.1,2.5,0.3,3.4c0.2,0.9,0.5,1.7,0.9,2.3c0.4,0.6,0.9,1,1.5,1.3S179.5,77.9,180.2,77.9z"/>
			<path class="st1" d="M195.8,82V58.9h3.3c0.6,0,1,0.1,1.2,0.3c0.2,0.2,0.4,0.6,0.4,1.1l0.3,2.8c0.8-1.4,1.8-2.5,2.9-3.4
				s2.4-1.2,3.7-1.2c1.1,0,2.1,0.3,2.8,0.8l-0.7,4.2c0,0.3-0.1,0.5-0.3,0.6c-0.1,0.1-0.4,0.2-0.6,0.2c-0.2,0-0.5-0.1-0.9-0.2
				c-0.4-0.1-0.9-0.2-1.6-0.2c-1.2,0-2.1,0.3-3,1c-0.8,0.6-1.5,1.6-2.1,2.8V82H195.8z"/>
			<path class="st1" d="M222.9,58.5c1.7,0,3.3,0.3,4.7,0.8c1.4,0.6,2.6,1.3,3.6,2.4s1.8,2.3,2.3,3.7c0.5,1.5,0.8,3.1,0.8,4.9
				c0,1.8-0.3,3.5-0.8,4.9c-0.5,1.5-1.3,2.7-2.3,3.8c-1,1-2.2,1.8-3.6,2.4c-1.4,0.6-3,0.8-4.7,0.8s-3.3-0.3-4.7-0.8
				c-1.4-0.6-2.6-1.3-3.6-2.4c-1-1-1.8-2.3-2.3-3.8c-0.5-1.5-0.8-3.1-0.8-4.9c0-1.8,0.3-3.5,0.8-4.9c0.5-1.5,1.3-2.7,2.3-3.7
				c1-1,2.2-1.8,3.6-2.4C219.6,58.8,221.2,58.5,222.9,58.5z M222.9,78c1.9,0,3.3-0.6,4.3-1.9c0.9-1.3,1.4-3.2,1.4-5.7
				c0-2.5-0.5-4.4-1.4-5.7c-0.9-1.3-2.3-2-4.3-2c-1.9,0-3.4,0.7-4.3,2c-0.9,1.3-1.4,3.2-1.4,5.7s0.5,4.4,1.4,5.7
				C219.5,77.4,220.9,78,222.9,78z"/>
			<path class="st1" d="M244.2,52.2c0,0.5-0.1,0.9-0.3,1.3c-0.2,0.4-0.5,0.8-0.8,1.1c-0.3,0.3-0.7,0.6-1.1,0.8
				c-0.4,0.2-0.9,0.3-1.4,0.3c-0.5,0-0.9-0.1-1.4-0.3c-0.4-0.2-0.8-0.4-1.1-0.8c-0.3-0.3-0.6-0.7-0.8-1.1c-0.2-0.4-0.3-0.9-0.3-1.3
				c0-0.5,0.1-1,0.3-1.4c0.2-0.4,0.4-0.8,0.8-1.1c0.3-0.3,0.7-0.6,1.1-0.8c0.4-0.2,0.9-0.3,1.4-0.3c0.5,0,1,0.1,1.4,0.3
				c0.4,0.2,0.8,0.4,1.1,0.8c0.3,0.3,0.6,0.7,0.8,1.1C244.1,51.2,244.2,51.7,244.2,52.2z M243.3,58.9V82h-5.6V58.9H243.3z"/>
			<path class="st1" d="M264.7,82c-0.7,0-1.2-0.3-1.4-1l-0.4-2.2c-0.5,0.5-1,1-1.5,1.5c-0.5,0.4-1.1,0.8-1.7,1.1
				c-0.6,0.3-1.3,0.6-2,0.7c-0.7,0.2-1.5,0.3-2.3,0.3c-1.3,0-2.4-0.3-3.5-0.8c-1-0.5-2-1.3-2.7-2.3c-0.8-1-1.3-2.2-1.8-3.7
				c-0.4-1.5-0.6-3.1-0.6-5c0-1.7,0.2-3.3,0.7-4.8c0.5-1.5,1.1-2.7,2-3.8c0.9-1.1,1.9-1.9,3.1-2.5c1.2-0.6,2.6-0.9,4.1-0.9
				c1.3,0,2.4,0.2,3.3,0.6c0.9,0.4,1.7,1,2.5,1.7V48.6h5.6V82H264.7z M257.3,77.9c1.2,0,2.1-0.2,2.9-0.7c0.8-0.5,1.6-1.2,2.3-2V64.8
				c-0.6-0.8-1.3-1.3-2.1-1.6c-0.7-0.3-1.5-0.5-2.4-0.5c-0.8,0-1.6,0.2-2.3,0.5c-0.7,0.3-1.3,0.8-1.7,1.4c-0.5,0.6-0.8,1.4-1.1,2.4
				c-0.3,1-0.4,2.1-0.4,3.5c0,1.3,0.1,2.5,0.3,3.4c0.2,0.9,0.5,1.7,0.9,2.3c0.4,0.6,0.9,1,1.5,1.3C255.9,77.8,256.6,77.9,257.3,77.9
				z"/>
			<path class="st1" d="M285.2,71.5c0.6,0,1.3,0.1,1.9,0.3c0.6,0.2,1.1,0.5,1.6,0.9c0.5,0.4,0.8,0.9,1.1,1.6
				c0.3,0.6,0.4,1.4,0.4,2.2c0,0.8-0.1,1.5-0.4,2.2c-0.3,0.7-0.7,1.3-1.2,1.8c-0.5,0.5-1.1,0.9-1.9,1.2c-0.7,0.3-1.5,0.4-2.4,0.4
				c-0.9,0-1.7-0.1-2.4-0.4c-0.7-0.3-1.3-0.7-1.8-1.2c-0.5-0.5-0.9-1.1-1.2-1.9c-0.3-0.7-0.4-1.5-0.4-2.4c0-0.8,0.2-1.6,0.5-2.4
				c0.3-0.8,0.8-1.7,1.5-2.6l4-5.4c0.1-0.2,0.3-0.3,0.6-0.5c0.3-0.1,0.6-0.2,0.9-0.2h2.6l-5,6.1c-0.1,0.1-0.2,0.3-0.3,0.4
				c-0.1,0.1-0.2,0.2-0.3,0.4c0.3-0.2,0.7-0.3,1.1-0.4C284.4,71.5,284.8,71.5,285.2,71.5z M281.2,76.7c0,0.5,0.1,0.9,0.2,1.3
				c0.1,0.4,0.3,0.7,0.6,1c0.3,0.3,0.6,0.5,0.9,0.6s0.8,0.2,1.3,0.2c0.5,0,0.9-0.1,1.3-0.2c0.4-0.2,0.7-0.4,1-0.6
				c0.3-0.3,0.5-0.6,0.6-1c0.2-0.4,0.2-0.8,0.2-1.2c0-0.5-0.1-0.9-0.2-1.3c-0.1-0.4-0.4-0.7-0.6-1c-0.3-0.3-0.6-0.5-1-0.6
				c-0.4-0.1-0.8-0.2-1.3-0.2c-0.5,0-0.9,0.1-1.2,0.2c-0.4,0.2-0.7,0.4-1,0.6c-0.3,0.3-0.5,0.6-0.6,1
				C281.3,75.9,281.2,76.3,281.2,76.7z"/>
			<path class="st1" d="M291.2,80.4c0-0.2,0-0.5,0.1-0.7c0.1-0.2,0.2-0.4,0.4-0.6c0.2-0.2,0.3-0.3,0.6-0.4c0.2-0.1,0.4-0.1,0.7-0.1
				c0.2,0,0.5,0,0.7,0.1c0.2,0.1,0.4,0.2,0.6,0.4c0.2,0.2,0.3,0.3,0.4,0.6c0.1,0.2,0.1,0.4,0.1,0.7c0,0.2,0,0.5-0.1,0.7
				c-0.1,0.2-0.2,0.4-0.4,0.6c-0.2,0.2-0.3,0.3-0.6,0.4c-0.2,0.1-0.4,0.1-0.7,0.1c-0.2,0-0.5,0-0.7-0.1c-0.2-0.1-0.4-0.2-0.6-0.4
				c-0.2-0.2-0.3-0.3-0.4-0.6C291.2,80.9,291.2,80.6,291.2,80.4z"/>
			<path class="st1" d="M307.8,73.6c0,1.5-0.2,2.7-0.5,3.8s-0.7,2-1.3,2.7c-0.6,0.7-1.2,1.2-2,1.6s-1.6,0.5-2.4,0.5
				c-0.9,0-1.7-0.2-2.4-0.5c-0.7-0.3-1.4-0.9-1.9-1.6c-0.6-0.7-1-1.6-1.3-2.7c-0.3-1.1-0.5-2.3-0.5-3.8c0-1.5,0.2-2.7,0.5-3.8
				c0.3-1.1,0.7-2,1.3-2.7c0.5-0.7,1.2-1.2,1.9-1.6c0.7-0.3,1.6-0.5,2.4-0.5c0.9,0,1.7,0.2,2.4,0.5s1.4,0.9,2,1.6
				c0.6,0.7,1,1.6,1.3,2.7C307.7,70.8,307.8,72.1,307.8,73.6z M304.9,73.6c0-1.2-0.1-2.2-0.3-3c-0.2-0.8-0.4-1.4-0.7-1.9
				c-0.3-0.5-0.6-0.8-1-1s-0.8-0.3-1.2-0.3c-0.4,0-0.8,0.1-1.2,0.3s-0.7,0.5-1,1c-0.3,0.5-0.5,1.1-0.7,1.9c-0.2,0.8-0.3,1.8-0.3,3
				c0,1.2,0.1,2.2,0.3,3c0.2,0.8,0.4,1.4,0.7,1.9c0.3,0.5,0.6,0.8,1,1c0.4,0.2,0.8,0.3,1.2,0.3c0.4,0,0.8-0.1,1.2-0.3
				c0.4-0.2,0.7-0.5,1-1c0.3-0.5,0.5-1.1,0.7-1.9C304.8,75.8,304.9,74.8,304.9,73.6z"/>
			<path class="st1" d="M315.7,68.4v4.8h4.5v2.1h-4.5V80h-2.3v-4.8h-4.5v-2.1h4.5v-4.8H315.7z"/>
		</g>
		<g>
			<path class="st1" d="M127.6,27.9c0,1.2-0.2,2.4-0.6,3.4c-0.4,1-1,1.9-1.7,2.7c-0.7,0.7-1.6,1.3-2.7,1.7c-1,0.4-2.2,0.6-3.5,0.6
				h-6.4V19.5h6.4c1.3,0,2.4,0.2,3.5,0.6c1,0.4,1.9,1,2.7,1.7c0.7,0.7,1.3,1.6,1.7,2.7C127.4,25.5,127.6,26.7,127.6,27.9z
				 M124.5,27.9c0-0.9-0.1-1.7-0.4-2.5c-0.2-0.7-0.6-1.4-1.1-1.9c-0.5-0.5-1-0.9-1.7-1.2c-0.7-0.3-1.4-0.4-2.2-0.4h-3.3v11.8h3.3
				c0.8,0,1.6-0.1,2.2-0.4c0.7-0.3,1.2-0.7,1.7-1.2c0.5-0.5,0.8-1.1,1.1-1.9C124.3,29.6,124.5,28.8,124.5,27.9z"/>
			<path class="st1" d="M135,24.2c0.9,0,1.7,0.1,2.4,0.4s1.3,0.7,1.9,1.2c0.5,0.5,0.9,1.2,1.2,1.9c0.3,0.8,0.4,1.6,0.4,2.5
				c0,0.9-0.1,1.8-0.4,2.6c-0.3,0.8-0.7,1.4-1.2,1.9c-0.5,0.5-1.1,0.9-1.9,1.2c-0.7,0.3-1.5,0.4-2.4,0.4c-0.9,0-1.7-0.1-2.4-0.4
				c-0.7-0.3-1.3-0.7-1.9-1.2c-0.5-0.5-0.9-1.2-1.2-1.9c-0.3-0.8-0.4-1.6-0.4-2.6c0-0.9,0.1-1.8,0.4-2.5c0.3-0.8,0.7-1.4,1.2-1.9
				c0.5-0.5,1.1-0.9,1.9-1.2C133.3,24.3,134.1,24.2,135,24.2z M135,34.2c1,0,1.7-0.3,2.2-1c0.5-0.7,0.7-1.6,0.7-2.9
				c0-1.3-0.2-2.3-0.7-2.9c-0.5-0.7-1.2-1-2.2-1c-1,0-1.7,0.3-2.2,1c-0.5,0.7-0.7,1.7-0.7,2.9s0.2,2.3,0.7,2.9
				C133.3,33.9,134,34.2,135,34.2z"/>
			<path class="st1" d="M141.7,24.4h2.3c0.2,0,0.4,0.1,0.5,0.2c0.1,0.1,0.2,0.2,0.3,0.4l1.7,6.4c0.1,0.3,0.2,0.7,0.2,1
				c0.1,0.3,0.1,0.7,0.2,1c0.1-0.3,0.2-0.7,0.3-1c0.1-0.3,0.2-0.7,0.3-1l2-6.4c0-0.2,0.1-0.3,0.3-0.4c0.1-0.1,0.3-0.2,0.5-0.2h1.3
				c0.2,0,0.4,0.1,0.5,0.2c0.1,0.1,0.2,0.2,0.3,0.4l1.9,6.5c0.1,0.3,0.2,0.7,0.3,1c0.1,0.3,0.2,0.6,0.2,0.9c0.1-0.3,0.1-0.7,0.2-1
				c0.1-0.3,0.1-0.7,0.2-1l1.8-6.4c0-0.2,0.1-0.3,0.3-0.4c0.1-0.1,0.3-0.2,0.5-0.2h2.2l-3.8,11.9h-2.3c-0.2,0-0.4-0.2-0.5-0.5
				l-2.1-6.9c-0.1-0.2-0.1-0.5-0.2-0.7c-0.1-0.2-0.1-0.5-0.1-0.7c0,0.2-0.1,0.5-0.2,0.7c-0.1,0.2-0.1,0.5-0.2,0.7l-2.2,6.9
				c-0.1,0.3-0.3,0.5-0.6,0.5h-2.2L141.7,24.4z"/>
			<path class="st1" d="M161.5,36.3V24.4h1.8c0.4,0,0.6,0.2,0.7,0.5l0.2,0.9c0.2-0.2,0.5-0.5,0.8-0.7c0.3-0.2,0.5-0.4,0.8-0.5
				c0.3-0.1,0.6-0.3,1-0.3c0.3-0.1,0.7-0.1,1.1-0.1c0.7,0,1.2,0.1,1.7,0.3c0.5,0.2,0.9,0.5,1.3,0.9c0.3,0.4,0.6,0.9,0.8,1.4
				c0.2,0.6,0.3,1.2,0.3,1.8v7.6H169v-7.6c0-0.7-0.2-1.3-0.5-1.7c-0.3-0.4-0.8-0.6-1.5-0.6c-0.5,0-1,0.1-1.4,0.3
				c-0.4,0.2-0.8,0.5-1.2,0.9v8.6H161.5z"/>
			<path class="st1" d="M177.7,19v17.2h-2.9V19H177.7z"/>
			<path class="st1" d="M186.1,24.2c0.9,0,1.7,0.1,2.4,0.4c0.7,0.3,1.3,0.7,1.9,1.2c0.5,0.5,0.9,1.2,1.2,1.9
				c0.3,0.8,0.4,1.6,0.4,2.5c0,0.9-0.1,1.8-0.4,2.6c-0.3,0.8-0.7,1.4-1.2,1.9c-0.5,0.5-1.1,0.9-1.9,1.2c-0.7,0.3-1.5,0.4-2.4,0.4
				c-0.9,0-1.7-0.1-2.4-0.4c-0.7-0.3-1.3-0.7-1.9-1.2s-0.9-1.2-1.2-1.9c-0.3-0.8-0.4-1.6-0.4-2.6c0-0.9,0.1-1.8,0.4-2.5
				c0.3-0.8,0.7-1.4,1.2-1.9c0.5-0.5,1.1-0.9,1.9-1.2C184.4,24.3,185.2,24.2,186.1,24.2z M186.1,34.2c1,0,1.7-0.3,2.2-1
				c0.5-0.7,0.7-1.6,0.7-2.9c0-1.3-0.2-2.3-0.7-2.9c-0.5-0.7-1.2-1-2.2-1c-1,0-1.7,0.3-2.2,1c-0.5,0.7-0.7,1.7-0.7,2.9
				s0.2,2.3,0.7,2.9C184.3,33.9,185.1,34.2,186.1,34.2z"/>
			<path class="st1" d="M203.5,36.3h-1.3c-0.3,0-0.5,0-0.6-0.1c-0.2-0.1-0.3-0.2-0.3-0.5l-0.3-0.8c-0.3,0.3-0.6,0.5-0.9,0.7
				c-0.3,0.2-0.6,0.4-0.9,0.5c-0.3,0.1-0.6,0.2-1,0.3c-0.3,0.1-0.7,0.1-1.2,0.1c-0.5,0-1-0.1-1.4-0.2c-0.4-0.1-0.8-0.3-1.1-0.6
				c-0.3-0.3-0.5-0.6-0.7-1c-0.2-0.4-0.3-0.9-0.3-1.4c0-0.4,0.1-0.9,0.4-1.3c0.2-0.4,0.6-0.8,1.2-1.2c0.6-0.4,1.3-0.6,2.2-0.9
				c0.9-0.2,2-0.4,3.4-0.4v-0.7c0-0.8-0.2-1.4-0.5-1.8c-0.3-0.4-0.8-0.6-1.5-0.6c-0.5,0-0.9,0.1-1.2,0.2c-0.3,0.1-0.6,0.2-0.8,0.4
				c-0.2,0.1-0.4,0.3-0.6,0.4c-0.2,0.1-0.4,0.2-0.6,0.2c-0.2,0-0.4-0.1-0.5-0.2c-0.1-0.1-0.3-0.2-0.3-0.4l-0.5-0.9
				c1.4-1.3,3-1.9,5-1.9c0.7,0,1.3,0.1,1.9,0.3c0.5,0.2,1,0.5,1.4,1c0.4,0.4,0.7,0.9,0.9,1.5c0.2,0.6,0.3,1.2,0.3,1.9V36.3z
				 M197.9,34.5c0.3,0,0.6,0,0.8-0.1c0.2-0.1,0.5-0.1,0.7-0.2c0.2-0.1,0.4-0.2,0.6-0.4c0.2-0.2,0.4-0.3,0.6-0.6v-2
				c-0.8,0-1.5,0.1-2.1,0.2c-0.6,0.1-1,0.2-1.4,0.4c-0.3,0.2-0.6,0.4-0.7,0.6c-0.1,0.2-0.2,0.5-0.2,0.7c0,0.5,0.1,0.9,0.4,1.1
				C197.1,34.4,197.5,34.5,197.9,34.5z"/>
			<path class="st1" d="M214.7,36.3c-0.4,0-0.6-0.2-0.7-0.5l-0.2-1.1c-0.2,0.3-0.5,0.5-0.8,0.8c-0.3,0.2-0.6,0.4-0.9,0.6
				c-0.3,0.2-0.6,0.3-1,0.4s-0.7,0.1-1.2,0.1c-0.7,0-1.2-0.1-1.8-0.4c-0.5-0.3-1-0.7-1.4-1.2c-0.4-0.5-0.7-1.2-0.9-1.9
				c-0.2-0.8-0.3-1.6-0.3-2.6c0-0.9,0.1-1.7,0.4-2.5c0.2-0.8,0.6-1.4,1-2c0.4-0.6,1-1,1.6-1.3c0.6-0.3,1.3-0.5,2.1-0.5
				c0.7,0,1.2,0.1,1.7,0.3c0.5,0.2,0.9,0.5,1.3,0.9V19h2.9v17.2H214.7z M210.9,34.2c0.6,0,1.1-0.1,1.5-0.4c0.4-0.2,0.8-0.6,1.2-1.1
				v-5.3c-0.3-0.4-0.7-0.7-1.1-0.8c-0.4-0.2-0.8-0.2-1.2-0.2c-0.4,0-0.8,0.1-1.2,0.2c-0.4,0.2-0.6,0.4-0.9,0.7
				c-0.2,0.3-0.4,0.7-0.6,1.3c-0.1,0.5-0.2,1.1-0.2,1.8c0,0.7,0.1,1.3,0.2,1.8c0.1,0.5,0.3,0.9,0.5,1.2s0.5,0.5,0.8,0.7
				C210.2,34.1,210.5,34.2,210.9,34.2z"/>
			<path class="st1" d="M223.4,34.7c0-0.2,0-0.5,0.1-0.7c0.1-0.2,0.2-0.4,0.4-0.6c0.2-0.2,0.3-0.3,0.6-0.4c0.2-0.1,0.4-0.1,0.7-0.1
				c0.2,0,0.5,0,0.7,0.1c0.2,0.1,0.4,0.2,0.6,0.4c0.2,0.2,0.3,0.3,0.4,0.6c0.1,0.2,0.1,0.4,0.1,0.7c0,0.2,0,0.5-0.1,0.7
				c-0.1,0.2-0.2,0.4-0.4,0.6c-0.2,0.2-0.3,0.3-0.6,0.4c-0.2,0.1-0.4,0.1-0.7,0.1c-0.2,0-0.5,0-0.7-0.1c-0.2-0.1-0.4-0.2-0.6-0.4
				c-0.2-0.2-0.3-0.3-0.4-0.6C223.4,35.2,223.4,34.9,223.4,34.7z"/>
			<path class="st1" d="M244.2,36.3h-2.4c-0.3,0-0.5-0.1-0.7-0.2c-0.2-0.1-0.3-0.3-0.4-0.5l-1.3-3.4h-7l-1.3,3.4
				c-0.1,0.2-0.2,0.3-0.4,0.5c-0.2,0.1-0.4,0.2-0.7,0.2h-2.4l6.6-16.8h3.2L244.2,36.3z M233.3,29.9h5.4l-2-5.6
				c-0.1-0.2-0.2-0.5-0.3-0.9c-0.1-0.3-0.2-0.7-0.3-1.1c-0.1,0.4-0.2,0.8-0.3,1.1c-0.1,0.3-0.2,0.6-0.3,0.9L233.3,29.9z"/>
			<path class="st1" d="M249.1,30.4v5.9H246V19.5h5.5c1.1,0,2.1,0.1,2.9,0.4c0.8,0.3,1.5,0.6,2,1.1c0.5,0.5,0.9,1,1.2,1.7
				c0.3,0.7,0.4,1.4,0.4,2.2c0,0.8-0.1,1.6-0.4,2.2c-0.3,0.7-0.7,1.3-1.2,1.7c-0.5,0.5-1.2,0.9-2,1.1c-0.8,0.3-1.8,0.4-2.9,0.4
				H249.1z M249.1,27.9h2.3c0.6,0,1.1-0.1,1.5-0.2s0.8-0.3,1.1-0.6c0.3-0.3,0.5-0.6,0.6-1c0.1-0.4,0.2-0.8,0.2-1.3
				c0-0.4-0.1-0.9-0.2-1.2c-0.1-0.4-0.3-0.7-0.6-0.9c-0.3-0.3-0.6-0.4-1.1-0.6c-0.4-0.1-0.9-0.2-1.5-0.2h-2.3V27.9z"/>
			<path class="st1" d="M263.6,26.5h0.7c0.3,0,0.5,0,0.7-0.1c0.2-0.1,0.4-0.2,0.5-0.4l4.6-5.9c0.2-0.2,0.4-0.4,0.6-0.5
				c0.2-0.1,0.5-0.1,0.8-0.1h2.7l-5.7,7c-0.2,0.2-0.3,0.4-0.5,0.5c-0.2,0.1-0.3,0.3-0.5,0.4c0.3,0.1,0.5,0.2,0.7,0.4
				c0.2,0.2,0.4,0.4,0.6,0.6l5.8,7.9H272c-0.4,0-0.6-0.1-0.8-0.2c-0.2-0.1-0.3-0.3-0.5-0.5l-4.7-6.2c-0.2-0.2-0.3-0.3-0.5-0.4
				c-0.2-0.1-0.5-0.1-0.8-0.1h-1v7.4h-3.1V19.5h3.1V26.5z"/>
		</g>
	</g>
</g>
<path class="st1" d="M31.4,63.9c0,2.1-1.7,3.8-3.8,3.8s-3.8-1.7-3.8-3.8V46.7c0-2.1,1.7-3.8,3.8-3.8s3.8,1.7,3.8,3.8V63.9z M85,63.9
	c0,2.1-1.7,3.8-3.8,3.8c-2.1,0-3.8-1.7-3.8-3.8V46.7c0-2.1,1.7-3.8,3.8-3.8c2.1,0,3.8,1.7,3.8,3.8V63.9z M50.6,84.9
	c0,2.1-1.7,3.8-3.8,3.8s-3.8-1.7-3.8-3.8V67.7c0-2.1,1.7-3.8,3.8-3.8s3.8,1.7,3.8,3.8V84.9z M65.9,84.9c0,2.1-1.7,3.8-3.8,3.8
	s-3.8-1.7-3.8-3.8V67.7c0-2.1,1.7-3.8,3.8-3.8s3.8,1.7,3.8,3.8V84.9z"/>
<path class="st1" d="M35.2,42.8v28.7c0,2.1,1.7,3.8,3.8,3.8h30.6c2.1,0,3.8-1.7,3.8-3.8V42.8H35.2z M54.4,23.7
	c-11.5,0-18.6,6.9-19.1,15.3h38.3C72.9,30.6,65.9,23.7,54.4,23.7z M46.7,34.4c-1.1,0-1.9-0.8-1.9-1.9c0-1.1,0.8-1.9,1.9-1.9
	s1.9,0.8,1.9,1.9C48.6,33.5,47.9,34.4,46.7,34.4z M62,34.4c-1.1,0-1.9-0.8-1.9-1.9c0-1.1,0.8-1.9,1.9-1.9c1.1,0,1.9,0.8,1.9,1.9
	C63.9,33.5,63.2,34.4,62,34.4z"/>
<path class="st1" d="M62.6,28.5c-0.4,0-0.8-0.2-1.1-0.4c-1-0.6-1.1-1.7-0.6-2.7l3.3-4.8c0.6-1,1.7-1.1,2.7-0.6
	c1,0.6,1.1,1.7,0.6,2.7l-3.3,4.8C63.9,28.1,63.4,28.5,62.6,28.5z M45.4,27.7c-0.6,0-1.3-0.4-1.5-1l-2.5-4c-0.6-1-0.4-2.1,0.6-2.7
	c1-0.6,2.1-0.4,2.7,0.6l2.5,4c0.6,1,0.4,2.1-0.6,2.7C46.2,27.5,45.8,27.7,45.4,27.7z"/>
</svg>
