<?xml version="1.0" encoding="utf-8"?>
<!-- Generator: Adobe Illustrator 25.3.1, SVG Export Plug-In . SVG Version: 6.00 Build 0)  -->
<svg version="1.1" id="Layer_1" xmlns="http://www.w3.org/2000/svg" xmlns:xlink="http://www.w3.org/1999/xlink" x="0px" y="0px"
	 viewBox="0 0 90.6 91" style="enable-background:new 0 0 90.6 91;" xml:space="preserve">
<style type="text/css">
	.st0{fill:#343434;}
	.st1{fill:#8C8C8C;}
	.st2{fill:#3C3C3B;}
	.st3{fill:#141414;}
	.st4{fill:#393939;}
	.st5{fill:#FFFFFF;}
</style>
<g>
	<polygon class="st0" points="45.3,0 44.7,2.1 44.7,62.2 45.3,62.9 73.2,46.3 	"/>
	<polygon class="st1" points="45.3,0 17.4,46.3 45.3,62.9 45.3,33.6 	"/>
	<polygon class="st2" points="45.3,68.1 44.9,68.6 44.9,90 45.3,91 73.2,51.6 	"/>
	<polygon class="st1" points="45.3,91 45.3,68.1 17.4,51.6 	"/>
	<polygon class="st3" points="45.3,62.9 73.2,46.3 45.3,33.6 	"/>
	<polygon class="st4" points="17.4,46.3 45.3,62.9 45.3,33.6 	"/>
</g>
<g>
	<circle class="st5" cx="67" cy="23.6" r="22.6"/>
	<path d="M67,47.1c-13,0-23.6-10.6-23.6-23.6C43.5,10.6,54,0,67,0s23.6,10.6,23.6,23.6C90.6,36.6,80,47.1,67,47.1z M67,2
		c-11.9,0-21.6,9.7-21.6,21.6S55.2,45.1,67,45.1s21.6-9.7,21.6-21.6S78.9,2,67,2z"/>
</g>
<g>
	<path d="M75.9,29.8c0.5,0.4,0.7,1,0.7,1.9c0,0.9-0.2,1.5-0.7,1.9s-1.2,0.6-2.3,0.6H61c-0.8,0-1.5-0.2-2-0.7
		c-0.5-0.5-0.7-1.1-0.7-1.9c0-1,0.4-1.9,1.2-2.7l7.3-7.6c1.5-1.6,2.3-3.1,2.3-4.4c0-0.8-0.2-1.4-0.7-1.8s-1.1-0.6-1.9-0.6
		c-0.7,0-1.3,0.1-1.8,0.3c-0.6,0.2-1.2,0.5-2,0.8L62,16c-0.1,0-0.3,0.1-0.5,0.3s-0.5,0.3-0.7,0.3c-0.2,0.1-0.4,0.1-0.7,0.1
		c-0.6,0-1.1-0.3-1.5-0.8c-0.4-0.5-0.6-1.1-0.6-1.8c0-0.5,0.1-0.9,0.2-1.2c0.1-0.3,0.4-0.6,0.8-0.9c1.1-0.7,2.3-1.3,3.6-1.7
		c1.3-0.4,2.7-0.6,4-0.6c1.7,0,3.2,0.3,4.5,0.8c1.3,0.6,2.3,1.4,3,2.4c0.7,1,1.1,2.3,1.1,3.6c0,1.4-0.3,2.7-0.8,3.9
		c-0.6,1.2-1.5,2.5-2.9,3.9l-4.9,5h6.9C74.7,29.2,75.4,29.4,75.9,29.8z"/>
</g>
</svg>
