<?xml version="1.0" encoding="utf-8"?>
<!-- Generator: Adobe Illustrator 25.3.1, SVG Export Plug-In . SVG Version: 6.00 Build 0)  -->
<svg version="1.1" id="Layer_1" xmlns="http://www.w3.org/2000/svg" xmlns:xlink="http://www.w3.org/1999/xlink" x="0px" y="0px"
	 viewBox="0 0 104 204" style="enable-background:new 0 0 104 204;" xml:space="preserve">
<style type="text/css">
	.st0{fill:#FFFFFF;}
</style>
<g>
	<path class="st0" d="M91.2,187.8v12.1c0,2.2-1.8,4.1-4.1,4.1H28.5c-2.2,0-4.1-1.8-4.1-4.1v-30.8L8.6,139.8
		c-13.7-25.3-10.8-56,7.4-78.3c1.4-1.8,5.8-0.6,5.8-0.6l20.5,69V82.8c0-8.8,7.2-16,16-16s16,7.2,16,16V122c0,10.8,2.8,21.5,8,30.9
		C88.1,163.6,91.2,175.6,91.2,187.8z"/>
	<path class="st0" d="M98,83v36.6c0,2.2-1.8,4.1-4.1,4.1c-4,0-8-0.9-11.5-2.5V95.2l4.4-2.7C91,89.8,94.8,86.6,98,83z"/>
	<path class="st0" d="M11.9,54.3c0.5-0.4,1.1-0.7,1.7-1.1c0.3-0.2,0.7-0.3,0.9-0.4c0.4-0.2,0.9-0.3,1.4-0.5c0.3-0.1,0.5-0.2,0.8-0.2
		c0.8-0.2,1.6-0.2,2.4-0.2c2.8,0,5.6,1,7.8,2.8c0.7,0.6,1.3,1.2,1.9,2c0.2,0.2,0.3,0.5,0.5,0.8c0.3,0.5,0.6,0.9,0.9,1.5
		c0.2,0.3,0.3,0.7,0.4,1c0.2,0.5,0.3,0.9,0.4,1.5c0.1,0.4,0.2,0.7,0.2,1.1c0.1,0.6,0.1,1.1,0.1,1.7c0,0.2,0,0.4,0,0.7l3.5,11.9
		c0-0.1,0.1-0.2,0.1-0.3c0.3-1.1,0.7-2.2,1.1-3.2c0.1-0.2,0.2-0.3,0.2-0.5c0.5-1,1-2,1.6-2.9c0-0.1,0.1-0.2,0.2-0.2
		c0.7-0.9,1.3-1.8,2.1-2.7c0.2-0.2,0.3-0.3,0.4-0.5c0.8-0.8,1.6-1.6,2.5-2.3c0.2-0.1,0.3-0.2,0.5-0.4c0.9-0.7,1.8-1.3,2.9-1.9
		c0,0,0.1,0,0.1-0.1c1-0.6,2.1-1,3.2-1.4c0.2-0.1,0.4-0.2,0.6-0.2c1.1-0.4,2.2-0.7,3.3-0.9c0.2,0,0.4-0.1,0.7-0.1
		c1.2-0.2,2.4-0.3,3.7-0.3c13.3,0,24.2,10.9,24.2,24.2v2.8C95.6,77.4,104,62.8,104,46.5C104,20.8,83.2,0,57.6,0S11.2,20.8,11.2,46.4
		C11.2,49.1,11.4,51.7,11.9,54.3L11.9,54.3z"/>
</g>
</svg>
