<?xml version="1.0" encoding="utf-8"?>
<!-- Generator: Adobe Illustrator 25.3.1, SVG Export Plug-In . SVG Version: 6.00 Build 0)  -->
<svg version="1.1" id="Layer_1" xmlns="http://www.w3.org/2000/svg" xmlns:xlink="http://www.w3.org/1999/xlink" x="0px" y="0px"
	 viewBox="0 0 403.3 403.3" style="enable-background:new 0 0 403.3 403.3;" xml:space="preserve">
<style type="text/css">
	.st0{fill:#FFFFFF;}
	.st1{fill:#F2D638;}
</style>
<circle class="st0" cx="201.7" cy="201.7" r="201.7"/>
<g>
	<path class="st1" d="M341.5,71.8c-1.7-7.4-11.1-10.1-16.4-4.7l-16.8,16.8c-62.7-56.4-159-54.7-219.4,5.4
		c-62.4,62.4-62.4,163.7,0,226.1c2,2,4,3.7,5.7,5.7c3.4,3,7.4,4.4,11.4,4.4c4.7,0,9.4-2,12.7-5.7c6.4-7,5.7-17.8-1.3-24.2l-4.7-4.4
		c-48.6-48.9-48.6-128.8,0.4-177.8c47-47,121.8-48.3,171.1-5.4l-18.5,18.5c-5.4,5.4-2.7,14.8,4.7,16.4l78.5,19.1
		c7,1.7,13.8-4.7,12.1-12.1L341.5,71.8z"/>
	<path class="st1" d="M258,217.8L218.7,193v-62.8c0-9.4-7.7-17.1-17.1-17.1s-17.1,7.7-17.1,17.1V202c0,5.7,3,11.4,8.1,14.4l47,29.9
		c2.7,1.7,6,2.7,9.1,2.7c5.7,0,11.1-2.7,14.4-8.1C268.4,233.2,266,222.8,258,217.8z"/>
	<path class="st1" d="M169.1,323.5l-6.4-2c-9.1-3-18.8,2-21.5,10.7c-3,9.1,2,18.8,10.7,21.5c2.7,1,5.4,1.7,8.1,2.3
		c1.3,0.3,3,0.7,4.4,0.7c7.4,0,14.4-5,16.4-12.7C183.5,335.2,178.1,325.8,169.1,323.5z"/>
	<path class="st1" d="M227.1,325.1l-6.7,1c-9.4,1.3-15.8,10.1-14.4,19.5c1.3,8.4,8.7,14.8,16.8,14.8c0.7,0,1.7,0,2.7-0.3
		c2.7-0.3,5.7-1,8.4-1.3c9.4-2,15.1-10.7,13.4-20.1C245.2,329.5,236.2,323.5,227.1,325.1z"/>
	<path class="st1" d="M279.5,301l-5.4,4c-7.7,5.4-9.4,16.1-4,23.8c3.4,4.7,8.7,7.4,14.1,7.4c3.4,0,6.7-1,9.7-3
		c2.3-1.7,4.7-3.4,6.7-5c7.4-5.7,8.7-16.8,2.7-24.2C297.9,296.3,286.8,295.3,279.5,301z"/>
</g>
</svg>
