<?xml version="1.0" encoding="utf-8"?>
<!-- Generator: Adobe Illustrator 25.2.1, SVG Export Plug-In . SVG Version: 6.00 Build 0)  -->
<!DOCTYPE svg PUBLIC "-//W3C//DTD SVG 1.1//EN" "http://www.w3.org/Graphics/SVG/1.1/DTD/svg11.dtd" [
	<!ENTITY ns_extend "http://ns.adobe.com/Extensibility/1.0/">
	<!ENTITY ns_ai "http://ns.adobe.com/AdobeIllustrator/10.0/">
	<!ENTITY ns_graphs "http://ns.adobe.com/Graphs/1.0/">
	<!ENTITY ns_vars "http://ns.adobe.com/Variables/1.0/">
	<!ENTITY ns_imrep "http://ns.adobe.com/ImageReplacement/1.0/">
	<!ENTITY ns_sfw "http://ns.adobe.com/SaveForWeb/1.0/">
	<!ENTITY ns_custom "http://ns.adobe.com/GenericCustomNamespace/1.0/">
	<!ENTITY ns_adobe_xpath "http://ns.adobe.com/XPath/1.0/">
]>
<svg version="1.1" id="Layer_1" xmlns:x="&ns_extend;" xmlns:i="&ns_ai;" xmlns:graph="&ns_graphs;"
	 xmlns="http://www.w3.org/2000/svg" xmlns:xlink="http://www.w3.org/1999/xlink" x="0px" y="0px" viewBox="0 0 28 28.1"
	 style="enable-background:new 0 0 28 28.1;" xml:space="preserve">
<style type="text/css">
	.st0{fill:#FFFFFF;}
</style>
<metadata>
	<sfw  xmlns="&ns_sfw;">
		<slices></slices>
		<sliceSourceBounds  bottomLeftOrigin="true" height="28.1" width="28" x="2" y="9.9"></sliceSourceBounds>
	</sfw>
</metadata>
<path class="st0" d="M25,6h-3V2c0-1.1-0.9-2-2-2H8C6.9,0,6,0.9,6,2v4H3C1.3,6,0,7.3,0,9c0,0,0,0,0,0.1V19c0,1.7,1.3,3,2.9,3.1
	c0,0,0,0,0.1,0h3v4c0,1.1,0.9,2,2,2h12c1.1,0,2-0.9,2-2v-4h3c1.7,0,3-1.3,3-3c0,0,0,0,0-0.1V9.1C28,7.4,26.7,6,25,6L25,6z M8,2h12v4
	H8V2z M20,26H8v-9h12V26z M26,18.9c0,0.6-0.4,1-0.9,1.1c0,0,0,0-0.1,0h-3v-3c0-1.1-0.9-2-2-2H8c-1.1,0-2,0.9-2,2v3H3
	c-0.6,0-1-0.4-1-1c0,0,0,0,0-0.1V9c0-0.6,0.4-1,0.9-1.1c0,0,0,0,0.1,0h22c0.6,0,1,0.4,1,1c0,0,0,0,0,0.1V18.9z M18,23
	c0,0.6-0.4,1-1,1h-6c-0.6,0-1-0.4-1-1s0.4-1,1-1h6C17.6,22,18,22.4,18,23z M18,20c0,0.6-0.4,1-1,1h-6c-0.6,0-1-0.4-1-1s0.4-1,1-1h6
	C17.6,19,18,19.4,18,20z M24,11c0,0.6-0.4,1-1,1h-2c-0.6,0-1-0.4-1-1s0.4-1,1-1h2C23.6,10,24,10.4,24,11z"/>
</svg>
