<?xml version="1.0" encoding="utf-8"?>
<!-- Generator: Adobe Illustrator 23.0.3, SVG Export Plug-In . SVG Version: 6.00 Build 0)  -->
<!DOCTYPE svg PUBLIC "-//W3C//DTD SVG 1.1//EN" "http://www.w3.org/Graphics/SVG/1.1/DTD/svg11.dtd" [
	<!ENTITY ns_extend "http://ns.adobe.com/Extensibility/1.0/">
	<!ENTITY ns_ai "http://ns.adobe.com/AdobeIllustrator/10.0/">
	<!ENTITY ns_graphs "http://ns.adobe.com/Graphs/1.0/">
	<!ENTITY ns_vars "http://ns.adobe.com/Variables/1.0/">
	<!ENTITY ns_imrep "http://ns.adobe.com/ImageReplacement/1.0/">
	<!ENTITY ns_sfw "http://ns.adobe.com/SaveForWeb/1.0/">
	<!ENTITY ns_custom "http://ns.adobe.com/GenericCustomNamespace/1.0/">
	<!ENTITY ns_adobe_xpath "http://ns.adobe.com/XPath/1.0/">
]>
<svg version="1.1" id="Layer_1" xmlns:x="&ns_extend;" xmlns:i="&ns_ai;" xmlns:graph="&ns_graphs;"
	 xmlns="http://www.w3.org/2000/svg" xmlns:xlink="http://www.w3.org/1999/xlink" x="0px" y="0px" viewBox="0 0 100.1 100"
	 style="enable-background:new 0 0 100.1 100;" xml:space="preserve">
<style type="text/css">
	.st0{fill:#FFFFFF;}
	.st1{fill:#CA675A;}
	.st2{fill:none;stroke:#CA675A;stroke-width:2.8346;stroke-linecap:round;stroke-miterlimit:10;}
</style>
<metadata>
	<sfw  xmlns="&ns_sfw;">
		<slices></slices>
		<sliceSourceBounds  bottomLeftOrigin="true" height="100" width="105.7" x="-7.2" y="-6.4"></sliceSourceBounds>
	</sfw>
</metadata>
<circle class="st0" cx="50" cy="50" r="50"/>
<g>
	<g>
		<g>
			<path class="st1" d="M50.1,93.7c-18.7,0-36-12.4-41.3-31.3C2.4,39.6,15.8,16,38.5,9.6C48.9,6.7,60,7.8,69.6,12.8
				c1.2,0.6,1.6,2,1,3.2s-2,1.6-3.2,1c-8.6-4.4-18.4-5.4-27.7-2.8c-20.1,5.6-32,26.7-26.3,46.9s26.7,32.1,46.9,26.4
				s32.1-26.7,26.4-46.9c-1.1-3.9-2.8-7.6-5-10.9c-0.7-1.1-0.4-2.6,0.7-3.3c1.1-0.7,2.6-0.4,3.3,0.7c2.5,3.8,4.4,7.9,5.6,12.3
				c6.4,22.8-7,46.5-29.7,52.8C57.8,93.2,53.9,93.7,50.1,93.7z"/>
		</g>
		<g>
			<path class="st1" d="M33.1,78.6c-0.5,0-1-0.2-1.5-0.5c-1-0.8-1.2-2.3-0.4-3.4l40.4-50.5c0.8-1,2.3-1.2,3.4-0.4
				c1,0.8,1.2,2.3,0.4,3.4L35,77.7C34.5,78.3,33.8,78.6,33.1,78.6z"/>
		</g>
		<g>
			<g>
				<path class="st2" d="M105.7,56.9"/>
			</g>
		</g>
	</g>
	<g>
		<path class="st1" d="M73.7,54.2c-0.1,0-0.2,0-0.2,0c-1.3-0.2-2.3-1.4-2.2-2.7L74,23.9L47.6,39.8c-1.1,0.7-2.6,0.3-3.3-0.8
			c-0.7-1.1-0.3-2.6,0.8-3.3l34.5-20.8L76.1,52C76,53.2,74.9,54.2,73.7,54.2z"/>
	</g>
</g>
</svg>
