<?xml version="1.0" encoding="utf-8"?>
<!-- Generator: Adobe Illustrator 26.0.2, SVG Export Plug-In . SVG Version: 6.00 Build 0)  -->
<svg version="1.1" id="Isolation_Mode" xmlns="http://www.w3.org/2000/svg" xmlns:xlink="http://www.w3.org/1999/xlink" x="0px"
	 y="0px" viewBox="0 0 454.9 536.7" style="enable-background:new 0 0 454.9 536.7;" xml:space="preserve">
<style type="text/css">
	.st0{stroke:#000000;stroke-width:6;stroke-miterlimit:10;}
</style>
<path class="st0" d="M446.2,95.9c-0.7-4-4.1-6.8-8.2-6.9c-1.4,0-2.8,0-4.2,0C307.1,89,235.8,6.7,235.1,5.9c-1.9-2.3-4.9-3.2-7.6-2.8
	c-2.8-0.5-5.7,0.5-7.7,2.8C219.1,6.7,148.1,89,21.3,89c-1.4,0-2.8,0-4.3,0c-4.2,0.1-7.6,2.9-8.2,6.9c-1,6.3-24.6,155.4,31.8,286.2
	c31.5,73,94.9,125.3,183.2,151.3c0.8,0.2,1.6,0.3,2.3,0.3c0.5,0,0.9-0.1,1.4-0.2c0.5,0.1,0.9,0.2,1.4,0.2c0.8,0,1.6-0.1,2.3-0.3
	c88.3-26,151.6-78.3,183.2-151.3C470.8,251.3,447.2,102.2,446.2,95.9L446.2,95.9z M399.2,375.5c-29.8,69.1-87.6,116.8-171.7,141.7
	c-84.1-25-141.9-72.6-171.8-141.7C7.9,264.8,20.1,136.4,24,105.5c115-1,184.9-64.4,203.4-83.6c18.6,19.2,88.4,82.6,203.4,83.6
	C434.8,136.3,447.1,264.7,399.2,375.5L399.2,375.5z"/>
<path class="st0" d="M315.1,211.7L208.4,318.4L157.9,268c-3.2-3.2-8.4-3.2-11.6,0c-3.2,3.2-3.2,8.4,0,11.6l56.3,56.2
	c1.6,1.6,3.7,2.4,5.8,2.4c2.1,0,4.2-0.8,5.8-2.4l112.5-112.5c3.2-3.2,3.2-8.4,0-11.6C323.5,208.5,318.3,208.5,315.1,211.7
	L315.1,211.7z"/>
</svg>
