<?xml version="1.0" encoding="utf-8"?>
<!-- Generator: Adobe Illustrator 25.3.1, SVG Export Plug-In . SVG Version: 6.00 Build 0)  -->
<svg version="1.1" id="Layer_1" xmlns="http://www.w3.org/2000/svg" xmlns:xlink="http://www.w3.org/1999/xlink" x="0px" y="0px"
	 viewBox="0 0 128 126.4" style="enable-background:new 0 0 128 126.4;" xml:space="preserve">
<style type="text/css">
	.st0{fill:#00B5E2;}
</style>
<path class="st0" d="M126.1,47.9c-0.5-2-1-4-1.7-5.9c-0.2-0.5-0.7-0.8-1.3-0.6c-0.5,0.2-0.8,0.7-0.6,1.3c0.6,1.9,1.2,3.8,1.6,5.8
	c7.7,33.3-13,66.6-46.4,74.4c-1.9,0.4-3.8,0.8-5.7,1.1c-0.6,0-1,0.5-0.9,1.1c0,0.6,0.5,1,1.1,0.9h0.1c2-0.3,4-0.6,5.9-1.1
	C112.7,116.8,134.1,82.4,126.1,47.9C126.1,48,126.1,48,126.1,47.9L126.1,47.9z"/>
<path class="st0" d="M63.7,124.4c-1.5,0-3.1-0.1-4.6-0.2c-0.6,0-1,0.4-1.1,0.9c0,0.6,0.4,1,0.9,1.1c1.6,0.1,3.2,0.2,4.8,0.2
	c0.6,0,1-0.4,1-1S64.3,124.4,63.7,124.4L63.7,124.4z"/>
<path class="st0" d="M43.6,3.7c0.1,0,0.2,0,0.3-0.1C45.8,3,47.8,2.4,49.8,2c0.5-0.1,0.9-0.7,0.8-1.2S49.9-0.1,49.3,0
	c-2,0.5-4.1,1-6,1.7c-0.5,0.2-0.8,0.7-0.6,1.3C42.8,3.4,43.2,3.7,43.6,3.7L43.6,3.7z"/>
<path class="st0" d="M0.8,62.5L0.8,62.5c0.6,0,1-0.4,1-1c0.3-22.7,12.9-43.4,33-54c0.5-0.2,0.7-0.8,0.5-1.3S34.5,5.5,34,5.7l0,0
	C13.1,16.7,0.1,38.1-0.2,61.5C-0.2,62.1,0.2,62.5,0.8,62.5L0.8,62.5z"/>
<path class="st0" d="M42.6,120.2L42.6,120.2c0.2-0.5-0.1-1.1-0.6-1.3C20.8,110.8,5.7,91.7,2.8,69.2c-0.1-0.5-0.6-0.9-1.1-0.9
	c-0.5,0.1-0.9,0.6-0.9,1.1l0,0c3.1,23.2,18.6,42.9,40.5,51.3C41.8,120.9,42.4,120.7,42.6,120.2L42.6,120.2z"/>
<path class="st0" d="M63.3,1L63.3,1c0,0.6,0.5,1,1,1c22.7,0.2,43.4,12.8,54.1,32.8c0.2,0.5,0.8,0.7,1.3,0.4c0.5-0.2,0.7-0.8,0.4-1.3
	l0,0C109.1,13.2,87.7,0.2,64.3,0C63.7,0,63.3,0.4,63.3,1L63.3,1z"/>
<path class="st0" d="M42.6,43.4h52.3c2.2,0,4,1.8,4,4s-1.8,4-4,4H42.6l9.1,9.1c1.5,1.5,1.5,4.1,0,5.6s-4.1,1.5-5.6,0l-15.8-16
	c-1.5-1.5-1.5-4.1,0-5.6l15.9-15.9c1.5-1.5,4.1-1.5,5.6,0s1.5,4.1,0,5.6L42.6,43.4z M83.4,83H33.1c-2.2,0-4-1.8-4-4s1.8-4,4-4h50.3
	l-9.1-9c-1.5-1.5-1.5-4.1,0-5.6s4.1-1.5,5.6,0l15.9,15.9c1.5,1.5,1.5,4.1,0,5.6L79.9,97.8c-1.5,1.5-4.1,1.5-5.6,0s-1.5-4.1,0-5.6
	L83.4,83z"/>
</svg>
