<?xml version="1.0" encoding="utf-8"?>
<!-- Generator: Adobe Illustrator 25.3.1, SVG Export Plug-In . SVG Version: 6.00 Build 0)  -->
<svg version="1.1" id="Layer_1" xmlns="http://www.w3.org/2000/svg" xmlns:xlink="http://www.w3.org/1999/xlink" x="0px" y="0px"
	 viewBox="0 0 102.9 96.8" style="enable-background:new 0 0 102.9 96.8;" xml:space="preserve">
<style type="text/css">
	.st0{fill:#FFFFFF;}
</style>
<g>
	<path class="st0" d="M69.5,28.9c1-0.6,1.6-1.7,1.6-2.8c0-1.1-0.6-2.2-1.6-2.8L31.9,0.5c-1-0.6-2.8-0.6-3.8-0.1
		c-1,0.6-2.4,1.7-2.4,2.8V11c0,2.4-1.4,4.4-3.7,4.8C9.7,17.7,0,28.3,0,41c0,3.8,0.9,7.4,2.4,10.6c0.2,0.5,0.8,0.8,1.3,0.8
		c0.5,0,1.1-0.3,1.3-0.8c3-6.6,8.6-11.7,15.6-13.9c1.4-0.4,2.5-0.2,3.6,0.6c1.1,0.8,1.5,2.2,1.5,3.6V49c0,1.2,1.3,2.3,2.3,2.8
		c1,0.6,2.8,0.6,3.8-0.1L69.5,28.9z"/>
	<path class="st0" d="M100.5,45.4c-0.2-0.5-0.8-0.9-1.3-0.9c-0.6,0-1.1,0.3-1.3,0.8c-3.4,7.8-9.3,11.8-15.5,13.8
		c-1.4,0.4-2.6,0.2-3.7-0.6c-1.1-0.8-1.6-2.2-1.6-3.6v-7.1c0-1.2-1.2-2.3-2.3-2.8c-1-0.6-2.8-0.6-3.8,0.1L33.4,67.9
		c-1,0.6-1.6,1.6-1.6,2.8c0,1.1,0.6,2.2,1.6,2.8l37.7,22.9c1,0.6,2.7,0.6,3.7,0.1c1-0.6,2.3-1.7,2.3-2.8v-7.7c0-2.4,1.4-4.4,3.8-4.8
		c12.3-2,22.1-12.5,22.1-25.2C102.9,53,102,48.9,100.5,45.4z"/>
</g>
</svg>
