<?xml version="1.0" encoding="utf-8"?>
<!-- Generator: Adobe Illustrator 23.0.3, SVG Export Plug-In . SVG Version: 6.00 Build 0)  -->
<!DOCTYPE svg PUBLIC "-//W3C//DTD SVG 1.1//EN" "http://www.w3.org/Graphics/SVG/1.1/DTD/svg11.dtd" [
	<!ENTITY ns_extend "http://ns.adobe.com/Extensibility/1.0/">
	<!ENTITY ns_ai "http://ns.adobe.com/AdobeIllustrator/10.0/">
	<!ENTITY ns_graphs "http://ns.adobe.com/Graphs/1.0/">
	<!ENTITY ns_vars "http://ns.adobe.com/Variables/1.0/">
	<!ENTITY ns_imrep "http://ns.adobe.com/ImageReplacement/1.0/">
	<!ENTITY ns_sfw "http://ns.adobe.com/SaveForWeb/1.0/">
	<!ENTITY ns_custom "http://ns.adobe.com/GenericCustomNamespace/1.0/">
	<!ENTITY ns_adobe_xpath "http://ns.adobe.com/XPath/1.0/">
]>
<svg version="1.1" id="Layer_1" xmlns:x="&ns_extend;" xmlns:i="&ns_ai;" xmlns:graph="&ns_graphs;"
	 xmlns="http://www.w3.org/2000/svg" xmlns:xlink="http://www.w3.org/1999/xlink" x="0px" y="0px" viewBox="0 0 234.1 283.5"
	 style="enable-background:new 0 0 234.1 283.5;" xml:space="preserve">
<style type="text/css">
	.st0{display:none;fill:#FFFFFF;}
	.st1{fill:url(#SVGID_1_);}
	.st2{fill:url(#SVGID_2_);}
	.st3{fill:url(#SVGID_3_);}
	.st4{fill:url(#SVGID_4_);}
	.st5{fill:url(#SVGID_5_);}
	.st6{fill:#FFFFFF;}
	.st7{fill:url(#XMLID_4_);}
	.st8{fill:url(#XMLID_5_);}
	.st9{fill:url(#SVGID_6_);}
	.st10{fill:url(#SVGID_7_);}
	.st11{fill:url(#SVGID_8_);}
	.st12{fill:url(#SVGID_9_);}
	.st13{fill:url(#SVGID_10_);}
	.st14{fill:url(#SVGID_11_);}
	.st15{fill:url(#SVGID_12_);}
	.st16{fill:url(#SVGID_13_);}
	.st17{fill:url(#SVGID_14_);}
	.st18{fill:url(#SVGID_15_);}
</style>
<metadata>
	<sfw  xmlns="&ns_sfw;">
		<slices></slices>
		<sliceSourceBounds  bottomLeftOrigin="true" height="283.5" width="234.1" x="-92" y="-121.1"></sliceSourceBounds>
	</sfw>
</metadata>
<ellipse class="st0" cx="117" cy="131" rx="24.9" ry="25"/>
<g>
	
		<linearGradient id="SVGID_1_" gradientUnits="userSpaceOnUse" x1="-0.2514" y1="3827.561" x2="33.8007" y2="3827.561" gradientTransform="matrix(1 0 0 1 0 -3736.3401)">
		<stop  offset="0" style="stop-color:#00A99D"/>
		<stop  offset="1" style="stop-color:#0071BC"/>
	</linearGradient>
	<path class="st1" d="M11.8,50.7l21.8-7.5C27.3,45.8,23,52,23,59.5v79.7l-21.8-66C-2.6,63.8,3,53.9,11.8,50.7z"/>
	
		<linearGradient id="SVGID_2_" gradientUnits="userSpaceOnUse" x1="32.5939" y1="3757.9758" x2="192.0098" y2="3757.9758" gradientTransform="matrix(1 0 0 1 0 -3736.3401)">
		<stop  offset="0" style="stop-color:#00A99D"/>
		<stop  offset="1" style="stop-color:#0071BC"/>
	</linearGradient>
	<path class="st2" d="M182.4,12.1l10,29.9H41c-1.2,0-6.8,0.6-8.1,1.2L160.6,0.9C169.3-2.2,179.3,2.8,182.4,12.1z"/>
	
		<linearGradient id="SVGID_3_" gradientUnits="userSpaceOnUse" x1="12.4888" y1="3859.9424" x2="223.4309" y2="3859.9424" gradientTransform="matrix(1 0 0 1 0 -3736.3401)">
		<stop  offset="0" style="stop-color:#32FFC2"/>
		<stop  offset="1" style="stop-color:#00A9EB"/>
	</linearGradient>
	<circle class="st3" cx="118.2" cy="123.6" r="105.2"/>
	
		<linearGradient id="SVGID_4_" gradientUnits="userSpaceOnUse" x1="22.9716" y1="3863.3672" x2="225.6814" y2="3863.3672" gradientTransform="matrix(1 0 0 1 0 -3736.3401)">
		<stop  offset="0" style="stop-color:#00C4E6"/>
		<stop  offset="1" style="stop-color:#1E8BAC"/>
	</linearGradient>
	<path class="st4" d="M207.3,212H40.4c-10,0-17.4-8.1-17.4-17.4V59.5c0-10,8.1-17.4,17.4-17.4h166.9c10,0,17.4,8.1,17.4,17.4v135.1
		C226,203.3,217.9,212,207.3,212z"/>
	
		<linearGradient id="SVGID_5_" gradientUnits="userSpaceOnUse" x1="153.3763" y1="3862.1218" x2="233.9467" y2="3862.1218" gradientTransform="matrix(1 0 0 1 0 -3736.3401)">
		<stop  offset="0" style="stop-color:#0086AE"/>
		<stop  offset="1" style="stop-color:#0071BC"/>
	</linearGradient>
	<path class="st5" d="M176.2,95.6h50.4c4.4,0,7.5,3.7,7.5,7.5v45.5c0,4.4-3.7,7.5-7.5,7.5h-50.4c-12.5,0-22.4-10-22.4-22.4V118
		C153.1,105.5,163.7,95.6,176.2,95.6z"/>
	<circle class="st6" cx="178.7" cy="126.7" r="12.5"/>
	<g>
		
			<linearGradient id="XMLID_4_" gradientUnits="userSpaceOnUse" x1="43.2561" y1="3862.1218" x2="139.2612" y2="3862.1218" gradientTransform="matrix(1 0 0 1 0 -3736.3401)">
			<stop  offset="0" style="stop-color:#32FFC2"/>
			<stop  offset="1" style="stop-color:#00A9EB"/>
		</linearGradient>
		<path id="XMLID_2_" class="st7" d="M139.4,126.1c0,26.2-21.8,47.9-48.6,47.9c-13.1,0-24.3-5.6-33.6-13.7
			c-8.7-8.7-14.3-20.5-14.3-34.9c0-26.2,21.8-47.9,48.6-47.9C118.2,77.5,139.4,99.3,139.4,126.1z"/>
		
			<linearGradient id="XMLID_5_" gradientUnits="userSpaceOnUse" x1="43.2561" y1="3862.1218" x2="139.2612" y2="3862.1218" gradientTransform="matrix(1 0 0 1 0 -3736.3401)">
			<stop  offset="0" style="stop-color:#32FFC2"/>
			<stop  offset="1" style="stop-color:#00A9EB"/>
		</linearGradient>
		<path id="XMLID_1_" class="st8" d="M139.4,126.1c0,26.2-21.8,47.9-48.6,47.9c-13.1,0-24.3-5.6-33.6-13.7
			c-8.7-8.7-14.3-20.5-14.3-34.9c0-26.2,21.8-47.9,48.6-47.9C118.2,77.5,139.4,99.3,139.4,126.1z"/>
		<path class="st6" d="M68,142.1c-2.7,5.2-5.6,10.4-8.6,15.5c-0.1,0.2-1.7,2.6-1.6,2.8c0,0,4.4,5.6,16.2,10.6l6.2-16.2l4.4-11.2
			l4.4-12.5c0,0,1.2-3.7,1.2-3.7c0-0.1,0.1-0.3,0.1-0.4c0.3,0.8,1.5,3.7,1.7,4.6c0.5,1.8,1.2,3.6,1.8,5.4c1.2,3.6,2.4,7.2,3.6,10.8
			c1.3,3.9,2.6,7.9,4,11.8c0.7,1.9,1.3,3.9,2,5.8c0.6,1.7,2.1,4.6,2.2,6.4c2.1-0.8,4.6-1.7,6.5-2.6c2-1,4-2.1,5.8-3.3
			c0.6-0.4,4.6-3.3,5.9-4.6c-2.2-3.9-5.3-8.5-7.3-12.4c-4.5-8.5-8.4-17.4-11.8-26.4c-2.6-7-4.9-14.1-6.8-21.3
			c-1-3.6-1.4-5.5-2.4-9.1c-0.9-3.3-2.1-8-3.4-11.2c0,0-1.4,3.5-1.5,3.8c-0.6,1.8-1.2,3.5-1.8,5.3c-2.5,6.1-4.1,12.6-6.4,18.7
			c-2.4,6.5-5,12.9-7.8,19.2C72.6,132.8,70.4,137.4,68,142.1z"/>
	</g>
</g>
<g>
	<linearGradient id="SVGID_6_" gradientUnits="userSpaceOnUse" x1="54.2816" y1="258.8907" x2="61.3609" y2="306.8728">
		<stop  offset="0" style="stop-color:#00C4E6"/>
		<stop  offset="1" style="stop-color:#1E8BAC"/>
	</linearGradient>
	<path class="st9" d="M64.3,272.9v4H49v-26.1h4.8v22.1H64.3z"/>
	<linearGradient id="SVGID_7_" gradientUnits="userSpaceOnUse" x1="72.5708" y1="256.1923" x2="79.6501" y2="304.1743">
		<stop  offset="0" style="stop-color:#00C4E6"/>
		<stop  offset="1" style="stop-color:#1E8BAC"/>
	</linearGradient>
	<path class="st10" d="M74.3,258.2c1.4,0,2.6,0.2,3.7,0.7c1.1,0.4,2.1,1.1,2.9,1.9c0.8,0.8,1.4,1.8,1.8,3c0.4,1.2,0.7,2.5,0.7,3.9
		c0,1.5-0.2,2.8-0.7,4c-0.4,1.2-1,2.2-1.8,3c-0.8,0.8-1.8,1.5-2.9,1.9c-1.1,0.4-2.4,0.7-3.7,0.7c-1.4,0-2.6-0.2-3.8-0.7
		c-1.1-0.4-2.1-1.1-2.9-1.9c-0.8-0.8-1.4-1.8-1.9-3c-0.4-1.2-0.7-2.5-0.7-4c0-1.5,0.2-2.8,0.7-3.9c0.4-1.2,1.1-2.2,1.9-3
		c0.8-0.8,1.8-1.4,2.9-1.9C71.7,258.4,72.9,258.2,74.3,258.2z M74.3,273.8c1.5,0,2.7-0.5,3.4-1.6c0.7-1,1.1-2.5,1.1-4.5
		c0-2-0.4-3.5-1.1-4.6c-0.7-1-1.9-1.6-3.4-1.6c-1.6,0-2.7,0.5-3.5,1.6c-0.8,1.1-1.1,2.6-1.1,4.5s0.4,3.5,1.1,4.5
		C71.6,273.3,72.7,273.8,74.3,273.8z"/>
	<linearGradient id="SVGID_8_" gradientUnits="userSpaceOnUse" x1="90.9785" y1="253.4764" x2="98.0578" y2="301.4585">
		<stop  offset="0" style="stop-color:#00C4E6"/>
		<stop  offset="1" style="stop-color:#1E8BAC"/>
	</linearGradient>
	<path class="st11" d="M86.4,261c2.1-2,4.7-2.9,7.7-2.9c1.1,0,2,0.2,2.9,0.5c0.9,0.4,1.6,0.8,2.2,1.5c0.6,0.6,1,1.4,1.3,2.3
		c0.3,0.9,0.5,1.8,0.5,2.9v11.7h-2c-0.4,0-0.7-0.1-1-0.2c-0.2-0.1-0.4-0.4-0.5-0.8l-0.4-1.3c-0.5,0.4-0.9,0.8-1.4,1.1
		c-0.4,0.3-0.9,0.6-1.4,0.8c-0.5,0.2-1,0.4-1.5,0.5c-0.5,0.1-1.2,0.2-1.8,0.2c-0.8,0-1.5-0.1-2.2-0.3c-0.7-0.2-1.2-0.5-1.7-0.9
		c-0.5-0.4-0.9-0.9-1.1-1.6c-0.3-0.6-0.4-1.4-0.4-2.2c0-0.5,0.1-0.9,0.2-1.4c0.2-0.5,0.4-0.9,0.8-1.3c0.4-0.4,0.8-0.8,1.4-1.2
		c0.6-0.4,1.3-0.7,2.1-1c0.8-0.3,1.8-0.5,2.9-0.7c1.1-0.2,2.3-0.3,3.8-0.3v-1.1c0-1.2-0.3-2.2-0.8-2.7s-1.3-0.9-2.3-0.9
		c-0.7,0-1.3,0.1-1.8,0.3c-0.5,0.2-0.9,0.4-1.3,0.6c-0.4,0.2-0.7,0.4-1,0.6c-0.3,0.2-0.6,0.2-1,0.2c-0.3,0-0.6-0.1-0.8-0.2
		c-0.2-0.2-0.4-0.4-0.5-0.6L86.4,261z M96.6,269.1c-1.3,0.1-2.4,0.2-3.2,0.3c-0.9,0.2-1.6,0.4-2.1,0.6c-0.5,0.2-0.9,0.5-1.1,0.9
		c-0.2,0.3-0.3,0.7-0.3,1.1c0,0.8,0.2,1.3,0.7,1.7c0.5,0.3,1.1,0.5,1.8,0.5c0.9,0,1.7-0.2,2.4-0.5c0.7-0.3,1.3-0.8,2-1.5V269.1z"/>
	<linearGradient id="SVGID_9_" gradientUnits="userSpaceOnUse" x1="111.3177" y1="250.4755" x2="118.3971" y2="298.4576">
		<stop  offset="0" style="stop-color:#00C4E6"/>
		<stop  offset="1" style="stop-color:#1E8BAC"/>
	</linearGradient>
	<path class="st12" d="M121.2,250.2v26.8h-2.7c-0.6,0-1-0.3-1.1-0.8l-0.4-1.8c-0.7,0.9-1.6,1.5-2.6,2.1c-1,0.5-2.1,0.8-3.4,0.8
		c-1,0-1.9-0.2-2.8-0.6c-0.8-0.4-1.6-1-2.2-1.8c-0.6-0.8-1.1-1.8-1.4-3c-0.3-1.2-0.5-2.5-0.5-4c0-1.4,0.2-2.6,0.6-3.8
		c0.4-1.2,0.9-2.2,1.6-3.1c0.7-0.9,1.5-1.5,2.5-2c1-0.5,2.1-0.7,3.3-0.7c1,0,1.9,0.2,2.6,0.5c0.7,0.3,1.4,0.8,2,1.3v-9.8H121.2z
		 M116.7,263.2c-0.5-0.6-1.1-1-1.6-1.3c-0.6-0.3-1.2-0.4-1.9-0.4c-0.7,0-1.3,0.1-1.8,0.4c-0.5,0.2-1,0.6-1.4,1.1
		c-0.4,0.5-0.7,1.2-0.9,1.9c-0.2,0.8-0.3,1.7-0.3,2.8c0,1.1,0.1,2,0.3,2.7c0.2,0.8,0.4,1.4,0.7,1.8s0.7,0.8,1.2,1
		c0.5,0.2,1,0.3,1.6,0.3c0.9,0,1.7-0.2,2.4-0.6c0.6-0.4,1.3-0.9,1.8-1.6V263.2z"/>
	<linearGradient id="SVGID_10_" gradientUnits="userSpaceOnUse" x1="125.815" y1="248.3366" x2="132.8944" y2="296.3186">
		<stop  offset="0" style="stop-color:#00C4E6"/>
		<stop  offset="1" style="stop-color:#1E8BAC"/>
	</linearGradient>
	<path class="st13" d="M130.8,253.1c0,0.4-0.1,0.7-0.2,1.1c-0.2,0.3-0.4,0.6-0.6,0.9c-0.3,0.3-0.6,0.5-0.9,0.6
		c-0.4,0.1-0.7,0.2-1.1,0.2c-0.4,0-0.7-0.1-1.1-0.2c-0.3-0.2-0.6-0.4-0.9-0.6c-0.3-0.2-0.5-0.5-0.6-0.9c-0.2-0.3-0.2-0.7-0.2-1.1
		c0-0.4,0.1-0.8,0.2-1.1c0.1-0.4,0.3-0.7,0.6-0.9c0.2-0.2,0.5-0.5,0.9-0.6c0.3-0.2,0.7-0.2,1.1-0.2c0.4,0,0.8,0.1,1.1,0.2
		c0.3,0.2,0.7,0.4,0.9,0.6c0.3,0.3,0.5,0.6,0.6,0.9C130.7,252.3,130.8,252.7,130.8,253.1z M130.2,258.5v18.5h-4.5v-18.5H130.2z"/>
	<linearGradient id="SVGID_11_" gradientUnits="userSpaceOnUse" x1="139.2074" y1="246.3606" x2="146.2867" y2="294.3427">
		<stop  offset="0" style="stop-color:#00C4E6"/>
		<stop  offset="1" style="stop-color:#1E8BAC"/>
	</linearGradient>
	<path class="st14" d="M138.9,260.7c0.4-0.4,0.8-0.7,1.2-1c0.4-0.3,0.9-0.6,1.3-0.8c0.5-0.2,1-0.4,1.5-0.5c0.5-0.1,1.1-0.2,1.7-0.2
		c1,0,1.9,0.2,2.7,0.5c0.8,0.3,1.4,0.8,2,1.4c0.5,0.6,0.9,1.4,1.2,2.2c0.3,0.9,0.4,1.8,0.4,2.8v11.8h-4.5v-11.8c0-1.1-0.3-2-0.8-2.6
		c-0.5-0.6-1.3-0.9-2.4-0.9c-0.8,0-1.5,0.2-2.2,0.5c-0.7,0.4-1.3,0.8-1.9,1.4v13.4h-4.5v-18.5h2.7c0.6,0,1,0.3,1.1,0.8L138.9,260.7z
		"/>
	<linearGradient id="SVGID_12_" gradientUnits="userSpaceOnUse" x1="158.7579" y1="243.4761" x2="165.8373" y2="291.4582">
		<stop  offset="0" style="stop-color:#00C4E6"/>
		<stop  offset="1" style="stop-color:#1E8BAC"/>
	</linearGradient>
	<path class="st15" d="M171.3,259.1v1.7c0,0.5-0.3,0.9-1,1l-1.7,0.3c0.2,0.6,0.4,1.3,0.4,2.1c0,0.9-0.2,1.7-0.5,2.5
		c-0.4,0.7-0.9,1.4-1.5,1.9s-1.4,0.9-2.3,1.2c-0.9,0.3-1.8,0.4-2.9,0.4c-0.4,0-0.7,0-1-0.1c-0.3,0-0.7-0.1-1-0.1
		c-0.6,0.3-0.9,0.7-0.9,1.2c0,0.4,0.2,0.6,0.5,0.8c0.3,0.2,0.8,0.3,1.4,0.4c0.6,0.1,1.2,0.1,1.9,0.1c0.7,0,1.5,0.1,2.2,0.1
		c0.8,0.1,1.5,0.2,2.2,0.3c0.7,0.1,1.4,0.4,1.9,0.7c0.6,0.3,1,0.8,1.4,1.3c0.3,0.6,0.5,1.3,0.5,2.2c0,0.8-0.2,1.6-0.6,2.4
		c-0.4,0.8-1,1.5-1.8,2.1c-0.8,0.6-1.7,1.1-2.8,1.5c-1.1,0.4-2.4,0.5-3.8,0.5c-1.4,0-2.6-0.1-3.6-0.4c-1-0.3-1.9-0.6-2.6-1.1
		c-0.7-0.5-1.2-1-1.5-1.6c-0.3-0.6-0.5-1.2-0.5-1.8c0-0.9,0.3-1.6,0.8-2.2c0.5-0.6,1.2-1.1,2.2-1.4c-0.5-0.3-0.9-0.6-1.2-1
		c-0.3-0.4-0.4-1-0.4-1.7c0-0.3,0-0.6,0.2-0.9c0.1-0.3,0.2-0.6,0.4-0.9c0.2-0.3,0.5-0.6,0.7-0.8c0.3-0.3,0.7-0.5,1.1-0.7
		c-0.9-0.5-1.7-1.2-2.2-2c-0.5-0.8-0.8-1.8-0.8-3c0-0.9,0.2-1.7,0.5-2.5c0.4-0.7,0.9-1.4,1.5-1.9c0.7-0.5,1.4-0.9,2.3-1.2
		c0.9-0.3,1.9-0.4,2.9-0.4c0.8,0,1.5,0.1,2.2,0.2c0.7,0.2,1.3,0.4,1.9,0.7H171.3z M166.8,277.8c0-0.4-0.1-0.7-0.3-0.9
		c-0.2-0.2-0.5-0.4-0.9-0.5c-0.4-0.1-0.8-0.2-1.3-0.3c-0.5-0.1-1-0.1-1.6-0.1c-0.6,0-1.1-0.1-1.7-0.1c-0.6,0-1.2-0.1-1.7-0.1
		c-0.5,0.3-0.9,0.6-1.2,1c-0.3,0.4-0.5,0.8-0.5,1.3c0,0.3,0.1,0.6,0.2,0.9c0.2,0.3,0.4,0.5,0.8,0.7c0.4,0.2,0.8,0.4,1.4,0.5
		c0.6,0.1,1.3,0.2,2.1,0.2c0.8,0,1.5-0.1,2.1-0.2c0.6-0.1,1.1-0.3,1.5-0.5c0.4-0.2,0.7-0.5,0.9-0.8
		C166.8,278.5,166.8,278.1,166.8,277.8z M161.8,267.2c0.6,0,1-0.1,1.4-0.2c0.4-0.2,0.7-0.4,1-0.6c0.3-0.3,0.5-0.6,0.6-1
		c0.1-0.4,0.2-0.8,0.2-1.2c0-0.9-0.3-1.6-0.8-2.2c-0.5-0.5-1.4-0.8-2.5-0.8s-1.9,0.3-2.5,0.8s-0.8,1.3-0.8,2.2
		c0,0.4,0.1,0.8,0.2,1.2c0.1,0.4,0.3,0.7,0.6,1c0.3,0.3,0.6,0.5,1,0.6C160.8,267.2,161.3,267.2,161.8,267.2z"/>
	<linearGradient id="SVGID_13_" gradientUnits="userSpaceOnUse" x1="179.903" y1="240.3564" x2="186.9823" y2="288.3384">
		<stop  offset="0" style="stop-color:#00C4E6"/>
		<stop  offset="1" style="stop-color:#1E8BAC"/>
	</linearGradient>
	<path class="st16" d="M182.2,274.5c0-0.4,0.1-0.7,0.2-1.1c0.1-0.3,0.3-0.6,0.6-0.9c0.2-0.2,0.5-0.4,0.9-0.6
		c0.3-0.1,0.7-0.2,1.1-0.2c0.4,0,0.7,0.1,1.1,0.2c0.3,0.1,0.6,0.3,0.9,0.6c0.2,0.2,0.4,0.5,0.6,0.9c0.1,0.3,0.2,0.7,0.2,1.1
		c0,0.4-0.1,0.7-0.2,1.1c-0.1,0.3-0.3,0.6-0.6,0.9c-0.2,0.2-0.5,0.4-0.9,0.6c-0.3,0.1-0.7,0.2-1.1,0.2c-0.4,0-0.7-0.1-1.1-0.2
		c-0.3-0.1-0.6-0.3-0.9-0.6c-0.2-0.2-0.4-0.5-0.6-0.9C182.3,275.2,182.2,274.9,182.2,274.5z"/>
	<linearGradient id="SVGID_14_" gradientUnits="userSpaceOnUse" x1="188.283" y1="239.12" x2="195.3623" y2="287.1021">
		<stop  offset="0" style="stop-color:#00C4E6"/>
		<stop  offset="1" style="stop-color:#1E8BAC"/>
	</linearGradient>
	<path class="st17" d="M190.8,274.5c0-0.4,0.1-0.7,0.2-1.1c0.1-0.3,0.3-0.6,0.6-0.9c0.2-0.2,0.5-0.4,0.9-0.6
		c0.3-0.1,0.7-0.2,1.1-0.2c0.4,0,0.7,0.1,1.1,0.2c0.3,0.1,0.6,0.3,0.9,0.6c0.2,0.2,0.4,0.5,0.6,0.9c0.1,0.3,0.2,0.7,0.2,1.1
		c0,0.4-0.1,0.7-0.2,1.1c-0.1,0.3-0.3,0.6-0.6,0.9c-0.2,0.2-0.5,0.4-0.9,0.6c-0.3,0.1-0.7,0.2-1.1,0.2c-0.4,0-0.7-0.1-1.1-0.2
		c-0.3-0.1-0.6-0.3-0.9-0.6c-0.2-0.2-0.4-0.5-0.6-0.9C190.8,275.2,190.8,274.9,190.8,274.5z"/>
	<linearGradient id="SVGID_15_" gradientUnits="userSpaceOnUse" x1="196.6629" y1="237.8836" x2="203.7423" y2="285.8657">
		<stop  offset="0" style="stop-color:#00C4E6"/>
		<stop  offset="1" style="stop-color:#1E8BAC"/>
	</linearGradient>
	<path class="st18" d="M199.3,274.5c0-0.4,0.1-0.7,0.2-1.1c0.1-0.3,0.3-0.6,0.6-0.9c0.2-0.2,0.5-0.4,0.9-0.6
		c0.3-0.1,0.7-0.2,1.1-0.2c0.4,0,0.7,0.1,1.1,0.2c0.3,0.1,0.6,0.3,0.9,0.6c0.2,0.2,0.4,0.5,0.6,0.9c0.1,0.3,0.2,0.7,0.2,1.1
		c0,0.4-0.1,0.7-0.2,1.1c-0.1,0.3-0.3,0.6-0.6,0.9c-0.2,0.2-0.5,0.4-0.9,0.6c-0.3,0.1-0.7,0.2-1.1,0.2c-0.4,0-0.7-0.1-1.1-0.2
		c-0.3-0.1-0.6-0.3-0.9-0.6c-0.2-0.2-0.4-0.5-0.6-0.9C199.4,275.2,199.3,274.9,199.3,274.5z"/>
</g>
</svg>
