<?xml version="1.0" encoding="utf-8"?>
<!-- Generator: Adobe Illustrator 26.0.2, SVG Export Plug-In . SVG Version: 6.00 Build 0)  -->
<svg version="1.1" id="Isolation_Mode" xmlns="http://www.w3.org/2000/svg" xmlns:xlink="http://www.w3.org/1999/xlink" x="0px"
	 y="0px" viewBox="0 0 637.3 559.6" style="enable-background:new 0 0 637.3 559.6;" xml:space="preserve">
<style type="text/css">
	.st0{fill-rule:evenodd;clip-rule:evenodd;}
</style>
<path d="M488.4,222.1l43.4-1.9c7.5-1.9,15.1-9.4,15.1-18.9v-52.8H79.2c-9.4,0-17-7.5-17-15.1c0-9.4,7.5-17,17-17h86.7l60.3-28.3
	H52.8c-11.3,0-20.7,9.4-20.7,20.7v399.7c0,11.3,9.4,20.7,20.7,20.7h473.3c11.3,0,20.7-9.4,20.7-20.7v-92.4
	c0-11.3-9.4-20.7-20.7-20.7H462c-28.3,0-50.9-22.6-50.9-52.8V273C411.1,225.9,450.6,222.1,488.4,222.1L488.4,222.1z M239.5,116.5
	h207.4l-39.6-79.2L239.5,116.5L239.5,116.5z M482.7,116.5h64.1v-7.5c0-11.3-9.4-20.7-20.7-20.7h-58.5L482.7,116.5L482.7,116.5z
	 M452.5,56.2h73.5c28.3,0,50.9,24.5,50.9,52.8v92.4c0,7.5,0,13.2-3.8,20.7h11.3c28.3,0,52.8,22.6,52.8,50.9v69.8
	c0,28.3-24.5,52.8-52.8,52.8h-11.3c3.8,5.7,3.8,13.2,3.8,20.7v92.4c0,28.3-22.6,50.9-50.9,50.9H52.8C24.5,559.6,0,537,0,508.7V109
	c0-28.3,24.5-52.8,52.8-52.8h239.5L409.2,1.5c7.5-3.8,17,0,20.7,7.5L452.5,56.2L452.5,56.2z M584.5,254.1H462
	c-11.3,0-18.9,7.5-18.9,18.9v69.8c0,11.3,7.5,20.7,18.9,20.7h122.6c11.3,0,20.7-9.4,20.7-20.7V273
	C605.3,261.7,595.8,254.1,584.5,254.1L584.5,254.1z"/>
<path class="st0" d="M524.2,308.8c0,13.5-11,24.5-24.5,24.5c-13.5,0-24.5-11-24.5-24.5c0-13.5,11-24.5,24.5-24.5
	C513.2,284.3,524.2,295.3,524.2,308.8"/>
</svg>
