<?xml version="1.0" encoding="utf-8"?>
<!-- Generator: Adobe Illustrator 23.0.3, SVG Export Plug-In . SVG Version: 6.00 Build 0)  -->
<!DOCTYPE svg PUBLIC "-//W3C//DTD SVG 1.1//EN" "http://www.w3.org/Graphics/SVG/1.1/DTD/svg11.dtd" [
	<!ENTITY ns_extend "http://ns.adobe.com/Extensibility/1.0/">
	<!ENTITY ns_ai "http://ns.adobe.com/AdobeIllustrator/10.0/">
	<!ENTITY ns_graphs "http://ns.adobe.com/Graphs/1.0/">
	<!ENTITY ns_vars "http://ns.adobe.com/Variables/1.0/">
	<!ENTITY ns_imrep "http://ns.adobe.com/ImageReplacement/1.0/">
	<!ENTITY ns_sfw "http://ns.adobe.com/SaveForWeb/1.0/">
	<!ENTITY ns_custom "http://ns.adobe.com/GenericCustomNamespace/1.0/">
	<!ENTITY ns_adobe_xpath "http://ns.adobe.com/XPath/1.0/">
]>
<svg version="1.1" id="Layer_1" xmlns:x="&ns_extend;" xmlns:i="&ns_ai;" xmlns:graph="&ns_graphs;"
	 xmlns="http://www.w3.org/2000/svg" xmlns:xlink="http://www.w3.org/1999/xlink" x="0px" y="0px" viewBox="0 0 128 125.9"
	 style="enable-background:new 0 0 128 125.9;" xml:space="preserve">
<style type="text/css">
	.st0{fill:#FFFFFF;}
	.st1{fill-rule:evenodd;clip-rule:evenodd;}
</style>
<metadata>
	<sfw  xmlns="&ns_sfw;">
		<slices></slices>
		<sliceSourceBounds  bottomLeftOrigin="true" height="125.9" width="128" x="0" y="32.9"></sliceSourceBounds>
	</sfw>
</metadata>
<g>
	<path d="M37.1,3.1h11.7L59,46.6c0,0.1,0,0.1,0,0.2c0,0.1,0.1,0.2,0.1,0.3c0.1,0.1,0.1,0.2,0.2,0.3l0.1,0.1c0.1,0.1,0.2,0.1,0.3,0.2
		l0.1,0.1c0.2,0.1,0.3,0.1,0.5,0.1h56.7c0.7,0,1.4-0.5,1.6-1.2l7.9-33.6c0.2-0.8-0.3-1.7-1.2-1.9c-0.1,0-0.3,0-0.4,0H53.9l-2.3-9.9
		C51.4,0.5,50.8,0,50,0H37.1c-0.9,0-1.6,0.7-1.6,1.6S36.3,3.1,37.1,3.1z M87.3,44.7H75.8l-1.3-13.3h12.8V44.7z M108.8,14.3h14.4
		l-3.3,13.9h-12.7L108.8,14.3z M119.1,31.4L116,44.7h-10.7l1.6-13.3H119.1z M90.5,14.3h15.1L104,28.2H90.5V14.3z M90.5,31.4h13.1
		l-1.6,13.3H90.5V31.4z M87.3,14.3v13.9H74.2l-1.3-13.9H87.3z M72.7,44.7H61.8l-0.2-0.9l-2.9-12.4h12.7L72.7,44.7z M69.8,14.3
		l1.3,13.9H58l-3.3-13.9H69.8z"/>
	<path d="M116.5,56.4c0-0.9-0.7-1.6-1.6-1.6H80.6c-0.9,0-1.6,0.7-1.6,1.6c0,0.9,0.7,1.6,1.6,1.6h34.3
		C115.8,58,116.5,57.3,116.5,56.4z"/>
	<path d="M95.9,69.4c0,5,4.1,9.1,9.1,9.1c5,0,9.1-4.1,9.1-9.1c0-5-4.1-9.1-9.1-9.1l0,0C100,60.3,95.9,64.4,95.9,69.4z M110.9,69.4
		c0,3.3-2.7,5.9-5.9,5.9c-3.3,0-5.9-2.7-5.9-5.9s2.7-5.9,5.9-5.9l0,0C108.2,63.4,110.9,66,110.9,69.4C111,69.3,111,69.4,110.9,69.4
		L110.9,69.4z"/>
</g>
<path d="M126.3,48c-0.5-2-1-4-1.7-5.9c-0.2-0.5-0.7-0.8-1.3-0.6c-0.5,0.2-0.8,0.7-0.6,1.3c0.6,1.9,1.2,3.8,1.6,5.8
	c7.7,33.3-13,66.6-46.4,74.4c-1.9,0.4-3.8,0.8-5.7,1.1c-0.6,0-1,0.5-0.9,1.1c0,0.6,0.5,1,1.1,0.9h0.1c2-0.3,4-0.6,5.9-1.1
	C112.9,116.8,134.3,82.5,126.3,48C126.4,48,126.4,48,126.3,48L126.3,48z"/>
<ellipse class="st0" cx="52.7" cy="56.4" rx="36.4" ry="24.2"/>
<path d="M1,62.6L1,62.6c0.6,0,1-0.4,1-1c0.3-22.7,12.9-43.4,33-54c0.5-0.2,0.7-0.8,0.5-1.3c-0.2-0.5-0.8-0.7-1.3-0.5c0,0,0,0,0,0
	C13.4,16.8,0.3,38.2,0,61.6C0,62.1,0.4,62.6,1,62.6C1,62.6,1,62.6,1,62.6z"/>
<g>
	<path class="st1" d="M79.1,99.3c-3.6,2.2-7.8,3.9-12.4,5c5.4-4.6,8.3-10.2,8.3-16.2v-1.8c0.8-0.4,1.5-0.8,2.2-1.3
		c4.3-2.6,7.6-5.6,9.9-9c1.8,2.5,2.7,5.2,2.7,8C89.7,89.8,85.9,95.2,79.1,99.3L79.1,99.3L79.1,99.3z M87.8,97.2
		c0,3.8-2,7.4-5.7,10.5v-6.3c2.3-1.5,4.2-3.1,5.7-4.8V97.2L87.8,97.2z M80.6,108.9c-0.5,0.4-1.1,0.8-1.7,1.1c-1.7,1-3.5,1.9-5.4,2.7
		v-7.1c2.5-0.9,4.9-2,7.1-3.2V108.9L80.6,108.9z M72,113.2c-2.2,0.8-4.6,1.4-7.1,1.8v-7.4c2.4-0.4,4.8-0.9,7.1-1.6V113.2L72,113.2z
		 M63.6,100.2c-0.5,0.4-1.1,0.8-1.7,1.1c-1.7,1-3.5,1.9-5.4,2.7v-7.1c2.5-0.9,4.9-2,7.1-3.2V100.2L63.6,100.2z M63.4,115.3
		c-2.3,0.3-4.7,0.5-7.1,0.5V109c0.6-0.2,1.2-0.4,1.8-0.7c1.8-0.1,3.5-0.2,5.3-0.4V115.3L63.4,115.3z M52.3,87.8v-7.4
		c2.4,0,4.8-0.2,7.1-0.5v7.4C57.1,87.6,54.8,87.8,52.3,87.8L52.3,87.8L52.3,87.8z M41.1,96.3c-9.8,0-19-2.3-25.9-6.5
		c-6.5-3.9-10-9-10-14.3c0-5.1,3.4-10.1,9.5-13.9v5.8c0,7.2,4.4,13.8,12.5,18.7c7.7,4.6,17.8,7.2,28.6,7.2c1.4,0,2.8,0,4.1-0.1
		C54.3,95.2,47.8,96.3,41.1,96.3L41.1,96.3L41.1,96.3z M55,104.5c-2.2,0.8-4.6,1.4-7.1,1.8V99c2.4-0.4,4.8-0.9,7.1-1.6V104.5
		L55,104.5z M54.8,115.8c-2.4,0-4.8-0.3-7.1-0.6v-4.1c2.4-0.4,4.8-0.9,7.1-1.6V115.8L54.8,115.8z M46.4,106.6
		c-2.3,0.3-4.7,0.5-7.1,0.5v-7.4c2.4,0,4.8-0.2,7.1-0.5V106.6L46.4,106.6z M46.2,114.9c-2.5-0.5-4.8-1.1-7.1-1.9v-1.2
		c2.4,0,4.8-0.2,7.1-0.4V114.9L46.2,114.9z M37.8,107.1c-2.4,0-4.8-0.3-7.1-0.6v-7.4c2.3,0.3,4.7,0.5,7.1,0.6V107.1L37.8,107.1z
		 M29.2,106.2c-2.5-0.5-4.8-1.1-7.1-1.9v-7.2c2.3,0.7,4.6,1.3,7.1,1.7V106.2L29.2,106.2z M20.6,103.7c-1.6-0.7-3.2-1.5-4.6-2.4
		c-0.9-0.5-1.7-1.1-2.4-1.7v-6.5c0,0,0,0,0,0c2.1,1.3,4.5,2.4,7,3.4V103.7L20.6,103.7z M12,98.4c-3.2-3-5-6.4-5-9.9v-0.7
		c1.4,1.6,3,3,5,4.4V98.4L12,98.4z M18.2,66.3c1.9,1.9,4.1,5,6.8,6.6v6.1c-4.4-3.6-6.8-7.7-6.8-12V66.3L18.2,66.3z M33.6,77.3v7.1
		C32,83.7,30.4,82.9,29,82c-0.9-0.5-1.7-1.1-2.4-1.7v-6.5c0,0,0,0,0,0C28.7,75.2,31.1,76.3,33.6,77.3L33.6,77.3L33.6,77.3z
		 M42.2,79.5v7.4c-2.5-0.5-4.8-1.1-7.1-1.9v-7.2C37.4,78.5,39.8,79.1,42.2,79.5L42.2,79.5L42.2,79.5z M50.8,80.3v7.4
		c-2.4,0-4.8-0.3-7.1-0.6v-7.4C46,80.1,48.4,80.3,50.8,80.3L50.8,80.3L50.8,80.3z M69.6,84.7v-7.1c2.5-0.9,4.9-2,7.1-3.2v6.6
		c-0.5,0.4-1.1,0.8-1.7,1.1C73.3,83,71.5,83.9,69.6,84.7L69.6,84.7L69.6,84.7z M61,87v-7.4c2.4-0.4,4.8-0.9,7.1-1.6v7.2
		C65.8,86,63.4,86.6,61,87L61,87L61,87z M65.2,92.7c1.4-0.9,2.7-1.9,3.8-2.9c0.6-0.2,1.3-0.4,1.9-0.7c-0.2,3.6-2.2,7-5.7,9.9V92.7
		L65.2,92.7z M83.9,68.5v0.7c0,3.8-2,7.4-5.7,10.5v-6.3C80.4,71.9,82.3,70.3,83.9,68.5L83.9,68.5L83.9,68.5z M27.8,43.1
		c6.5-4,15.3-6.2,24.7-6.2c9.4,0,18.1,2.2,24.7,6.2c6.2,3.8,9.6,8.7,9.6,13.8s-3.4,10-9.6,13.8c-6.5,4-15.3,6.2-24.7,6.2
		c-9.4,0-18.1-2.2-24.7-6.2c-6.2-3.8-9.6-8.7-9.6-13.8S21.6,46.9,27.8,43.1L27.8,43.1L27.8,43.1z M86.9,72.6
		c0.4-1.4,0.7-2.9,0.7-4.4V56.5c0-6.2-3.9-12-10.9-16.3c-6.7-4.1-15.5-6.3-24.8-6.3c-9.3,0-18.1,2.2-24.8,6.3
		c-6.7,4.1-10.6,9.6-10.9,15.6V58c-0.6,0.3-1.2,0.7-1.8,1C7.6,63.1,3.8,68.6,3.5,74.6V87c0,6.2,3.9,12,10.9,16.3
		c3.4,2.1,7.4,3.7,11.7,4.7c1.4,1.3,3,2.6,4.9,3.7c6.7,4.1,15.5,6.3,24.8,6.3c9.3,0,18.1-2.2,24.8-6.3c7-4.3,10.9-10.1,10.9-16.3
		V83.7C91.4,79.8,89.8,76,86.9,72.6L86.9,72.6L86.9,72.6z"/>
</g>
</svg>
