<?xml version="1.0" encoding="utf-8"?>
<!-- Generator: Adobe Illustrator 23.0.3, SVG Export Plug-In . SVG Version: 6.00 Build 0)  -->
<!DOCTYPE svg PUBLIC "-//W3C//DTD SVG 1.1//EN" "http://www.w3.org/Graphics/SVG/1.1/DTD/svg11.dtd" [
	<!ENTITY ns_extend "http://ns.adobe.com/Extensibility/1.0/">
	<!ENTITY ns_ai "http://ns.adobe.com/AdobeIllustrator/10.0/">
	<!ENTITY ns_graphs "http://ns.adobe.com/Graphs/1.0/">
	<!ENTITY ns_vars "http://ns.adobe.com/Variables/1.0/">
	<!ENTITY ns_imrep "http://ns.adobe.com/ImageReplacement/1.0/">
	<!ENTITY ns_sfw "http://ns.adobe.com/SaveForWeb/1.0/">
	<!ENTITY ns_custom "http://ns.adobe.com/GenericCustomNamespace/1.0/">
	<!ENTITY ns_adobe_xpath "http://ns.adobe.com/XPath/1.0/">
]>
<svg version="1.1" id="Layer_1" xmlns:x="&ns_extend;" xmlns:i="&ns_ai;" xmlns:graph="&ns_graphs;"
	 xmlns="http://www.w3.org/2000/svg" xmlns:xlink="http://www.w3.org/1999/xlink" x="0px" y="0px" viewBox="0 0 128 126.4"
	 style="enable-background:new 0 0 128 126.4;" xml:space="preserve">
<style type="text/css">
	.st0{stroke:#000000;stroke-width:0.25;stroke-miterlimit:10;}
	.st1{clip-path:url(#SVGID_2_);}
	.st2{clip-path:url(#SVGID_4_);}
</style>
<metadata>
	<sfw  xmlns="&ns_sfw;">
		<slices></slices>
		<sliceSourceBounds  bottomLeftOrigin="true" height="126.4" width="128" x="-0.2" y="31.2"></sliceSourceBounds>
	</sfw>
</metadata>
<path d="M126.3,47.9c-0.5-2-1-4-1.7-5.9c-0.2-0.5-0.7-0.8-1.3-0.6c-0.5,0.2-0.8,0.7-0.6,1.3c0.6,1.9,1.2,3.8,1.6,5.8
	c7.7,33.3-13,66.6-46.4,74.4c-1.9,0.4-3.8,0.8-5.7,1.1c-0.6,0-1,0.5-0.9,1.1c0,0.6,0.5,1,1.1,0.9h0.1c2-0.3,4-0.6,5.9-1.1
	C112.9,116.8,134.3,82.4,126.3,47.9C126.4,48,126.4,48,126.3,47.9L126.3,47.9z"/>
<path d="M64,124.4c-1.5,0-3.1-0.1-4.6-0.2c-0.6,0-1,0.4-1.1,0.9c0,0.6,0.4,1,0.9,1.1c1.6,0.1,3.2,0.2,4.8,0.2c0.6,0,1-0.4,1-1
	S64.5,124.4,64,124.4L64,124.4z"/>
<path d="M43.8,3.7c0.1,0,0.2,0,0.3-0.1C46.1,3,48,2.4,50,2c0.5-0.1,0.9-0.7,0.8-1.2S50.1-0.1,49.6,0c-2,0.5-4.1,1-6,1.7
	C43,1.9,42.7,2.5,42.9,3C43,3.4,43.4,3.7,43.8,3.7L43.8,3.7z"/>
<path d="M1,62.5L1,62.5c0.6,0,1-0.4,1-1c0.3-22.7,12.9-43.4,33-54c0.5-0.2,0.7-0.8,0.5-1.3c-0.2-0.5-0.8-0.7-1.3-0.5c0,0,0,0,0,0
	C13.4,16.7,0.3,38.1,0,61.5C0,62.1,0.4,62.5,1,62.5C1,62.5,1,62.5,1,62.5z"/>
<path d="M42.8,120.2L42.8,120.2c0.2-0.5-0.1-1.1-0.6-1.3C21,110.8,6,91.7,3,69.2c-0.1-0.5-0.6-0.9-1.1-0.9c-0.5,0.1-0.9,0.6-0.9,1.1
	c0,0,0,0,0,0c3.1,23.2,18.6,42.9,40.5,51.3C42,120.9,42.6,120.7,42.8,120.2C42.8,120.2,42.8,120.2,42.8,120.2z"/>
<path d="M63.5,1L63.5,1c0,0.6,0.5,1,1,1c22.7,0.2,43.4,12.8,54.1,32.8c0.2,0.5,0.8,0.7,1.3,0.4c0.5-0.2,0.7-0.8,0.4-1.3c0,0,0,0,0,0
	C109.4,13.2,87.9,0.2,64.5,0C63.9,0,63.5,0.4,63.5,1C63.5,1,63.5,1,63.5,1z"/>
<g>
	<g>
		<path class="st0" d="M92.8,62.6c-0.1-7.5-3.2-14.4-8.1-19.4c-0.3-0.3-0.5-0.5-0.8-0.8c-5.1-4.9-11.9-7.9-19.4-8
			c-0.2,0-0.4,0-0.6,0c-0.2,0-0.4,0-0.6,0c-7.5,0.1-14.3,3.2-19.4,8c-0.3,0.3-0.5,0.5-0.8,0.8c-4.9,5-7.9,11.9-8,19.4
			c0,0.2,0,0.4,0,0.6s0,0.4,0,0.6c0,0.5,0,1,0.1,1.5c0.3,3.9,1.3,7.6,3,11c1.3,2.5,3,4.9,4.9,6.9c0.3,0.3,0.5,0.5,0.8,0.8
			c5.1,4.9,11.9,7.9,19.4,8c0.2,0,0.4,0,0.6,0c0.2,0,0.4,0,0.6,0c7.5-0.1,14.4-3.2,19.4-8c0.3-0.3,0.5-0.5,0.8-0.8
			c2-2,3.6-4.4,4.9-6.9c1.7-3.3,2.8-7,3.1-11c0-0.5,0.1-1,0.1-1.5c0-0.2,0-0.4,0-0.6S92.9,62.8,92.8,62.6z M91.1,65.3
			c-1.1,14-12.8,25.1-27.1,25.1c-14.3,0-26.1-11.1-27.1-25.1c-0.1-0.7-0.1-1.4-0.1-2.1c0-3.1,0.5-6.1,1.5-8.9C42,43.7,52.1,36,64,36
			c11.9,0,22,7.7,25.7,18.3c1,2.8,1.5,5.8,1.5,8.9C91.2,63.9,91.2,64.6,91.1,65.3z"/>
		<path class="st0" d="M92.8,62.6c-0.1-7.5-3.2-14.4-8.1-19.4c-0.3-0.3-0.5-0.5-0.8-0.8c-5.1-4.9-11.9-7.9-19.4-8
			c-0.2,0-0.4,0-0.6,0c-0.2,0-0.4,0-0.6,0c-7.5,0.1-14.3,3.2-19.4,8c-0.3,0.3-0.5,0.5-0.8,0.8c-4.9,5-7.9,11.9-8,19.4
			c0,0.2,0,0.4,0,0.6s0,0.4,0,0.6c0,0.5,0,1,0.1,1.5c0.3,3.9,1.3,7.6,3,11c1.3,2.5,3,4.9,4.9,6.9c0.3,0.3,0.5,0.5,0.8,0.8
			c5.1,4.9,11.9,7.9,19.4,8c0.2,0,0.4,0,0.6,0c0.2,0,0.4,0,0.6,0c7.5-0.1,14.4-3.2,19.4-8c0.3-0.3,0.5-0.5,0.8-0.8
			c2-2,3.6-4.4,4.9-6.9c1.7-3.3,2.8-7,3.1-11c0-0.5,0.1-1,0.1-1.5c0-0.2,0-0.4,0-0.6S92.9,62.8,92.8,62.6z M91.1,65.3
			c-1.1,14-12.8,25.1-27.1,25.1c-14.3,0-26.1-11.1-27.1-25.1c-0.1-0.7-0.1-1.4-0.1-2.1c0-3.1,0.5-6.1,1.5-8.9C42,43.7,52.1,36,64,36
			c11.9,0,22,7.7,25.7,18.3c1,2.8,1.5,5.8,1.5,8.9C91.2,63.9,91.2,64.6,91.1,65.3z"/>
		<path class="st0" d="M92.8,65.3c0-0.5-0.1-1-0.1-1.5c0-0.4-0.1-0.8-0.2-1.1c-0.5-2.9-1.4-5.8-2.8-8.3c1,2.8,1.5,5.8,1.5,8.9
			c0,0.7,0,1.4-0.1,2.1c0.1,0.7,0.1,1.4,0.1,2.1c0,3.1-0.5,6.1-1.5,8.9c-1,2.8-2.4,5.4-4.2,7.7c-0.2,0.3-0.5,0.6-0.7,0.9
			c-4.9,5.8-12.1,9.6-20.3,9.7c-0.2,0-0.4,0-0.6,0c-0.2,0-0.4,0-0.6,0c-8.1-0.2-15.4-3.9-20.3-9.7c-0.2-0.3-0.5-0.6-0.7-0.9
			c-1.8-2.3-3.2-4.9-4.2-7.7c-1-2.8-1.5-5.8-1.5-8.9c0-0.7,0-1.4,0.1-2.1c-0.1-0.7-0.1-1.4-0.1-2.1c0-3.1,0.5-6.1,1.5-8.9
			c-1.3,2.6-2.3,5.4-2.8,8.3c-0.1,0.4-0.1,0.8-0.2,1.1c-0.1,0.5-0.1,1-0.1,1.5c-0.1,0.7-0.1,1.4-0.1,2.1c0,6.7,2.3,12.8,6.1,17.8
			c0.2,0.3,0.5,0.6,0.7,0.9c5.2,6.1,12.9,10,21.4,10.2c0.2,0,0.4,0,0.6,0c0.2,0,0.4,0,0.6,0C73.2,96,80.8,92.1,86,86
			c0.3-0.3,0.5-0.6,0.7-0.9c3.9-4.9,6.1-11.1,6.1-17.8C92.9,66.7,92.8,66,92.8,65.3z"/>
		<polygon class="st0" points="63.4,95.1 64.6,95 64.6,103.9 63.4,103.9 		"/>
		<polygon class="st0" points="64,107.6 58.1,101.4 57.2,102.2 64,109.3 70.8,102.2 70,101.4 		"/>
		<polygon class="st0" points="63.4,22.5 64.6,22.5 64.6,35.2 63.4,35 		"/>
		<polygon class="st0" points="64,18.8 70,25 70.8,24.3 64,17.1 57.2,24.3 58.1,25 		"/>
		<polygon class="st0" points="91.7,62.6 104.7,62.6 104.7,63.8 92,63.8 		"/>
		<polygon class="st0" points="103,56.4 102.2,57.2 108.4,63.2 102.2,69.2 103,70 110.1,63.2 		"/>
		<rect x="23.3" y="62.6" class="st0" width="12.7" height="1.1"/>
		<polygon class="st0" points="25.8,57.2 25.1,56.4 18,63.2 25.1,70 25.8,69.2 19.6,63.2 		"/>
		<polygon class="st0" points="85.8,84.2 93.2,91.6 92.4,92.4 85.4,85.3 		"/>
		<polygon class="st0" points="95.2,86 95.4,94.6 86.8,94.4 86.8,95.5 96.6,95.8 96.4,86 		"/>
		<polygon class="st0" points="35.6,34 44.7,43.1 43.8,43.8 34.8,34.8 		"/>
		<polygon class="st0" points="32.8,40.4 32.6,31.8 41.2,32 41.3,30.9 31.4,30.6 31.7,40.5 		"/>
		<polygon class="st0" points="92.4,34 93.2,34.8 84.2,43.8 83.3,43.1 		"/>
		<polygon class="st0" points="95.4,31.8 95.2,40.4 96.4,40.5 96.6,30.6 86.8,30.9 86.8,32 		"/>
		<polygon class="st0" points="35.6,92.4 34.8,91.6 42,84.4 42.6,85.4 		"/>
		<polygon class="st0" points="42.7,86.5 41.9,85.7 44.3,83.3 45.5,83.7 		"/>
		<polygon class="st0" points="45.9,89.4 45.1,88.6 47.5,86.2 48.7,86.6 		"/>
		<polygon class="st0" points="49.6,91.7 48.8,90.9 51.2,88.5 52.4,88.9 		"/>
		<polygon class="st0" points="54.3,93.9 53.4,93.2 55.4,90.5 56.7,90.7 		"/>
		<polygon class="st0" points="59.2,95 58.2,94.5 59.8,91.5 61,91.4 		"/>
		<polygon class="st0" points="64.6,95.4 63.4,95.2 63.9,91.9 65.1,91.4 		"/>
		<polygon class="st0" points="68.5,94.9 67.5,94.4 69,91.4 70.3,91.4 		"/>
		<polygon class="st0" points="73,93.9 72,93.4 73.6,90.4 75.7,89.2 		"/>
		<polygon class="st0" points="77.6,91.9 76,92.4 78.1,88.4 80.2,87.2 		"/>
		<polygon class="st0" points="83.3,87.5 81.8,88.5 82.8,84.3 85.2,81.4 		"/>
		<polygon class="st0" points="32.6,94.6 32.8,86 31.7,86 31.4,95.8 41.3,95.5 41.2,94.4 		"/>
	</g>
	<g>
		<g>
			<defs>
				<rect id="SVGID_1_" x="31.1" y="44.7" width="65.8" height="37"/>
			</defs>
			<clipPath id="SVGID_2_">
				<use xlink:href="#SVGID_1_"  style="overflow:visible;"/>
			</clipPath>
			<g class="st1">
				<defs>
					<rect id="SVGID_3_" x="31.1" y="44.7" width="65.8" height="37"/>
				</defs>
				<clipPath id="SVGID_4_">
					<use xlink:href="#SVGID_3_"  style="overflow:visible;"/>
				</clipPath>
				<path class="st2" d="M55.5,69.2l-3.9,6.7c0,0,1.6,2.2,6.2,3.9l2.3-6.1l1.5-4.1l1.6-4.5c0,0,0.5-1.5,0.5-1.5l0.1-0.2
					c0,0,0-0.1,0-0.1l0,0l0,0c0,0,0,0,0,0l0,0l0,0l0.1,0.1l0.1,0.4l0.3,0.9l1.1,3.3l0.9,2.9l1.5,4.4l1.1,3.1l0.6,1.7
					c0,0,3.6-1,6.6-4l-2.2-3.3l-1.4-2.4l-1.4-2.8L70,65l-1-2.3l-0.8-2.3l-0.7-2.2l-0.8-2.5l-0.8-2.6l-0.7-2.6l-0.8-2.9L64,46.2
					l-0.9,2.8L62,52.8l-0.9,2.9L60,59L59,61.6L58,64.2l-1.1,2.4L55.5,69.2z"/>
			</g>
		</g>
	</g>
</g>
</svg>
