<?xml version="1.0" encoding="utf-8"?>
<!-- Generator: Adobe Illustrator 23.0.3, SVG Export Plug-In . SVG Version: 6.00 Build 0)  -->
<!DOCTYPE svg PUBLIC "-//W3C//DTD SVG 1.1//EN" "http://www.w3.org/Graphics/SVG/1.1/DTD/svg11.dtd" [
	<!ENTITY ns_extend "http://ns.adobe.com/Extensibility/1.0/">
	<!ENTITY ns_ai "http://ns.adobe.com/AdobeIllustrator/10.0/">
	<!ENTITY ns_graphs "http://ns.adobe.com/Graphs/1.0/">
	<!ENTITY ns_vars "http://ns.adobe.com/Variables/1.0/">
	<!ENTITY ns_imrep "http://ns.adobe.com/ImageReplacement/1.0/">
	<!ENTITY ns_sfw "http://ns.adobe.com/SaveForWeb/1.0/">
	<!ENTITY ns_custom "http://ns.adobe.com/GenericCustomNamespace/1.0/">
	<!ENTITY ns_adobe_xpath "http://ns.adobe.com/XPath/1.0/">
]>
<svg version="1.1" id="Layer_1" xmlns:x="&ns_extend;" xmlns:i="&ns_ai;" xmlns:graph="&ns_graphs;"
	 xmlns="http://www.w3.org/2000/svg" xmlns:xlink="http://www.w3.org/1999/xlink" x="0px" y="0px" viewBox="0 0 128 126.4"
	 style="enable-background:new 0 0 128 126.4;" xml:space="preserve">
<style type="text/css">
	.st0{stroke:#FFFFFF;stroke-width:1.5;stroke-miterlimit:10;}
</style>
<metadata>
	<sfw  xmlns="&ns_sfw;">
		<slices></slices>
		<sliceSourceBounds  bottomLeftOrigin="true" height="126.4" width="128" x="-0.2" y="31.2"></sliceSourceBounds>
	</sfw>
</metadata>
<path d="M126.3,47.9c-0.5-2-1-4-1.7-5.9c-0.2-0.5-0.7-0.8-1.3-0.6c-0.5,0.2-0.8,0.7-0.6,1.3c0.6,1.9,1.2,3.8,1.6,5.8
	c7.7,33.3-13,66.6-46.4,74.4c-1.9,0.4-3.8,0.8-5.7,1.1c-0.6,0-1,0.5-0.9,1.1c0,0.6,0.5,1,1.1,0.9h0.1c2-0.3,4-0.6,5.9-1.1
	C112.9,116.8,134.3,82.4,126.3,47.9C126.4,48,126.4,48,126.3,47.9L126.3,47.9z"/>
<path d="M64,124.4c-1.5,0-3.1-0.1-4.6-0.2c-0.6,0-1,0.4-1.1,0.9c0,0.6,0.4,1,0.9,1.1c1.6,0.1,3.2,0.2,4.8,0.2c0.6,0,1-0.4,1-1
	S64.5,124.4,64,124.4L64,124.4z"/>
<path d="M43.8,3.7c0.1,0,0.2,0,0.3-0.1C46.1,3,48,2.4,50,2c0.5-0.1,0.9-0.7,0.8-1.2S50.1-0.1,49.6,0c-2,0.5-4.1,1-6,1.7
	C43,1.9,42.7,2.5,42.9,3C43,3.4,43.4,3.7,43.8,3.7L43.8,3.7z"/>
<path d="M1,62.5L1,62.5c0.6,0,1-0.4,1-1c0.3-22.7,12.9-43.4,33-54c0.5-0.2,0.7-0.8,0.5-1.3c-0.2-0.5-0.8-0.7-1.3-0.5c0,0,0,0,0,0
	C13.4,16.7,0.3,38.1,0,61.5C0,62.1,0.4,62.5,1,62.5C1,62.5,1,62.5,1,62.5z"/>
<path d="M42.8,120.2L42.8,120.2c0.2-0.5-0.1-1.1-0.6-1.3C21,110.8,6,91.7,3,69.2c-0.1-0.5-0.6-0.9-1.1-0.9c-0.5,0.1-0.9,0.6-0.9,1.1
	c0,0,0,0,0,0c3.1,23.2,18.6,42.9,40.5,51.3C42,120.9,42.6,120.7,42.8,120.2C42.8,120.2,42.8,120.2,42.8,120.2z"/>
<path d="M63.5,1L63.5,1c0,0.6,0.5,1,1,1c22.7,0.2,43.4,12.8,54.1,32.8c0.2,0.5,0.8,0.7,1.3,0.4c0.5-0.2,0.7-0.8,0.4-1.3c0,0,0,0,0,0
	C109.4,13.2,87.9,0.2,64.5,0C63.9,0,63.5,0.4,63.5,1C63.5,1,63.5,1,63.5,1z"/>
<path class="st0" d="M65.3,107c5.2,0,9.8-1.7,13-5l10.5-10.7c2.9-3,4.5-7,4.8-11.8c0.1-1.3-0.9-2.3-2.2-2.4c-1.3,0-2.3,0.9-2.4,2.2
	c-0.2,3.6-1.3,6.6-3.5,8.8c-3.5,3.6-9.4,4.5-16.7,2.7c-7.5-2.1-15.6-7.1-22.5-13.8c-13.7-13.6-19-31.5-11.5-39.1
	c5.4-5.5,16.8-4.6,28.3,2.4c1,0.7,2.5,0.3,3.2-0.8c0.7-1,0.3-2.5-0.8-3.2c-13.5-8.2-26.8-8.9-33.9-1.7L21.2,45.5l0,0
	c-4.7,4.8-6.1,12.3-3.6,21.1c2.3,8.4,7.6,17,15.2,24.5C43.2,101.4,55.4,107.1,65.3,107z M24.6,72.4l7.2-7.3c0.9,1.7,1.8,3.3,2.9,4.9
	l-7.3,7.4C26.3,75.8,25.4,74.1,24.6,72.4z M21.9,65.5c-0.2-0.9-0.5-1.7-0.6-2.6l6.8-6.9c0.5,1.6,0.9,3.2,1.6,4.8l-7,7.1
	C22.4,67.1,22.2,66.3,21.9,65.5z M37.4,73.8c1.3,1.7,2.8,3.4,4.2,5l-7.3,7.4c-1.5-1.6-3-3.3-4.2-5L37.4,73.8z M49.8,86.1l-7.3,7.3
	c-1.7-1.2-3.3-2.6-4.9-4.1l7.3-7.4C46.5,83.4,48.1,84.7,49.8,86.1z M58.5,91.5l-7.1,7.2c-1.7-0.8-3.3-1.7-5-2.7l7.2-7.3
	C55.2,89.7,56.8,90.7,58.5,91.5z M67.7,95.1L61,102c-1.6-0.3-3.3-0.8-5-1.3l7-7.1C64.6,94.2,66.1,94.8,67.7,95.1z M75.9,96.3
	c0.6,0,1.1,0,1.7-0.1L75,98.8c-2,2.1-4.9,3.2-8.1,3.5l6.1-6.2C74.1,96.2,75,96.3,75.9,96.3z M27,50.5l-6.1,6.2
	c0.3-3.3,1.4-5.9,3.4-8l0,0l2.6-2.6C26.9,47.6,26.9,49.1,27,50.5z"/>
<path class="st0" d="M89.1,24.7c-0.9-0.9-2.3-0.9-3.2,0c-0.5,0.5-0.7,1.1-0.7,1.8c0,0.1,0,0.1,0,0.2l0.1,11
	c-11.7,1.3-31,11.8-30.8,33.9l0,0c0,0.1,0,0.2,0,0.2c0,0.1,0,0.1,0,0.2s0,0.1,0.1,0.2c0,0.1,0,0.1,0.1,0.2c0,0.1,0.1,0.1,0.1,0.2
	c0,0.1,0.1,0.1,0.1,0.2l0.1,0.1c0,0.1,0.1,0.1,0.2,0.2l0,0l0.1,0.1c0.1,0,0.1,0.1,0.2,0.1s0.1,0.1,0.2,0.1s0.1,0.1,0.2,0.1
	s0.1,0,0.2,0.1c0.1,0,0.1,0,0.1,0c0.1,0,0.3,0,0.5,0s0.3,0,0.5,0s0.3-0.1,0.5-0.1l0,0c0.1,0,0.2-0.1,0.3-0.2l0.1-0.1
	c0.1-0.1,0.1-0.1,0.2-0.2l0,0c12.5-13.5,20.6-14.8,27-15l0.1,10.9l0,0c0,0.1,0,0.3,0,0.5s0,0.1,0.1,0.2c0,0.1,0,0.1,0.1,0.2
	c0,0.1,0.1,0.1,0.1,0.2c0,0,0,0.1,0.1,0.1c0.1,0.1,0.2,0.2,0.3,0.3l0,0l0,0c0.1,0.1,0.2,0.2,0.3,0.2l0.1,0.1c0.1,0,0.1,0.1,0.2,0.1
	c0.1,0,0.1,0,0.2,0.1c0.1,0,0.1,0,0.2,0.1c0.1,0,0.3,0,0.5,0s0.3,0,0.5,0s0.1,0,0.2-0.1c0.1,0,0.1,0,0.2-0.1c0.1,0,0.1-0.1,0.2-0.1
	c0.1,0,0.1,0,0.2-0.1c0.1-0.1,0.2-0.2,0.3-0.3l0,0l21.1-21.5c0.9-0.9,0.9-2.3,0-3.2L89.1,24.7z M90.1,63.6L90,56
	c0-1.3-1-2.3-2.3-2.3l-0.3,0c-0.1,0-0.2,0-0.5,0c-6.4,0-14.9,0.3-27.2,11.9c3.2-15.5,18.7-23.3,27.9-23.4c1.3,0,2.3-1,2.3-2.3
	l-0.1-8.1l15.9,15.8L90.1,63.6z"/>
</svg>
